<svg width="60" height="40" viewBox="0 0 60 40" fill="none" xmlns="http://www.w3.org/2000/svg">
<rect width="60" height="40" rx="4" fill="#1E71B9"/>
<path d="M8.43462 16.2538H10.2274L9.33122 14.0482L8.43462 16.2538Z" fill="white"/>
<path d="M17.9685 23.6579V24.6821H20.9836V25.7851H17.9685V26.967H21.3094L22.8576 25.3124L21.391 23.6579H17.9685Z" fill="white"/>
<path d="M41.5176 14.0482L40.5397 16.2538H42.4141L41.5176 14.0482Z" fill="white"/>
<path d="M26.6875 27.5965V23.1066L24.5688 25.3124L26.6875 27.5965Z" fill="white"/>
<path d="M30.6803 24.3672C30.5988 23.8945 30.2725 23.6579 29.7834 23.6579H28.0725V25.0757H29.8654C30.3542 25.0759 30.6803 24.8397 30.6803 24.3672Z" fill="white"/>
<path d="M36.3838 24.9186C36.5468 24.8397 36.6286 24.6031 36.6286 24.3673C36.7102 24.0525 36.5468 23.8947 36.3838 23.8158C36.2213 23.737 35.9765 23.737 35.7324 23.737H34.1023V24.9975H35.7323C35.9764 24.9975 36.2212 24.9975 36.3838 24.9186Z" fill="white"/>
<path d="M48.1175 12V12.9452L47.6289 12H43.7995V12.9452L43.3103 12H38.0952C37.199 12 36.4653 12.1577 35.8137 12.4727V12H32.147V12.4727C31.7397 12.1578 31.2508 12 30.5989 12H17.4797L16.583 13.9693L15.6869 12H11.5312V12.9452L11.1237 12H7.53836L5.9084 15.7021L4.03445 19.7194L4 19.7983H8.2423L8.27184 19.7194L8.76098 18.538H9.82023L10.3091 19.7983H15.0348V18.8531L15.4425 19.7982H17.8054L18.2126 18.8531V19.7983H29.5393V17.7501H29.7026C29.8654 17.7501 29.8654 17.7501 29.8654 17.9866V19.7195H35.7324V19.2468C36.2213 19.4835 36.9542 19.7195 37.9321 19.7195H40.377L40.8659 18.4594H42.0064L42.4953 19.7195H47.2212V18.5381L47.9549 19.7195H51.7846V12H48.1175ZM20.4945 18.617H19.1907V14.2845L19.1091 14.4652V14.463L17.2135 18.617H16.0125L14.057 14.2845V18.617H11.2867L10.7164 17.4354H7.94559L7.37512 18.617H5.94273L8.35328 13.1029H10.3902L12.6718 18.3805V13.1029H14.8306L14.869 13.1819H14.8718L15.8999 15.3449L16.6382 16.9655L16.6643 16.8839L18.2939 13.103H20.4944L20.4945 18.617ZM26.1171 14.2845H22.9391V15.3084H26.0356V16.4111H22.9391V17.5143H26.1171V18.6955H21.554V13.103H26.1171V14.2845ZM31.9291 16.3156C31.9312 16.3175 31.9339 16.3187 31.9364 16.3204C31.9673 16.3519 31.9936 16.3835 32.0161 16.4137C32.1722 16.6115 32.2984 16.9057 32.3048 17.3371C32.3052 17.3446 32.3056 17.352 32.3061 17.3594C32.3061 17.3637 32.3069 17.3675 32.3069 17.3719C32.3069 17.3744 32.3066 17.3763 32.3066 17.3787C32.3085 17.4221 32.3097 17.4664 32.3097 17.5143V18.6171H31.0877V17.9867C31.0877 17.6716 31.0877 17.1989 30.8429 16.8839C30.7659 16.8094 30.6879 16.7604 30.6031 16.7255C30.481 16.649 30.2495 16.6478 29.8654 16.6478H28.3982V18.6171H27.0133V13.103H30.11C30.8429 13.103 31.332 13.103 31.7396 13.3393C32.1388 13.5711 32.38 13.9555 32.3891 14.5642C32.3703 15.4025 31.8136 15.8624 31.4134 16.0175C31.4134 16.0175 31.6853 16.0704 31.9291 16.3156ZM34.673 18.617H33.2876V13.1029H34.673V18.617ZM50.5627 18.617H48.7697L46.1623 14.4419V17.9078L46.1538 17.8997V18.6204H44.7772V18.6171H43.3918L42.9029 17.4356H40.0506L39.5617 18.6956H38.0136C37.3621 18.6956 36.5467 18.5383 36.0581 18.0656C35.5691 17.593 35.3249 16.9628 35.3249 15.939C35.3249 15.1513 35.4877 14.3631 36.0581 13.7331C36.4652 13.2602 37.1989 13.103 38.095 13.103H39.3991V14.2845H38.095C37.6061 14.2845 37.3621 14.363 37.0355 14.5997C36.7915 14.8359 36.6284 15.3084 36.6284 15.8598C36.6284 16.4901 36.71 16.8839 37.0355 17.1989C37.2806 17.4356 37.6062 17.5144 38.0136 17.5144H38.5839L40.4579 13.1821H42.4952L44.777 18.4596V13.1822H46.814L49.1766 17.0418V13.1822H50.5625L50.5627 18.617Z" fill="white"/>
<path d="M30.7672 15.3995C30.7909 15.375 30.8125 15.3471 30.8308 15.3152C30.9046 15.2022 30.9892 14.9988 30.9436 14.7211C30.9418 14.6956 30.937 14.672 30.9313 14.6493C30.9298 14.6429 30.93 14.6374 30.9283 14.631C30.8877 14.4961 30.7834 14.4133 30.6802 14.363C30.5168 14.2845 30.2724 14.2845 30.0281 14.2845H28.3981V15.545H30.0281C30.2724 15.545 30.517 15.545 30.6802 15.466C30.7047 15.454 30.7265 15.4377 30.7475 15.4193C30.7475 15.4193 30.7561 15.4118 30.7672 15.3995Z" fill="white"/>
<path d="M55.37 26.4942C55.37 25.9428 55.2072 25.3912 54.9629 24.9975V21.4529H54.9591V21.2163C54.9591 21.2163 51.5437 21.2163 51.0353 21.2163C50.5272 21.2163 49.9106 21.6888 49.9106 21.6888V21.2163H46.1624C45.5917 21.2163 44.8588 21.374 44.5325 21.6888V21.2163H37.8509V21.6887C37.3624 21.2951 36.4653 21.2162 36.0582 21.2162H31.6579V21.6886C31.2506 21.295 30.2723 21.2161 29.7831 21.2161H24.8948L23.7537 22.3977L22.6943 21.2161H15.361V29.1723H22.5317L23.7099 28.033L24.7312 29.1723H29.2947V27.3607H29.7024C30.2723 27.3607 31.006 27.3607 31.5763 27.124V29.251H35.2433V27.2029H35.4058C35.6506 27.2029 35.6506 27.2029 35.6506 27.4392V29.251H46.7322C47.4661 29.251 48.199 29.0931 48.6064 28.7781V29.251H52.1105C52.8434 29.251 53.5774 29.1723 54.0663 28.857C54.8165 28.4219 55.2893 27.6517 55.3597 26.7331C55.3629 26.7059 55.367 26.6787 55.3696 26.6514L55.3648 26.647C55.3679 26.596 55.37 26.5456 55.37 26.4942ZM29.7025 26.0217H28.0724V28.0695H25.3941L23.8353 26.3364L23.8299 26.3421L23.7537 26.2574L21.9611 28.0695H16.7461V22.5556H22.0427L23.4897 24.0878L23.7939 24.4086L23.8352 24.3673L25.5466 22.5558H29.8652C30.7033 22.5558 31.6418 22.7557 31.9975 23.5801C32.0403 23.7433 32.0651 23.9248 32.0651 24.131C32.0651 25.7063 30.9243 26.0217 29.7025 26.0217ZM37.8509 25.9427C38.0137 26.1784 38.0952 26.494 38.0952 26.9669V28.0694H36.7102V27.3607C36.7102 27.0451 36.7102 26.494 36.4654 26.2574C36.3029 26.0217 35.9765 26.0217 35.4879 26.0217H34.0213V28.0695H32.6362V22.4768H35.7324C36.3838 22.4768 36.9542 22.4768 37.3624 22.7129C37.7695 22.9494 38.0952 23.3433 38.0952 23.9735C38.0952 24.8398 37.5251 25.3124 37.1175 25.4702C37.5251 25.6271 37.7695 25.7851 37.8509 25.9427ZM43.4736 23.6579H40.2952V24.682H43.3918V25.785H40.2952V26.8879H43.4736V28.0694H38.9104V22.4767H43.4736V23.6579ZM46.8957 28.0695H44.288V26.8881H46.8957C47.1397 26.8881 47.303 26.8881 47.4664 26.7304C47.5479 26.6514 47.6289 26.4942 47.6289 26.3365C47.6289 26.1786 47.5479 26.0218 47.4664 25.9428C47.3846 25.8641 47.2213 25.7852 46.977 25.7852C45.6732 25.7064 44.125 25.7852 44.125 24.0525C44.125 23.2647 44.6139 22.3981 46.0808 22.3981H48.7696V23.737H46.2438C45.9994 23.737 45.8362 23.737 45.6731 23.8158C45.5105 23.8948 45.5105 24.0525 45.5105 24.2098C45.5105 24.4462 45.6731 24.5251 45.8361 24.6032C45.9994 24.6822 46.1622 24.6822 46.325 24.6822H47.0584C47.7919 24.6822 48.2807 24.8398 48.6066 25.1549C48.8512 25.3914 49.0142 25.7852 49.0142 26.3365C49.0142 27.5177 48.2808 28.0695 46.8957 28.0695ZM53.9034 27.5177C53.5778 27.8332 53.0071 28.0695 52.192 28.0695H49.585V26.8881H52.1918C52.4364 26.8881 52.5998 26.8881 52.7626 26.7304C52.8438 26.6514 52.9256 26.4942 52.9256 26.3365C52.9256 26.1786 52.8438 26.0218 52.7626 25.9428C52.681 25.8641 52.5182 25.7852 52.2736 25.7852C50.9703 25.7064 49.4216 25.7852 49.4216 24.0526C49.4216 23.3039 49.8647 22.6276 50.9575 22.4267C51.0882 22.4093 51.2262 22.3981 51.3774 22.3981H54.0666V23.737H51.5404C51.2958 23.737 51.1331 23.737 50.9703 23.8158C50.8883 23.8948 50.8067 24.0525 50.8067 24.2098C50.8067 24.4462 50.8883 24.5251 51.1331 24.6032C51.2958 24.6822 51.4588 24.6822 51.622 24.6822H52.3551C52.7112 24.6822 52.9805 24.7247 53.227 24.8084C53.4527 24.8874 54.1999 25.2104 54.367 26.0538C54.3815 26.1422 54.3922 26.2344 54.3922 26.3365C54.3922 26.8092 54.2292 27.203 53.9034 27.5177Z" fill="white"/>
</svg>
