<svg width="60" height="40" viewBox="0 0 60 40" fill="none" xmlns="http://www.w3.org/2000/svg">
<rect width="60" height="40" rx="4" fill="white"/>
<path fill-rule="evenodd" clip-rule="evenodd" d="M8.89519 23.5985C8.89519 22.754 8.45436 22.8095 8.03266 22.8006V22.5565C8.39831 22.5743 8.77324 22.5743 9.13986 22.5743C9.53373 22.5743 10.0685 22.5565 10.7633 22.5565C13.193 22.5565 14.5164 24.1803 14.5164 25.8432C14.5164 26.7738 13.9722 29.1115 10.6504 29.1115C10.1723 29.1115 9.73066 29.0929 9.28983 29.0929C8.86794 29.0929 8.45436 29.1016 8.03266 29.1115V28.8672C8.59506 28.8103 8.86794 28.7919 8.89519 28.1534V23.5985ZM9.81473 28.0028C9.81473 28.7262 10.3313 28.8103 10.7909 28.8103C12.8182 28.8103 13.4834 27.2799 13.4834 25.8809C13.4834 24.1248 12.3577 22.8573 10.547 22.8573C10.1614 22.8573 9.98403 22.8848 9.81473 22.8948V28.0028Z" fill="#1A1919"/>
<path fill-rule="evenodd" clip-rule="evenodd" d="M14.8452 28.8672H15.023C15.2856 28.8672 15.4735 28.8672 15.4735 28.5565V26.0119C15.4735 25.5993 15.333 25.5422 14.9853 25.355V25.2051C15.4263 25.0724 15.9522 24.8952 15.9893 24.867C16.0554 24.8293 16.1108 24.8192 16.1586 24.8192C16.2046 24.8192 16.2239 24.8757 16.2239 24.9515V28.5565C16.2239 28.8672 16.4307 28.8672 16.6937 28.8672H16.8526V29.1115C16.5335 29.1115 16.2046 29.0929 15.8679 29.0929C15.5301 29.0929 15.1921 29.1016 14.8452 29.1115V28.8672ZM15.849 23.3736C15.6045 23.3736 15.3892 23.1482 15.3892 22.9041C15.3892 22.6689 15.6147 22.4525 15.849 22.4525C16.0925 22.4525 16.3089 22.6503 16.3089 22.9041C16.3089 23.1581 16.1019 23.3736 15.849 23.3736Z" fill="#1A1919"/>
<path fill-rule="evenodd" clip-rule="evenodd" d="M17.7443 26.0683C17.7443 25.7215 17.6407 25.6277 17.2004 25.449V25.2707C17.6032 25.1393 17.9876 25.0167 18.4385 24.8192C18.4669 24.8192 18.4941 24.838 18.4941 24.913V25.5237C19.0299 25.1393 19.4896 24.8192 20.1193 24.8192C20.9157 24.8192 21.1971 25.4016 21.1971 26.1341V28.5565C21.1971 28.8672 21.4041 28.8672 21.6666 28.8672H21.8359V29.1115C21.5063 29.1115 21.1784 29.0929 20.8409 29.0929C20.5029 29.0929 20.1649 29.1016 19.8271 29.1115V28.8672H19.9964C20.2592 28.8672 20.4461 28.8672 20.4461 28.5565V26.1254C20.4461 25.5894 20.1193 25.3267 19.5838 25.3267C19.2832 25.3267 18.8047 25.5705 18.4941 25.778V28.5565C18.4941 28.8672 18.7015 28.8672 18.9644 28.8672H19.1329V29.1115C18.8047 29.1115 18.4762 29.0929 18.1378 29.0929C17.8007 29.0929 17.4625 29.1016 17.1251 29.1115V28.8672H17.2944C17.5568 28.8672 17.7443 28.8672 17.7443 28.5565V26.0683Z" fill="#1A1919"/>
<path fill-rule="evenodd" clip-rule="evenodd" d="M22.549 26.5198C22.5299 26.6043 22.5299 26.7449 22.549 27.0645C22.6043 27.9563 23.1779 28.6885 23.9277 28.6885C24.4445 28.6885 24.8482 28.4066 25.1948 28.0598L25.3258 28.1914C24.894 28.7641 24.3595 29.2527 23.5907 29.2527C22.0983 29.2527 21.7982 27.8057 21.7982 27.2051C21.7982 25.3643 23.0364 24.8192 23.6925 24.8192C24.4534 24.8192 25.2703 25.2981 25.279 26.2939C25.279 26.3509 25.279 26.4066 25.2703 26.4631L25.1855 26.5198H22.549ZM24.2105 26.219C24.4445 26.219 24.472 26.0968 24.472 25.9836C24.472 25.5055 24.1813 25.1204 23.6556 25.1204C23.0837 25.1204 22.6895 25.5422 22.577 26.219H24.2105Z" fill="#1A1919"/>
<path fill-rule="evenodd" clip-rule="evenodd" d="M25.4953 28.8672H25.7488C26.0105 28.8672 26.1984 28.8672 26.1984 28.5565V25.9182C26.1984 25.6277 25.8515 25.5705 25.7106 25.4954V25.355C26.3955 25.0637 26.771 24.8192 26.8568 24.8192C26.9117 24.8192 26.9399 24.8474 26.9399 24.9418V25.7871H26.9596C27.1935 25.4209 27.5883 24.8192 28.1604 24.8192C28.3948 24.8192 28.6947 24.9788 28.6947 25.3171C28.6947 25.5705 28.5173 25.797 28.2547 25.797C27.9628 25.797 27.9628 25.5705 27.6341 25.5705C27.4749 25.5705 26.9494 25.7871 26.9494 26.3509V28.5565C26.9494 28.8672 27.1368 28.8672 27.3997 28.8672H27.9246V29.1115C27.4086 29.1016 27.0159 29.0929 26.6119 29.0929C26.2272 29.0929 25.8329 29.1016 25.4953 29.1115V28.8672Z" fill="#1A1919"/>
<path fill-rule="evenodd" clip-rule="evenodd" d="M29.1073 27.8057C29.2297 28.4254 29.6042 28.9521 30.2905 28.9521C30.8432 28.9521 31.0494 28.6136 31.0494 28.2852C31.0494 27.1765 29.0045 27.5337 29.0045 26.0219C29.0045 25.4954 29.427 24.8194 30.4592 24.8194C30.759 24.8194 31.1623 24.9045 31.528 25.0925L31.5939 26.0496H31.3782C31.2844 25.4583 30.9565 25.1204 30.3552 25.1204C29.9799 25.1204 29.6237 25.336 29.6237 25.7399C29.6237 26.8393 31.8001 26.5006 31.8001 27.9751C31.8001 28.5944 31.3034 29.2527 30.1863 29.2527C29.8114 29.2527 29.3696 29.1209 29.0422 28.9331L28.9384 27.8531L29.1073 27.8057Z" fill="#1A1919"/>
<path fill-rule="evenodd" clip-rule="evenodd" d="M40.2729 24.2558H40.0388C39.8603 23.1581 39.0814 22.7161 38.0312 22.7161C36.9509 22.7161 35.3845 23.4387 35.3845 25.6925C35.3845 27.5902 36.7362 28.9521 38.1808 28.9521C39.1089 28.9521 39.88 28.3132 40.0673 27.3266L40.2831 27.3827L40.0673 28.7542C39.6732 28.9987 38.6126 29.2527 37.9926 29.2527C35.7979 29.2527 34.4093 27.8343 34.4093 25.7215C34.4093 23.7958 36.1264 22.415 37.9655 22.415C38.7252 22.415 39.4569 22.6598 40.1795 22.9136L40.2729 24.2558Z" fill="#1A1919"/>
<path fill-rule="evenodd" clip-rule="evenodd" d="M40.6117 28.8672H40.7893C41.0529 28.8672 41.2402 28.8672 41.2402 28.5565V23.3271C41.2402 22.7161 41.0997 22.6975 40.7427 22.5941V22.4436C41.1178 22.3217 41.5123 22.1531 41.7098 22.0395C41.8116 21.984 41.8874 21.936 41.915 21.936C41.9724 21.936 41.991 21.9931 41.991 22.0685V28.5565C41.991 28.8672 42.1976 28.8672 42.46 28.8672H42.6189V29.1115C42.3008 29.1115 41.9724 29.0929 41.6344 29.0929C41.2968 29.0929 40.9594 29.1016 40.6117 29.1115V28.8672Z" fill="#1A1919"/>
<path fill-rule="evenodd" clip-rule="evenodd" d="M46.6362 28.5944C46.6362 28.7641 46.7389 28.773 46.8979 28.773C47.0112 28.773 47.1513 28.7641 47.2742 28.7641V28.9618C46.8705 28.9989 46.1007 29.1962 45.9221 29.2527L45.8754 29.224V28.4633C45.313 28.9233 44.8808 29.2527 44.2137 29.2527C43.7072 29.2527 43.1821 28.9233 43.1821 28.1355V25.7306C43.1821 25.4861 43.1448 25.2513 42.6201 25.2051V25.0262C42.9581 25.0169 43.7072 24.9608 43.8295 24.9608C43.9337 24.9608 43.9337 25.0262 43.9337 25.2331V27.6558C43.9337 27.9378 43.9337 28.7445 44.7498 28.7445C45.0683 28.7445 45.4906 28.501 45.8845 28.1728V25.6459C45.8845 25.4583 45.4343 25.355 45.0971 25.2616V25.0927C45.9407 25.0355 46.4668 24.9608 46.5605 24.9608C46.6362 24.9608 46.6362 25.0262 46.6362 25.1298V28.5944Z" fill="#1A1919"/>
<path fill-rule="evenodd" clip-rule="evenodd" d="M48.503 25.4954C48.8781 25.1768 49.385 24.8192 49.901 24.8192C50.9897 24.8192 51.6466 25.7687 51.6466 26.7921C51.6466 28.0219 50.7454 29.2527 49.403 29.2527C48.7094 29.2527 48.3433 29.0266 48.0989 28.9233L47.8182 29.1393L47.6215 29.0364C47.7054 28.4825 47.7527 27.9378 47.7527 27.3647V23.3271C47.7527 22.7161 47.6114 22.6975 47.2549 22.5941V22.4436C47.6306 22.3217 48.0243 22.1531 48.2212 22.0395C48.3248 21.984 48.3996 21.936 48.4282 21.936C48.484 21.936 48.503 21.9933 48.503 22.0685V25.4954ZM48.503 28.05C48.503 28.4066 48.841 29.0082 49.4695 29.0082C50.4733 29.0082 50.8954 28.0219 50.8954 27.1857C50.8954 26.1718 50.1268 25.3267 49.3951 25.3267C49.0464 25.3267 48.7561 25.5525 48.503 25.7687V28.05Z" fill="#1A1919"/>
<path fill-rule="evenodd" clip-rule="evenodd" d="M8.02223 34.5718H8.09393C8.27752 34.5718 8.47156 34.5467 8.47156 34.2807V31.6037C8.47156 31.3374 8.27752 31.312 8.09393 31.312H8.02223V31.1585C8.22129 31.1585 8.52761 31.1788 8.77846 31.1788C9.03357 31.1788 9.3395 31.1585 9.57953 31.1585V31.312H9.50745C9.32462 31.312 9.1302 31.3374 9.1302 31.6037V34.2807C9.1302 34.5467 9.32462 34.5718 9.50745 34.5718H9.57953V34.7254C9.33467 34.7254 9.02758 34.7057 8.77324 34.7057C8.52258 34.7057 8.22129 34.7254 8.02223 34.7254V34.5718Z" fill="#1A1919"/>
<path fill-rule="evenodd" clip-rule="evenodd" d="M9.57953 34.7473C9.33254 34.7473 9.027 34.7267 8.77286 34.7267C8.52297 34.7267 8.22264 34.7473 8.02223 34.7473H8V34.5498H8.09354C8.27888 34.5453 8.4474 34.5304 8.44895 34.2807V31.6037C8.4474 31.3536 8.27888 31.3374 8.09354 31.3341H8V31.1362H8.02223C8.22264 31.1362 8.52877 31.1562 8.77846 31.1562C9.03241 31.1562 9.33815 31.1362 9.57953 31.1362H9.60234V31.3341H9.50841C9.32288 31.3374 9.15339 31.3536 9.15242 31.6037V34.2807C9.15339 34.5304 9.32288 34.5453 9.50841 34.5498H9.60234V34.7473H9.57953ZM9.5575 34.7035L9.5577 34.5948H9.50841C9.32578 34.5948 9.10875 34.5627 9.10759 34.2807V31.6037C9.10875 31.3211 9.32578 31.2896 9.50841 31.2896H9.5575V31.1805C9.32192 31.1807 9.02603 31.2012 8.77846 31.2012C8.53592 31.2012 8.24235 31.1821 8.04464 31.1805V31.2896H8.09354C8.27559 31.2896 8.49301 31.3211 8.49301 31.6037V34.2807C8.49301 34.5627 8.27559 34.5948 8.09354 34.5948H8.04464V34.7035C8.24235 34.7018 8.5307 34.683 8.77286 34.683C9.02159 34.683 9.3167 34.7022 9.5575 34.7035Z" fill="#1A1919"/>
<path fill-rule="evenodd" clip-rule="evenodd" d="M13.0871 33.7182L13.0973 33.7082V31.7925C13.0973 31.3732 12.8059 31.3119 12.6528 31.3119H12.5403V31.1585C12.7807 31.1585 13.0155 31.1788 13.2552 31.1788C13.4645 31.1788 13.6748 31.1585 13.8833 31.1585V31.3119H13.8073C13.5922 31.3119 13.3522 31.3527 13.3522 31.9608V34.2857C13.3522 34.4649 13.3572 34.6436 13.3824 34.8022H13.1883L10.5594 31.8685V33.9743C10.5594 34.4192 10.6458 34.5718 11.0389 34.5718H11.1258V34.7254C10.9063 34.7254 10.6869 34.7055 10.4674 34.7055C10.2382 34.7055 10.003 34.7254 9.77299 34.7254V34.5718H9.84469C10.1968 34.5718 10.3041 34.3316 10.3041 33.924V31.771C10.3041 31.4852 10.0685 31.3119 9.83966 31.3119H9.77299V31.1585C9.96664 31.1585 10.1661 31.1788 10.3597 31.1788C10.5134 31.1788 10.6614 31.1585 10.8145 31.1585L13.0871 33.7182Z" fill="#1A1919"/>
<path fill-rule="evenodd" clip-rule="evenodd" d="M13.3824 34.8237L13.1721 34.8165L10.581 31.9262V33.9743C10.5872 34.4186 10.6547 34.5449 11.0391 34.5498H11.1484V34.7473H11.1258C10.9049 34.7473 10.6852 34.7267 10.4674 34.7267C10.2388 34.7267 10.0041 34.7473 9.7728 34.7473H9.75038V34.5498H9.84469C10.1821 34.5478 10.2786 34.3308 10.2822 33.9238V31.7718C10.2813 31.4997 10.0582 31.3341 9.83986 31.3341H9.75038V31.1362H9.7728C9.96799 31.1362 10.1678 31.1562 10.3593 31.1562C10.5116 31.1562 10.6591 31.1362 10.8313 31.1442L13.0751 33.672V31.7925C13.0726 31.3867 12.8016 31.3374 12.653 31.3341H12.5179V31.1362H12.5405C12.7817 31.1362 13.0167 31.1562 13.2552 31.1562C13.4629 31.1562 13.6723 31.1362 13.8833 31.1362H13.9057V31.3341H13.8073C13.5965 31.3395 13.3802 31.3581 13.374 31.9608V34.2857C13.374 34.4647 13.3797 34.643 13.4042 34.7981L13.4088 34.8237H13.3824ZM13.1885 34.7792H13.3574C13.3346 34.6254 13.3306 34.4558 13.3306 34.2857V31.9608C13.3306 31.3474 13.5874 31.2896 13.8073 31.2892H13.8611V31.1805C13.6599 31.1821 13.4583 31.2006 13.2552 31.2006C13.0213 31.2006 12.7941 31.1821 12.5633 31.1805L12.5627 31.2892H12.653C12.8099 31.2896 13.1193 31.3594 13.1193 31.7925L13.1126 33.7242L13.1025 33.7341L13.0851 33.7505L10.8145 31.1805C10.6628 31.1805 10.5151 31.2006 10.3593 31.2006C10.1723 31.2006 9.98055 31.1821 9.79541 31.1805L9.79444 31.2892H9.83986C10.0793 31.2896 10.3257 31.4726 10.3257 31.7718V33.9238C10.3257 34.3327 10.2119 34.5939 9.84469 34.5952L9.79541 34.5939V34.7035C10.0165 34.7018 10.2444 34.683 10.4674 34.683C10.6804 34.683 10.8929 34.7018 11.1036 34.7035V34.5952H11.0391C10.6373 34.5939 10.5377 34.4186 10.5373 33.9743V31.8113L13.1885 34.7792Z" fill="#1A1919"/>
<path fill-rule="evenodd" clip-rule="evenodd" d="M14.6484 31.414C14.265 31.414 14.2501 31.5064 14.1736 31.879H14.0203C14.0404 31.7358 14.0657 31.5929 14.0816 31.4447C14.1021 31.301 14.1123 31.1585 14.1123 31.0107H14.2346C14.2758 31.1641 14.4034 31.1585 14.5419 31.1585H17.1753C17.3139 31.1585 17.4413 31.1534 17.4517 31.0001L17.5736 31.0209C17.5539 31.1585 17.5331 31.2966 17.5182 31.4349C17.5081 31.5728 17.5081 31.7103 17.5081 31.8482L17.3547 31.9051C17.3442 31.7163 17.3189 31.414 16.9768 31.414H16.1394V34.1326C16.1394 34.5268 16.3184 34.5718 16.5631 34.5718H16.6605V34.7254C16.4612 34.7254 16.1037 34.7057 15.8285 34.7057C15.5218 34.7057 15.164 34.7254 14.9648 34.7254V34.5718H15.0622C15.3436 34.5718 15.4858 34.5467 15.4858 34.1432V31.414H14.6484Z" fill="#1A1919"/>
<path fill-rule="evenodd" clip-rule="evenodd" d="M16.6609 34.7473C16.4597 34.7473 16.1025 34.7269 15.8285 34.7269C15.5222 34.7269 15.165 34.7473 14.9648 34.7473H14.943V34.5498H15.0622C15.3436 34.5432 15.4566 34.5395 15.463 34.1432V31.4358H14.6484V31.3912H15.5073V34.1432C15.5073 34.5534 15.342 34.5948 15.0622 34.5952H14.9866V34.7031C15.188 34.7018 15.532 34.683 15.8285 34.683C16.0942 34.683 16.4353 34.7018 16.6377 34.7031V34.5952H16.5631C16.3161 34.5948 16.1174 34.5341 16.1174 34.1326V31.3912H16.9768C17.3193 31.3925 17.3647 31.6838 17.3754 31.8739L17.4859 31.8331C17.4859 31.6997 17.4865 31.566 17.4956 31.4318C17.5106 31.2997 17.5292 31.1699 17.5483 31.0389L17.4708 31.026C17.4471 31.1747 17.3031 31.1826 17.1751 31.1807H14.5153C14.3951 31.1809 14.2642 31.1751 14.2182 31.0326H14.134C14.1332 31.1738 14.1235 31.3109 14.1042 31.4471C14.0889 31.5875 14.0655 31.7223 14.047 31.8577H14.156C14.2231 31.5012 14.2667 31.3861 14.6484 31.3912V31.4358C14.2702 31.4434 14.2785 31.5066 14.1952 31.8842L14.1915 31.9016H13.9948L13.9975 31.8751C14.0184 31.7326 14.0443 31.589 14.0592 31.4407C14.0804 31.2989 14.0901 31.1571 14.0901 31.0107V30.9881H14.2522L14.2561 31.0041C14.2905 31.1329 14.385 31.1339 14.5153 31.1362H17.1751C17.3174 31.1339 17.421 31.132 17.4297 30.9983L17.4314 30.9741L17.4546 30.9788L17.599 31.0016L17.5953 31.0242C17.575 31.1614 17.5551 31.2989 17.5396 31.4358C17.5302 31.5728 17.5302 31.7101 17.5302 31.8482V31.8637L17.5153 31.8697L17.3346 31.9358L17.3334 31.9062C17.3193 31.714 17.2996 31.4358 16.9768 31.4358H16.1619V34.1326C16.1669 34.5179 16.3196 34.5449 16.5631 34.5498H16.6825V34.7473H16.6609Z" fill="#1A1919"/>
<path fill-rule="evenodd" clip-rule="evenodd" d="M17.7368 34.5718H17.8086C17.9919 34.5718 18.1865 34.5467 18.1865 34.2807V31.6037C18.1865 31.3374 17.9919 31.312 17.8086 31.312H17.7368V31.1585C18.0471 31.1585 18.5794 31.1788 19.0075 31.1788C19.4371 31.1788 19.9674 31.1585 20.3145 31.1585C20.3056 31.3782 20.3104 31.7163 20.3255 31.9407L20.1717 31.9813C20.1471 31.649 20.0859 31.384 19.5496 31.384H18.8407V32.7219H19.4471C19.7534 32.7219 19.8201 32.5488 19.8505 32.2726H20.0035C19.9933 32.4722 19.9879 32.6714 19.9879 32.8705C19.9879 33.065 19.9933 33.2591 20.0035 33.4529L19.8505 33.4834C19.8201 33.1772 19.8049 32.978 19.4522 32.978H18.8407V34.1679C18.8407 34.5006 19.1356 34.5006 19.4626 34.5006C20.0754 34.5006 20.3458 34.4594 20.4991 33.8776L20.6415 33.9128C20.5752 34.1842 20.5143 34.4542 20.4685 34.7254C20.1413 34.7254 19.5542 34.7057 19.0956 34.7057C18.635 34.7057 18.028 34.7254 17.7368 34.7254V34.5718Z" fill="#1A1919"/>
<path fill-rule="evenodd" clip-rule="evenodd" d="M20.4681 34.7473C20.1406 34.7473 19.553 34.726 19.095 34.726C18.635 34.726 18.0282 34.7473 17.7366 34.7473H17.7151V34.5498H17.8085C17.9932 34.5467 18.1614 34.5304 18.1637 34.2807V31.6037C18.1614 31.354 17.9932 31.3374 17.8085 31.3341H17.7151V31.1362H17.7366C18.0485 31.1362 18.5796 31.1562 19.0075 31.1562C19.4367 31.1562 19.9668 31.1362 20.3145 31.1362H20.3371L20.3363 31.1598C20.333 31.2362 20.3309 31.3271 20.3309 31.4233C20.3309 31.5999 20.3363 31.7935 20.3464 31.9389L20.3473 31.9571L20.3301 31.9623L20.1506 32.0093L20.1498 31.983C20.1197 31.6515 20.0752 31.4103 19.5496 31.4053H18.8613L18.861 32.6995H19.4469C19.7413 32.6964 19.7938 32.5459 19.8286 32.2703L19.8298 32.2498H20.0261L20.0258 32.2732C20.0159 32.4728 20.0099 32.6714 20.0099 32.8705C20.0099 33.0637 20.0159 33.2577 20.0258 33.4519L20.0261 33.4705L20.0076 33.4747L19.8298 33.5101L19.8286 33.4861C19.7933 33.1741 19.7909 33.0032 19.4522 32.9995H18.8613V34.1679C18.8621 34.4786 19.1296 34.4768 19.4624 34.4786C20.0772 34.4749 20.3234 34.4447 20.4772 33.8716L20.4824 33.8509L20.5039 33.8544L20.6676 33.897L20.6629 33.918C20.5967 34.1885 20.5358 34.4587 20.4896 34.7291L20.4857 34.7473H20.4681ZM20.4492 34.7031C20.4938 34.4447 20.552 34.1867 20.6146 33.9295L20.5141 33.9041C20.3613 34.4757 20.065 34.5267 19.4624 34.5229C19.1406 34.5229 18.819 34.5229 18.8173 34.1679V32.9558H19.4522C19.8087 32.9521 19.8447 33.1672 19.8702 33.4579L19.9803 33.4353C19.9705 33.2469 19.9655 33.0577 19.9655 32.8705C19.9655 32.6786 19.9705 32.4871 19.9803 32.2943H19.8702C19.8414 32.5612 19.7581 32.7474 19.4469 32.7442H18.8173V31.361H19.5496C20.0804 31.3567 20.1684 31.6318 20.1916 31.9532L20.3015 31.9233C20.2926 31.7792 20.2867 31.5939 20.2867 31.4233C20.2867 31.3358 20.289 31.2529 20.2919 31.1805C19.945 31.1821 19.4272 31.2006 19.0075 31.2006C18.5879 31.2006 18.0715 31.1821 17.759 31.1805V31.2892H17.8085C17.9901 31.2896 18.2073 31.3211 18.2085 31.6037V34.2807C18.2073 34.5627 17.9901 34.5939 17.8085 34.5952H17.759V34.7031C18.0562 34.7022 18.6464 34.683 19.095 34.683C19.5457 34.683 20.1201 34.7022 20.4492 34.7031Z" fill="#1A1919"/>
<path fill-rule="evenodd" clip-rule="evenodd" d="M21.331 31.6997C21.331 31.3271 21.1266 31.3119 20.9681 31.3119H20.8759V31.1585C21.0394 31.1585 21.356 31.1788 21.6677 31.1788C21.9735 31.1788 22.2189 31.1585 22.4895 31.1585C23.1319 31.1585 23.7049 31.332 23.7049 32.0581C23.7049 32.5177 23.3984 32.7983 22.9952 32.9577L23.8678 34.265C24.0112 34.4813 24.1125 34.5418 24.3633 34.5718V34.7254C24.1944 34.7254 24.0311 34.7057 23.8632 34.7057C23.7049 34.7057 23.5408 34.7254 23.3833 34.7254C22.9898 34.2095 22.6526 33.6579 22.3209 33.0693H21.9845V34.1635C21.9845 34.5569 22.1679 34.5718 22.4019 34.5718H22.4945V34.7254C22.2029 34.7254 21.9079 34.7057 21.6163 34.7057C21.3712 34.7057 21.1312 34.7254 20.8759 34.7254V34.5718H20.9681C21.1577 34.5718 21.331 34.4854 21.331 34.2966V31.6997ZM21.9845 32.885H22.234C22.7451 32.885 23.0204 32.6914 23.0204 32.0881C23.0204 31.6337 22.7293 31.3424 22.2744 31.3424C22.1211 31.3424 22.0558 31.3581 21.9845 31.3631V32.885Z" fill="#1A1919"/>
<path fill-rule="evenodd" clip-rule="evenodd" d="M24.3633 34.7473C24.1921 34.7473 24.0298 34.7267 23.8618 34.7267C23.7062 34.7267 23.5429 34.7473 23.3651 34.7387C22.9734 34.2242 22.6377 33.6757 22.308 33.0923H22.0063V34.1625C22.0119 34.5473 22.1659 34.5444 22.4019 34.5498H22.5165V34.7473H22.4939C22.2021 34.7473 21.9054 34.7267 21.6161 34.7267C21.3722 34.7267 21.1324 34.7473 20.8759 34.7473H20.8537V34.5498H20.9681C21.1517 34.5484 21.3069 34.4683 21.3077 34.2966V31.6997C21.3038 31.3374 21.1266 31.3391 20.9681 31.3341H20.8537V31.1362H20.8759C21.0412 31.1362 21.3564 31.1562 21.6677 31.1562C21.9725 31.1562 22.2173 31.1362 22.4895 31.1362C23.1332 31.1376 23.7256 31.315 23.7271 32.0573C23.7271 32.5184 23.4225 32.8066 23.0289 32.9674L23.8862 34.2529C24.029 34.4649 24.1179 34.5179 24.3662 34.5498L24.3848 34.5527V34.7473H24.3633ZM22.3331 33.0473L22.3395 33.0587C22.6719 33.6457 23.0074 34.1975 23.3833 34.7035C23.5387 34.7035 23.7028 34.683 23.8618 34.683C24.0247 34.683 24.1824 34.7008 24.3409 34.7031V34.591C24.1017 34.5618 23.9892 34.4894 23.8498 34.2776L22.961 32.9474L22.9861 32.9372C23.386 32.7796 23.6823 32.5066 23.6825 32.0573C23.6823 31.3484 23.1313 31.184 22.4895 31.1805C22.2206 31.1805 21.9752 31.2012 21.6677 31.2012C21.3678 31.2012 21.0647 31.1821 20.8978 31.1805V31.2892H20.9681C21.1266 31.2896 21.3521 31.3159 21.3521 31.6997V34.2966C21.3521 34.5016 21.1602 34.5948 20.9681 34.5952H20.8978V34.7031C21.1432 34.7022 21.3763 34.683 21.6161 34.683C21.9012 34.683 22.1895 34.7022 22.4719 34.7031V34.5952H22.4019C22.1694 34.5948 21.9617 34.566 21.9617 34.1625V33.0473H22.3331ZM21.9617 32.907V31.3424L21.9812 31.3409C22.0511 31.3353 22.1199 31.3211 22.2744 31.3211C22.7394 31.3211 23.0422 31.6235 23.0426 32.0894C23.0412 32.6995 22.749 32.9068 22.234 32.907H21.9617ZM22.234 32.8635C22.7394 32.8585 22.9941 32.683 22.9991 32.0894C22.996 31.643 22.7191 31.366 22.2744 31.3641C22.1366 31.3641 22.0714 31.3768 22.0063 31.3832V32.8635H22.234Z" fill="#1A1919"/>
<path fill-rule="evenodd" clip-rule="evenodd" d="M27.8297 33.7182L27.8386 33.7082V31.7925C27.8386 31.3732 27.5485 31.3119 27.3952 31.3119H27.2833V31.1585C27.5234 31.1585 27.7574 31.1788 27.998 31.1788C28.2079 31.1788 28.4157 31.1585 28.6265 31.1585V31.3119H28.5496C28.3351 31.3119 28.0952 31.3527 28.0952 31.9608V34.2857C28.0952 34.4649 28.1003 34.6436 28.1254 34.8022H27.9321L25.303 31.8685V33.9743C25.303 34.4192 25.3892 34.5718 25.7823 34.5718H25.8692V34.7254C25.6499 34.7254 25.4299 34.7055 25.2106 34.7055C24.98 34.7055 24.7456 34.7254 24.516 34.7254V34.5718H24.5869C24.9394 34.5718 25.0473 34.3316 25.0473 33.924V31.771C25.0473 31.4852 24.8121 31.3119 24.5825 31.3119H24.516V31.1585C24.7093 31.1585 24.9099 31.1788 25.1035 31.1788C25.2552 31.1788 25.4041 31.1585 25.5575 31.1585L27.8297 33.7182Z" fill="#1A1919"/>
<path fill-rule="evenodd" clip-rule="evenodd" d="M28.1252 34.8237L27.9155 34.8165L25.324 31.9266V33.9741C25.33 34.4192 25.3973 34.5449 25.7823 34.5498H25.8905V34.7473H25.8683C25.6476 34.7473 25.4284 34.726 25.2096 34.726C24.9818 34.726 24.7458 34.7473 24.5158 34.7473H24.493V34.5498H24.5869C24.9242 34.5484 25.0208 34.3308 25.0241 33.9227V31.771C25.0235 31.4987 24.8009 31.3341 24.5825 31.3341H24.493V31.1362H24.5158C24.7108 31.1362 24.9107 31.1562 25.1033 31.1562C25.2533 31.1562 25.4012 31.1362 25.5724 31.1428L27.8169 33.672V31.7925C27.8156 31.3867 27.5437 31.3364 27.3952 31.3341H27.2605V31.1362H27.2828C27.524 31.1362 27.7593 31.1562 27.998 31.1562C28.206 31.1562 28.4151 31.1362 28.6255 31.1362H28.6482V31.3341H28.5496C28.3389 31.3391 28.1219 31.3581 28.1169 31.9608V34.2857C28.1169 34.4647 28.1213 34.6418 28.1474 34.7985L28.1499 34.8237H28.1252ZM27.9319 34.7792H28.0993C28.0769 34.6264 28.0724 34.4558 28.0724 34.2857V31.9608C28.0728 31.3474 28.331 31.2906 28.5496 31.2892H28.6033V31.1805C28.4023 31.1821 28.2006 31.2006 27.998 31.2006C27.7634 31.2006 27.5359 31.1821 27.305 31.1805V31.2892H27.3952C27.5526 31.2906 27.8618 31.3594 27.8618 31.7925L27.8544 33.7242L27.8452 33.7341L27.8291 33.7509L25.5575 31.1805C25.4056 31.1805 25.2576 31.2006 25.1033 31.2006C24.9139 31.2006 24.7232 31.1821 24.5377 31.1805V31.2892H24.5825C24.8227 31.2906 25.0684 31.4718 25.0684 31.771V33.9227C25.0684 34.3327 24.953 34.5939 24.5869 34.5952L24.5377 34.5948V34.7033C24.7582 34.7018 24.9856 34.683 25.2096 34.683C25.4238 34.683 25.636 34.7018 25.847 34.7033V34.5952H25.7823C25.3805 34.5948 25.2804 34.4192 25.2792 33.9741V31.812L27.9319 34.7792Z" fill="#1A1919"/>
<path fill-rule="evenodd" clip-rule="evenodd" d="M29.4473 33.9948C29.3959 34.1679 29.3342 34.3022 29.3342 34.3929C29.3342 34.5467 29.5493 34.572 29.7173 34.572H29.7743V34.7254C29.5692 34.7144 29.3609 34.7057 29.1555 34.7057C28.9717 34.7057 28.7889 34.7144 28.6045 34.7254V34.572H28.6356C28.8343 34.572 29.0034 34.4542 29.0791 34.2395L29.8961 31.8948C29.9627 31.7053 30.0547 31.45 30.0858 31.2604C30.2482 31.2045 30.4532 31.103 30.5499 31.0409C30.5657 31.0356 30.5752 31.0304 30.5906 31.0304C30.6061 31.0304 30.6156 31.0304 30.6268 31.0465C30.6419 31.0869 30.6567 31.1329 30.6726 31.1738L31.6124 33.8467C31.6737 34.025 31.7344 34.214 31.7997 34.3681C31.8619 34.5115 31.9692 34.572 32.1383 34.572H32.1688V34.7254C31.9388 34.7144 31.7085 34.7057 31.4646 34.7057C31.2143 34.7057 30.9582 34.7144 30.6979 34.7254V34.572H30.7541C30.8709 34.572 31.0713 34.5517 31.0713 34.4238C31.0713 34.3579 31.0251 34.2198 30.9681 34.0556L30.7692 33.4631H29.6104L29.4473 33.9948ZM30.1927 31.731H30.1821L29.7076 33.1772H30.6616L30.1927 31.731Z" fill="#1A1919"/>
<path fill-rule="evenodd" clip-rule="evenodd" d="M32.1673 34.7473C31.9379 34.7374 31.7077 34.726 31.4646 34.726C31.2143 34.726 30.9596 34.7374 30.6991 34.7473L30.6755 34.7484V34.5488H30.7541C30.8724 34.5488 31.0479 34.5223 31.0483 34.4239C31.0494 34.3656 31.0036 34.2256 30.9474 34.0631L30.753 33.485H29.6268L29.468 34.0014C29.4166 34.1751 29.3545 34.3101 29.3555 34.3933C29.3572 34.518 29.5478 34.5488 29.7173 34.5488H29.7957V34.7484L29.7726 34.7473C29.5685 34.7374 29.3601 34.726 29.1559 34.726C28.9736 34.726 28.789 34.7374 28.6062 34.7473L28.5824 34.7484V34.5488H28.6354C28.8252 34.5484 28.9837 34.4399 29.0575 34.2324L29.8752 31.8869C29.9411 31.6977 30.0338 31.4436 30.0779 31.2393C30.2381 31.185 30.4436 31.0819 30.5415 31.0202C30.5558 31.0151 30.57 31.0086 30.5904 31.0086C30.603 31.0078 30.6304 31.0111 30.6471 31.0378C30.6616 31.0797 30.6778 31.1256 30.6933 31.1668L31.6333 33.8393C31.6934 34.0182 31.7545 34.207 31.8213 34.3585C31.8805 34.4946 31.9742 34.5484 32.1383 34.5488H32.1899V34.7484L32.1673 34.7473ZM30.7201 34.7018C30.9727 34.6929 31.2207 34.683 31.4646 34.683C31.7013 34.683 31.924 34.6929 32.1458 34.7018V34.5948H32.1383C31.9632 34.596 31.8428 34.5271 31.7802 34.3765C31.7137 34.2221 31.6516 34.0324 31.5913 33.8534L30.6513 31.1807C30.6359 31.1399 30.6214 31.0943 30.608 31.0579C30.603 31.0529 30.6042 31.0529 30.6001 31.0529H30.5904C30.5802 31.0529 30.574 31.056 30.5609 31.0592C30.4627 31.1231 30.258 31.2239 30.1061 31.2637C30.075 31.4573 29.983 31.7126 29.9167 31.902L29.0998 34.2469C29.0221 34.4689 28.8426 34.5952 28.6354 34.5948H28.6269V34.7018C28.802 34.6929 28.9786 34.683 29.1559 34.683C29.3534 34.683 29.5547 34.6929 29.7501 34.7018V34.5948H29.7173C29.5505 34.5925 29.3182 34.5743 29.3124 34.3933C29.3128 34.2919 29.3754 34.1612 29.4255 33.9885L29.5936 33.4418H30.7841L30.9886 34.0486C31.046 34.213 31.0923 34.3492 31.0923 34.4239C31.0848 34.5803 30.8699 34.5919 30.7541 34.5948H30.7201V34.7018ZM29.6765 33.1993L30.1653 31.7084H30.1927H30.208L30.6933 33.1993H29.6765ZM29.7376 33.1546H30.6314L30.1871 31.7854L29.7376 33.1546Z" fill="#1A1919"/>
<path fill-rule="evenodd" clip-rule="evenodd" d="M32.3932 31.414C32.0103 31.414 31.9949 31.5064 31.918 31.879H31.7645C31.7846 31.7358 31.8107 31.5929 31.8265 31.4447C31.8465 31.301 31.8563 31.1585 31.8563 31.0107H31.9798C32.0198 31.1641 32.1478 31.1585 32.2855 31.1585H34.9205C35.0577 31.1585 35.1853 31.1534 35.1953 31.0001L35.3174 31.0209C35.2985 31.1585 35.2782 31.2966 35.2622 31.4349C35.251 31.5728 35.251 31.7103 35.251 31.8482L35.0985 31.9051C35.0894 31.7163 35.0637 31.414 34.7208 31.414H33.8836V34.1326C33.8836 34.5268 34.0626 34.5718 34.3073 34.5718H34.4049V34.7254C34.2054 34.7254 33.8487 34.7057 33.5723 34.7057C33.2665 34.7057 32.9082 34.7254 32.7092 34.7254V34.5718H32.8064C33.0878 34.5718 33.2302 34.5467 33.2302 34.1432V31.414H32.3932Z" fill="#1A1919"/>
<path fill-rule="evenodd" clip-rule="evenodd" d="M34.4049 34.7473C34.2043 34.7473 33.8463 34.7269 33.5719 34.7269C33.2669 34.7269 32.9094 34.7473 32.7094 34.7473H32.6868V34.5498H32.8064C33.088 34.5432 33.2008 34.5395 33.2076 34.1432L33.2072 31.4358H32.3932V31.3912H33.2522V34.1432C33.2522 34.5534 33.0868 34.5939 32.8064 34.5948H32.7312V34.7035C32.933 34.7018 33.276 34.683 33.5719 34.683C33.8388 34.683 34.1805 34.7018 34.3821 34.7035V34.5948H34.3071C34.061 34.5939 33.8622 34.5347 33.8618 34.1326V31.3912H34.7208C35.0639 31.3925 35.1085 31.6838 35.1184 31.8739L35.2293 31.8331C35.2293 31.6997 35.2301 31.566 35.2405 31.4324C35.2543 31.3006 35.2736 31.1699 35.2921 31.0395L35.215 31.026C35.1916 31.1747 35.0475 31.183 34.9205 31.1807H32.2595C32.1391 31.1821 32.0088 31.1751 31.9624 31.0322H31.8789C31.8778 31.1736 31.8677 31.3109 31.8476 31.4471C31.8337 31.5881 31.8092 31.7233 31.7896 31.8577H31.8994C31.9665 31.5012 32.0107 31.3856 32.3932 31.3912V31.4358C32.0146 31.4424 32.0229 31.5066 31.9396 31.8842L31.9359 31.9016H31.7388L31.7419 31.8763C31.7634 31.7326 31.7885 31.589 31.8034 31.4418C31.8242 31.2989 31.8337 31.1571 31.8337 31.0107V30.9881H31.9958L32.0001 31.0041C32.0359 31.1329 32.1288 31.1339 32.2595 31.1362H34.9205C35.0618 31.1339 35.1648 31.132 35.1739 30.9987L35.1746 30.9741L35.1984 30.9788L35.3433 31.0016L35.3399 31.0242C35.3188 31.1614 35.2995 31.2989 35.284 31.4358C35.2736 31.5728 35.2736 31.7103 35.2736 31.8482V31.8637L35.2587 31.8697L35.078 31.9358L35.0772 31.9062C35.0639 31.714 35.0436 31.4358 34.7208 31.4358H33.9057V34.1326C33.9109 34.5179 34.0638 34.5449 34.3071 34.5498H34.4261V34.7473H34.4049Z" fill="#1A1919"/>
<path fill-rule="evenodd" clip-rule="evenodd" d="M35.5065 34.5718H35.578C35.762 34.5718 35.9552 34.5467 35.9552 34.2807V31.6037C35.9552 31.3374 35.762 31.312 35.578 31.312H35.5065V31.1585C35.7057 31.1585 36.0115 31.1788 36.2613 31.1788C36.5172 31.1788 36.8237 31.1585 37.0642 31.1585V31.312H36.9925C36.8079 31.312 36.6138 31.3374 36.6138 31.6037V34.2807C36.6138 34.5467 36.8079 34.5718 36.9925 34.5718H37.0642V34.7254C36.8189 34.7254 36.5122 34.7057 36.2573 34.7057C36.0066 34.7057 35.7057 34.7254 35.5065 34.7254V34.5718Z" fill="#1A1919"/>
<path fill-rule="evenodd" clip-rule="evenodd" d="M37.0642 34.7473C36.8174 34.7473 36.512 34.726 36.2573 34.726C36.0074 34.726 35.7059 34.7473 35.5065 34.7473H35.4846V34.5498H35.5782C35.7621 34.5467 35.9318 34.5304 35.933 34.2807V31.6037C35.9318 31.354 35.7621 31.3374 35.5782 31.3341H35.4846V31.1362H35.5065C35.7059 31.1362 36.013 31.1562 36.2613 31.1562C36.5159 31.1562 36.8222 31.1362 37.0642 31.1362H37.0854V31.3341H36.9926C36.8058 31.3374 36.6378 31.354 36.6361 31.6037V34.2807C36.6378 34.5304 36.8058 34.5467 36.9926 34.5498H37.0854V34.7473H37.0642ZM37.041 34.7031V34.5948H36.9926C36.8094 34.5948 36.5928 34.5627 36.5928 34.2807V31.6037C36.5928 31.3211 36.8094 31.2896 36.9926 31.2892H37.041V31.1805C36.8056 31.1821 36.5099 31.2006 36.2613 31.2006C36.019 31.2006 35.7268 31.1821 35.5287 31.1805V31.2892H35.5782C35.7594 31.2896 35.9771 31.3211 35.9776 31.6037V34.2807C35.9771 34.5627 35.7594 34.5948 35.5782 34.5948H35.5287V34.7031C35.7254 34.7008 36.0142 34.683 36.2573 34.683C36.5049 34.683 36.8002 34.7018 37.041 34.7031Z" fill="#1A1919"/>
<path fill-rule="evenodd" clip-rule="evenodd" d="M39.1 31.0819C40.1884 31.0819 41.056 31.7571 41.056 32.8455C41.056 34.0209 40.2134 34.8022 39.1263 34.8022C38.0434 34.8022 37.2166 34.0662 37.2166 32.9674C37.2166 31.9051 38.0384 31.0819 39.1 31.0819ZM39.1771 34.5772C40.1679 34.5772 40.3407 33.7028 40.3407 32.9577C40.3407 32.2109 39.9384 31.3068 39.0903 31.3068C38.1971 31.3068 37.9313 32.1041 37.9313 32.7883C37.9313 33.7028 38.3503 34.5772 39.1771 34.5772Z" fill="#1A1919"/>
<path fill-rule="evenodd" clip-rule="evenodd" d="M37.1938 32.9674C37.196 31.8927 38.0272 31.0614 39.0998 31.0596V31.1043C38.0502 31.1043 37.2383 31.9163 37.2371 32.9674C37.2392 34.0538 38.054 34.7788 39.1265 34.7792C40.2025 34.7788 41.033 34.0088 41.0343 32.8447C41.0334 31.7699 40.1795 31.1053 39.0998 31.1043V31.0596C40.196 31.0608 41.0759 31.7426 41.0778 32.8447C41.0767 34.0324 40.224 34.8217 39.1265 34.8237C38.0343 34.8217 37.196 34.0784 37.1938 32.9674ZM37.9089 32.7883C37.9104 32.1006 38.1785 31.284 39.0901 31.284C39.9571 31.2859 40.3614 32.2068 40.3631 32.9577C40.3614 33.7028 40.1863 34.5981 39.1773 34.5981V34.5548C40.148 34.554 40.3168 33.7028 40.3183 32.9577C40.3183 32.2175 39.92 31.3304 39.0901 31.3291C38.2143 31.33 37.9555 32.1076 37.9532 32.7883C37.9535 33.6985 38.3687 34.5534 39.1773 34.5548V34.5981C38.3298 34.5973 37.9104 33.7082 37.9089 32.7883Z" fill="#1A1919"/>
<path fill-rule="evenodd" clip-rule="evenodd" d="M44.4964 33.7182L44.5071 33.7082V31.7925C44.5071 31.3732 44.2151 31.3119 44.062 31.3119H43.9509V31.1585C44.1901 31.1585 44.4255 31.1788 44.6648 31.1788C44.8747 31.1788 45.084 31.1585 45.2935 31.1585V31.3119H45.2167C45.0028 31.3119 44.7618 31.3527 44.7618 31.9608V34.2857C44.7618 34.4649 44.7672 34.6436 44.7931 34.8022H44.5989L41.969 31.8685V33.9743C41.969 34.4192 42.0561 34.5718 42.4484 34.5718H42.536V34.7254C42.3163 34.7254 42.0971 34.7055 41.8775 34.7055C41.6476 34.7055 41.4126 34.7254 41.1828 34.7254V34.5718H41.2545C41.6074 34.5718 41.7139 34.3316 41.7139 33.924V31.771C41.7139 31.4852 41.4798 31.3119 41.2489 31.3119H41.1828V31.1585C41.3768 31.1585 41.5757 31.1788 41.7701 31.1788C41.923 31.1788 42.0702 31.1585 42.2241 31.1585L44.4964 33.7182Z" fill="#1A1919"/>
<path fill-rule="evenodd" clip-rule="evenodd" d="M44.7933 34.8237L44.5821 34.8165L41.991 31.9266V33.9743C41.997 34.4192 42.0644 34.5444 42.4479 34.5488H42.5578V34.7473H42.5362C42.3151 34.7473 42.0959 34.7267 41.8775 34.7267C41.6487 34.7267 41.4137 34.7473 41.1822 34.7473H41.1613V34.5488H41.2543C41.5907 34.5478 41.6878 34.3308 41.6918 33.9238V31.771C41.6916 31.4987 41.4684 31.3341 41.2491 31.3341H41.1613V31.1362H41.1822C41.378 31.1362 41.577 31.1562 41.7699 31.1562C41.9214 31.1562 42.0681 31.1362 42.2413 31.1442L44.4847 33.672V31.7925C44.4829 31.3867 44.211 31.3374 44.062 31.3341H43.9275V31.1362H43.9509C44.1907 31.1362 44.4263 31.1562 44.6642 31.1562C44.8731 31.1562 45.0814 31.1362 45.2937 31.1362H45.3151V31.3341H45.2165C45.0061 31.3395 44.7889 31.3589 44.7846 31.9608V34.2857C44.7846 34.4647 44.7887 34.643 44.8134 34.7985L44.8178 34.8237H44.7933ZM44.5989 34.7792H44.7662C44.7446 34.6254 44.7396 34.4558 44.7396 34.2857V31.9608C44.7396 31.3465 44.9974 31.2906 45.2165 31.2892H45.2718V31.1805C45.0691 31.1821 44.8683 31.2006 44.6642 31.2006C44.4317 31.2006 44.2035 31.1821 43.9723 31.1805V31.2892H44.062C44.2197 31.2906 44.5279 31.3604 44.5279 31.7925L44.5225 33.7242L44.5127 33.7341L44.4964 33.7509L42.2243 31.1805C42.0731 31.1805 41.9245 31.2006 41.7699 31.2006C41.5817 31.2006 41.3899 31.1821 41.2042 31.1805V31.2892H41.2491C41.4891 31.2906 41.7357 31.4718 41.7357 31.771V33.9238C41.7357 34.3327 41.6217 34.5939 41.2543 34.5952L41.2042 34.5948V34.7033C41.4259 34.7018 41.6532 34.683 41.8775 34.683C42.0905 34.683 42.3021 34.7018 42.5138 34.7033V34.5952H42.4479C42.0472 34.5948 41.9467 34.4192 41.9467 33.9743V31.8113L44.5989 34.7792Z" fill="#1A1919"/>
<path fill-rule="evenodd" clip-rule="evenodd" d="M46.1137 33.9948C46.0636 34.1679 46.002 34.3022 46.002 34.3929C46.002 34.5467 46.2171 34.572 46.3844 34.572H46.4414V34.7254C46.237 34.7144 46.0275 34.7057 45.823 34.7057C45.6392 34.7057 45.4556 34.7144 45.2726 34.7254V34.572H45.3016C45.5018 34.572 45.6709 34.4542 45.7455 34.2395L46.5642 31.8948C46.6301 31.7053 46.7224 31.45 46.7518 31.2604C46.9159 31.2045 47.1196 31.103 47.218 31.0409C47.2323 31.0356 47.2425 31.0304 47.2584 31.0304C47.2732 31.0304 47.2829 31.0304 47.2933 31.0465C47.3088 31.0869 47.3241 31.1329 47.3395 31.1738L48.279 33.8467C48.3399 34.025 48.4015 34.214 48.4682 34.3681C48.5294 34.5115 48.6365 34.572 48.8048 34.572H48.8363V34.7254C48.6062 34.7144 48.3762 34.7057 48.1309 34.7057C47.8812 34.7057 47.6256 34.7144 47.3648 34.7254V34.572H47.4215C47.5382 34.572 47.7384 34.5517 47.7384 34.4238C47.7384 34.3579 47.6926 34.2198 47.6356 34.0556L47.4365 33.4631H46.2777L46.1137 33.9948ZM46.8602 31.731H46.85L46.374 33.1772H47.3303L46.8602 31.731Z" fill="#1A1919"/>
<path fill-rule="evenodd" clip-rule="evenodd" d="M48.834 34.7473C48.6039 34.7382 48.3746 34.7268 48.1311 34.7268C47.882 34.7268 47.6261 34.7382 47.366 34.7473L47.3434 34.7484V34.5498H47.4211C47.5397 34.5498 47.7156 34.5223 47.7158 34.4239C47.7172 34.3656 47.671 34.2262 47.6136 34.0631L47.4199 33.485H46.2928L46.1351 34.0014C46.0837 34.1765 46.0234 34.3101 46.024 34.3929C46.024 34.518 46.2155 34.5498 46.3842 34.5498H46.4623V34.7484L46.4393 34.7473C46.2354 34.7382 46.0263 34.7268 45.823 34.7268C45.64 34.7268 45.4568 34.7382 45.2726 34.7473L45.2504 34.7484V34.5498H45.3016C45.4919 34.5488 45.6512 34.4397 45.726 34.2324L46.5425 31.8869C46.608 31.6977 46.7002 31.4436 46.7451 31.2401C46.9055 31.1844 47.1105 31.0819 47.2099 31.0202C47.223 31.0151 47.2373 31.009 47.2582 31.009C47.2713 31.0078 47.2982 31.0111 47.3138 31.0389C47.3293 31.0792 47.3444 31.1256 47.361 31.1668L48.2999 33.8393C48.3613 34.0182 48.4222 34.207 48.4885 34.3594C48.5486 34.4946 48.641 34.5484 48.8043 34.5498H48.857V34.7484L48.834 34.7473ZM47.3867 34.7022C47.6393 34.6929 47.8876 34.683 48.1311 34.683C48.3685 34.683 48.5905 34.6929 48.8133 34.7018L48.8128 34.5948H48.8043C48.6313 34.5952 48.5109 34.5271 48.4471 34.3765C48.3799 34.2221 48.3192 34.0324 48.2579 33.854L47.3185 31.1807C47.3034 31.1399 47.2872 31.0943 47.2752 31.0589C47.2709 31.0529 47.2713 31.0529 47.2682 31.0529H47.2582C47.2472 31.0529 47.2415 31.0563 47.2294 31.0598C47.1295 31.1223 46.9252 31.2248 46.7744 31.2637C46.7427 31.4573 46.65 31.7122 46.5843 31.902L45.7666 34.2469C45.6889 34.4689 45.5105 34.5952 45.3016 34.5948H45.294V34.7018C45.4699 34.6929 45.6454 34.683 45.823 34.683C46.0207 34.683 46.2227 34.6929 46.4188 34.7018V34.5948H46.3842C46.2182 34.5925 45.9855 34.5749 45.979 34.3929C45.9803 34.2919 46.0431 34.1616 46.0932 33.9885L46.2611 33.4418H47.4512L47.6563 34.0486C47.7125 34.213 47.7591 34.3492 47.7591 34.4239C47.7518 34.5803 47.537 34.5919 47.4211 34.5948H47.3867V34.7022ZM46.3435 33.1991L46.8338 31.7084H46.8602H46.8757L47.3585 33.1991H46.3435ZM46.4051 33.1546H47.2984L46.8542 31.7861L46.4051 33.1546Z" fill="#1A1919"/>
<path fill-rule="evenodd" clip-rule="evenodd" d="M50.1223 34.2242C50.1223 34.4297 50.2642 34.4902 50.4281 34.5115C50.637 34.5267 50.867 34.5268 51.1025 34.5006C51.3167 34.4749 51.5005 34.3531 51.5921 34.2242C51.6732 34.112 51.7192 33.9689 51.7505 33.8567H51.8982C51.842 34.148 51.7706 34.4345 51.7094 34.7254C51.261 34.7254 50.8103 34.7057 50.3618 34.7057C49.912 34.7057 49.4631 34.7254 49.014 34.7254V34.5718H49.0847C49.2689 34.5718 49.4687 34.5467 49.4687 34.2298V31.6037C49.4687 31.3374 49.2689 31.3119 49.0847 31.3119H49.014V31.1585C49.2841 31.1585 49.5501 31.1788 49.8202 31.1788C50.0811 31.1788 50.3359 31.1585 50.597 31.1585V31.3119H50.4686C50.2746 31.3119 50.1223 31.3173 50.1223 31.5881V34.2242Z" fill="#1A1919"/>
<path fill-rule="evenodd" clip-rule="evenodd" d="M51.7096 34.7473C51.2593 34.7473 50.8096 34.7267 50.3618 34.7267C49.9126 34.7267 49.4633 34.7473 49.013 34.7473H48.9915V34.5498H49.0847C49.2693 34.5453 49.4445 34.5324 49.4467 34.2298V31.6028C49.4445 31.354 49.27 31.3374 49.0847 31.3341H48.9915V31.1362H49.013C49.2849 31.1362 49.5506 31.1562 49.8199 31.1562C50.0798 31.1562 50.3341 31.1362 50.597 31.1362H50.6175V31.3341H50.4686C50.2705 31.3391 50.1476 31.3302 50.1432 31.5881V34.2242C50.1445 34.4153 50.2696 34.4664 50.4292 34.4892C50.5191 34.4954 50.6142 34.4987 50.7123 34.4987C50.8372 34.4987 50.9669 34.4929 51.0989 34.479C51.3068 34.4542 51.4858 34.3339 51.5741 34.212C51.653 34.1028 51.6974 33.9627 51.7283 33.8515L51.7326 33.8347H51.9251L51.9206 33.8616C51.8628 34.1536 51.7925 34.4387 51.7306 34.73L51.7266 34.7473H51.7096ZM51.6908 34.7031C51.75 34.4256 51.8166 34.1542 51.8719 33.8786H51.7666C51.7353 33.9898 51.6897 34.1269 51.6097 34.2382C51.5142 34.3705 51.3252 34.4954 51.1037 34.5229C50.9702 34.5364 50.8374 34.5434 50.7123 34.5434C50.6134 34.5434 50.5179 34.5389 50.425 34.5324C50.259 34.5142 50.0984 34.4428 50.0985 34.2242V31.5881C50.0985 31.3039 50.2781 31.2892 50.4686 31.2892H50.5738V31.1805C50.3223 31.1821 50.074 31.2012 49.8199 31.2012C49.5561 31.2012 49.2973 31.1821 49.036 31.1805V31.2892H49.0847C49.2667 31.2892 49.4896 31.3211 49.4896 31.6028V34.2298C49.4896 34.5606 49.2677 34.5948 49.0847 34.5948H49.036V34.7031C49.477 34.7022 49.9184 34.683 50.3618 34.683C50.8057 34.683 51.2488 34.7022 51.6908 34.7031Z" fill="#1A1919"/>
<path fill-rule="evenodd" clip-rule="evenodd" d="M51.836 31.0136C52.144 31.0136 52.3738 31.2503 52.3738 31.5529C52.3738 31.8552 52.144 32.0894 51.836 32.0894C51.5287 32.0894 51.2985 31.8552 51.2985 31.5529C51.2985 31.2503 51.5287 31.0136 51.836 31.0136ZM51.836 31.9894C52.0772 31.9894 52.2613 31.7842 52.2613 31.5529C52.2613 31.3211 52.0793 31.1144 51.836 31.1144C51.594 31.1144 51.41 31.3211 51.41 31.5529C51.41 31.7842 51.594 31.9894 51.836 31.9894ZM51.5687 31.8366V31.8105C51.6344 31.801 51.6468 31.8028 51.6468 31.7625V31.3637C51.6468 31.3076 51.6412 31.2883 51.5708 31.2914V31.2639H51.846C51.9405 31.2639 52.0277 31.3091 52.0277 31.407C52.0277 31.4869 51.9751 31.5463 51.9005 31.5693L51.989 31.6927C52.0302 31.7484 52.0772 31.801 52.1073 31.8196V31.8366H52.0028C51.9525 31.8366 51.9081 31.731 51.8095 31.5892H51.75V31.7676C51.75 31.8028 51.7623 31.801 51.8284 31.8105V31.8366H51.5687ZM51.75 31.5529H51.8134C51.8827 31.5529 51.9148 31.5004 51.9148 31.4155C51.9148 31.33 51.8653 31.2997 51.8099 31.2997H51.75V31.5529Z" fill="#1A1919"/>
<path fill-rule="evenodd" clip-rule="evenodd" d="M19.9464 13.1186C19.9464 8.33888 23.8178 4.46422 28.5934 4.46422C33.3691 4.46422 37.2405 8.33888 37.2405 13.1186C37.2405 17.8983 33.3691 21.7731 28.5934 21.7731C23.8178 21.7731 19.9464 17.8983 19.9464 13.1186Z" fill="#FFFFFE"/>
<path fill-rule="evenodd" clip-rule="evenodd" d="M33.8228 12.9482C33.8194 10.7319 32.4352 8.84178 30.4848 8.09323V17.8027C32.4352 17.0532 33.8194 15.1648 33.8228 12.9482ZM26.7641 17.8008V8.0942C24.8155 8.84507 23.4334 10.7325 23.4282 12.9482C23.4334 15.1632 24.8155 17.0505 26.7641 17.8008ZM28.6254 4.74139C24.0969 4.74313 20.428 8.41586 20.4272 12.9482C20.428 17.4799 24.0969 21.152 28.6254 21.1528C33.154 21.152 36.8236 17.4799 36.8248 12.9482C36.8236 8.41586 33.154 4.74313 28.6254 4.74139ZM28.6053 21.9274C23.6499 21.9509 19.5713 17.9329 19.5713 13.0418C19.5713 7.69633 23.6499 3.99903 28.6053 4H30.9276C35.8245 3.99903 40.2937 7.69459 40.2937 13.0418C40.2937 17.9311 35.8245 21.9274 30.9276 21.9274H28.6053Z" fill="#0167AA"/>
</svg>
