<svg width="60" height="40" viewBox="0 0 60 40" fill="none" xmlns="http://www.w3.org/2000/svg">
<g clip-path="url(#clip0_1_8028)">
<rect width="60" height="40" rx="4" fill="white"/>
<path d="M2.77954 16.257V24.4116H5.10471C6.33646 24.4116 7.23228 24.1217 8.01612 23.4696C8.94487 22.699 9.49817 21.5397 9.49817 20.3409C9.49817 17.9366 7.69995 16.257 5.11789 16.257H2.77954ZM6.9688 22.3828C6.4682 22.8307 5.82269 23.0283 4.79513 23.0283H4.36698V17.6336H4.79513C5.82269 17.6336 6.44844 17.8181 6.9688 18.2923C7.5221 18.7798 7.85145 19.5438 7.85145 20.3211C7.85145 21.0984 7.5221 21.8888 6.9688 22.3762V22.3828Z" fill="#261F20"/>
<path d="M11.8102 16.257H10.2227V24.4116H11.8102V16.257Z" fill="#261F20"/>
<path d="M15.703 19.3857C14.7479 19.03 14.4713 18.7995 14.4713 18.3582C14.4713 17.8444 14.9719 17.4558 15.6569 17.4558C16.1312 17.4558 16.5264 17.6534 16.9414 18.1145L17.7713 17.0276C17.0863 16.4282 16.2695 16.1252 15.3737 16.1252C13.9312 16.1252 12.8312 17.1264 12.8312 18.4636C12.8312 19.5899 13.3449 20.163 14.8402 20.6965C15.4593 20.9139 15.7821 21.0654 15.9402 21.1576C16.2563 21.3618 16.4144 21.6582 16.4144 22.0007C16.4144 22.6594 15.8875 23.1534 15.1761 23.1534C14.4186 23.1534 13.806 22.7714 13.4372 22.0666L12.4096 23.0546C13.1407 24.1283 14.0234 24.6091 15.2354 24.6091C16.8887 24.6091 18.048 23.5091 18.048 21.9349C18.048 20.6372 17.5144 20.051 15.703 19.3923V19.3857Z" fill="#261F20"/>
<path d="M18.5486 20.3408C18.5486 22.7384 20.4324 24.596 22.8498 24.596C23.5349 24.596 24.1211 24.4642 24.8457 24.1217V22.251C24.2067 22.8899 23.6468 23.1468 22.9223 23.1468C21.3217 23.1468 20.1821 21.9875 20.1821 20.3342C20.1821 18.7666 21.3546 17.5348 22.8498 17.5348C23.6073 17.5348 24.1804 17.8049 24.8457 18.4504V16.5797C24.1474 16.224 23.5744 16.0791 22.8893 16.0791C20.4785 16.0791 18.5486 17.9761 18.5486 20.3474V20.3408Z" fill="#261F20"/>
<path d="M37.4595 21.7307L35.2792 16.257H33.5469L37.005 24.6158H37.8613L41.3853 16.257H39.6595L37.4595 21.7307Z" fill="#261F20"/>
<path d="M42.1033 24.4116H46.6153V23.0283H43.6907V20.8283H46.5033V19.445H43.6907V17.6402H46.6153V16.257H42.1033V24.4116Z" fill="#261F20"/>
<path d="M52.9124 18.6612C52.9124 17.133 51.8585 16.257 50.0273 16.257H47.6692V24.4116H49.2566V21.1379H49.4674L51.6674 24.4116H53.6238L51.0549 20.9732C52.2537 20.7295 52.9124 19.9127 52.9124 18.6612ZM49.7177 20.0115H49.2501V17.5414H49.7375C50.7255 17.5414 51.2656 17.9564 51.2656 18.7534C51.2656 19.5504 50.7255 20.0115 49.7111 20.0115H49.7177Z" fill="#261F20"/>
<path d="M54.177 16.6851C54.177 16.5402 54.0782 16.4611 53.907 16.4611H53.6764V17.1791H53.8477V16.9024L54.0519 17.1791H54.2627L54.0255 16.8827C54.1243 16.8563 54.1836 16.7839 54.1836 16.6851H54.177ZM53.8477 16.7839V16.5929H53.8806C53.9662 16.5929 54.0124 16.6258 54.0124 16.6851C54.0124 16.7443 53.9662 16.7839 53.8806 16.7839H53.8477Z" fill="#261F20"/>
<path d="M53.9399 16.1911C53.5908 16.1911 53.3141 16.4678 53.3141 16.8169C53.3141 17.166 53.5974 17.4426 53.9399 17.4426C54.2824 17.4426 54.5591 17.1594 54.5591 16.8169C54.5591 16.4744 54.2824 16.1911 53.9399 16.1911ZM53.9399 17.3373C53.6632 17.3373 53.4393 17.1067 53.4393 16.8235C53.4393 16.5402 53.6632 16.3097 53.9399 16.3097C54.2165 16.3097 54.4339 16.5468 54.4339 16.8235C54.4339 17.1001 54.21 17.3373 53.9399 17.3373Z" fill="#261F20"/>
<path d="M33.995 20.321C33.995 22.7055 32.0651 24.642 29.674 24.642C27.283 24.642 25.353 22.712 25.353 20.321C25.353 17.93 27.283 16 29.674 16C32.0651 16 33.995 17.93 33.995 20.321Z" fill="url(#paint0_linear_1_8028)"/>
<path style="mix-blend-mode:multiply" opacity="0.65" d="M33.995 20.321C33.995 22.7055 32.0651 24.642 29.674 24.642C27.283 24.642 25.353 22.712 25.353 20.321C25.353 17.93 27.283 16 29.674 16C32.0651 16 33.995 17.93 33.995 20.321Z" fill="url(#paint1_linear_1_8028)"/>
<g style="mix-blend-mode:multiply" opacity="0.5">
<mask id="mask0_1_8028" style="mask-type:luminance" maskUnits="userSpaceOnUse" x="25" y="16" width="9" height="9">
<path d="M33.995 20.3276C33.995 22.712 32.0585 24.6486 29.674 24.6486C27.2896 24.6486 25.353 22.7186 25.353 20.3276C25.353 17.9366 27.283 16.0066 29.674 16.0066C32.0651 16.0066 33.995 17.9366 33.995 20.3276Z" fill="white"/>
</mask>
<g mask="url(#mask0_1_8028)">
<path d="M29.7003 15.9407C32.1309 15.9407 34.107 17.9102 34.107 20.3407C34.107 22.7713 32.1309 24.7473 29.7003 24.7473C27.2698 24.7473 25.2937 22.7779 25.2937 20.3407C25.2937 17.9102 27.2632 15.9341 29.7003 15.9341V15.9407Z" fill="#020000"/>
<path d="M29.7003 15.9478C32.1309 15.9478 34.107 17.9106 34.107 20.3412C34.107 22.7718 32.1309 24.7544 29.7003 24.7544C27.2698 24.7544 25.2937 22.7849 25.2937 20.3544C25.2937 17.9238 27.2698 15.9478 29.7003 15.9478Z" fill="#030100"/>
<path d="M29.7069 15.9539C32.1375 15.9539 34.1202 17.9168 34.1202 20.3473C34.1202 22.7779 32.1441 24.7605 29.7069 24.7605C27.2698 24.7605 25.3003 22.7911 25.3069 20.3605C25.3069 17.9299 27.283 15.9539 29.7069 15.9604V15.9539Z" fill="#050100"/>
<path d="M29.7135 15.9605C32.1441 15.9605 34.1268 17.9168 34.1268 20.3473C34.1268 22.7779 32.1441 24.7606 29.7135 24.7606C27.283 24.7606 25.3069 22.7911 25.3135 20.3605C25.3135 17.9299 27.2896 15.9539 29.7135 15.9605Z" fill="#070200"/>
<path d="M29.7135 15.9671C32.1441 15.9671 34.1268 17.9168 34.1268 20.3473C34.1268 22.7779 32.1441 24.7671 29.7135 24.7671C27.283 24.7671 25.3069 22.7977 25.3135 20.3671C25.3135 17.9365 27.2896 15.9605 29.7135 15.9671Z" fill="#080200"/>
<path d="M29.7201 15.9736C32.1507 15.9736 34.1333 17.9234 34.1333 20.3539C34.1333 22.7845 32.1507 24.7737 29.7201 24.7737C27.2896 24.7737 25.3135 22.8043 25.3201 20.3737C25.3201 17.9431 27.2962 15.9671 29.7201 15.9736Z" fill="#0A0300"/>
<path d="M29.7267 15.9868C32.1573 15.9868 34.1465 17.93 34.1465 20.3605C34.1465 22.7911 32.1573 24.7869 29.7267 24.7869C27.2962 24.7869 25.3201 22.8174 25.3267 20.3869C25.3267 17.9563 27.3027 15.9802 29.7267 15.9868Z" fill="#0C0300"/>
<path d="M29.7333 15.9934C32.1639 15.9934 34.1531 17.9366 34.1531 20.3605C34.1531 22.7845 32.1639 24.7869 29.7333 24.7869C27.3027 24.7869 25.3267 22.8174 25.3333 20.3869C25.3333 17.9563 27.3093 15.9802 29.7333 15.9868V15.9934Z" fill="#0E0400"/>
<path d="M29.7333 16C32.1639 16.0066 34.1531 17.9366 34.1531 20.3671C34.1531 22.7977 32.1573 24.8001 29.7333 24.8001C27.3093 24.8001 25.3267 22.8306 25.3333 20.4001C25.3333 17.9695 27.3093 15.9934 29.7333 16Z" fill="#0F0400"/>
<path d="M29.7399 16.0066C32.1705 16.0132 34.1597 17.9366 34.1597 20.3671C34.1597 22.7977 32.1639 24.8001 29.7399 24.8001C27.3159 24.8001 25.3333 22.8306 25.3399 20.4001C25.3464 17.9695 27.3159 15.9934 29.7399 16V16.0066Z" fill="#110500"/>
<path d="M29.7465 16.0132C32.1771 16.0198 34.1729 17.9431 34.1729 20.3671C34.1729 22.7911 32.1771 24.8067 29.7465 24.8067C27.316 24.8067 25.3399 22.8372 25.3531 20.4132C25.3597 17.9827 27.3292 16.0066 29.7465 16.0198V16.0132Z" fill="#130500"/>
<path d="M29.7465 16.0198C32.1705 16.0264 34.1729 17.9431 34.1729 20.3737C34.1729 22.8043 32.1705 24.8133 29.7465 24.8133C27.3226 24.8133 25.3399 22.8438 25.3531 20.4198C25.3597 17.9893 27.3292 16.0132 29.7465 16.0264V16.0198Z" fill="#140600"/>
<path d="M29.7529 16.0264C32.1769 16.033 34.1793 17.9432 34.1793 20.3738C34.1793 22.8043 32.1769 24.8133 29.7529 24.8133C27.3289 24.8133 25.3463 22.8439 25.3594 20.4199C25.366 17.9893 27.3421 16.0133 29.7529 16.0264Z" fill="#160600"/>
<path d="M29.7597 16.0328C32.1837 16.046 34.1927 17.9496 34.1927 20.3735C34.1927 22.7975 32.1902 24.8197 29.7597 24.8197C27.3291 24.8197 25.3596 22.8502 25.3662 20.4262C25.3728 17.9957 27.3489 16.0196 29.7597 16.0328Z" fill="#180600"/>
<path d="M29.766 16.0396C32.19 16.0528 34.199 17.9498 34.199 20.3804C34.199 22.8109 32.19 24.8265 29.766 24.8265C27.3421 24.8265 25.366 22.857 25.3726 20.4331C25.3857 18.0025 27.3552 16.0264 29.766 16.0396Z" fill="#190700"/>
<path d="M29.766 16.046C32.19 16.0591 34.199 17.9562 34.199 20.3801C34.199 22.8041 32.19 24.8329 29.766 24.8329C27.3421 24.8329 25.366 22.8634 25.3726 20.4394C25.3857 18.0089 27.3552 16.0328 29.766 16.046Z" fill="#1B0700"/>
<path d="M29.7729 16.0594C32.1968 16.0726 34.2058 17.963 34.2058 20.387C34.2058 22.811 32.1968 24.8397 29.7729 24.8397C27.3489 24.8397 25.3728 22.8768 25.3794 20.4463C25.3926 18.0157 27.3621 16.0396 29.7729 16.0528V16.0594Z" fill="#1D0800"/>
<path d="M29.7795 16.066C32.2034 16.0792 34.219 17.963 34.219 20.3936C34.219 22.8241 32.2034 24.8529 29.7795 24.8529C27.3555 24.8529 25.3794 22.89 25.386 20.4594C25.3992 18.0223 27.3687 16.0528 29.7795 16.066Z" fill="#1F0800"/>
<path d="M29.7795 16.0725C32.2035 16.0857 34.2191 17.9695 34.2191 20.3935C34.2191 22.8175 32.2035 24.8528 29.7795 24.8528C27.3555 24.8528 25.3795 22.8899 25.3926 20.466C25.4058 18.0288 27.3753 16.0593 29.7795 16.0791V16.0725Z" fill="#200900"/>
<path d="M29.7859 16.0791C32.2098 16.0923 34.2254 17.9695 34.2254 20.3935C34.2254 22.8175 32.2098 24.8594 29.7859 24.8594C27.3619 24.8594 25.3858 22.8965 25.399 20.4726C25.4122 18.0354 27.3816 16.0659 29.7859 16.0857V16.0791Z" fill="#220900"/>
<path d="M29.7927 16.0856C32.2167 16.0988 34.2323 17.976 34.2323 20.3934C34.2323 22.8108 32.2101 24.8593 29.7927 24.8593C27.3753 24.8593 25.3927 22.8964 25.4058 20.4725C25.419 18.0353 27.3885 16.0658 29.7927 16.0856Z" fill="#240A00"/>
<path d="M29.799 16.0922C32.223 16.1119 34.2452 17.976 34.2452 20.4C34.2452 22.824 32.223 24.8659 29.799 24.8659C27.3751 24.8659 25.399 22.903 25.4122 20.4791C25.4253 18.0419 27.3948 16.0724 29.799 16.0922Z" fill="#250A00"/>
<path d="M29.799 16.0988C32.223 16.1185 34.2452 17.976 34.2452 20.4C34.2452 22.824 32.223 24.8725 29.799 24.8725C27.3751 24.8725 25.399 22.9096 25.4122 20.4857C25.4253 18.0485 27.4014 16.079 29.799 16.0988Z" fill="#270B00"/>
<path d="M29.8059 16.1053C32.2299 16.125 34.252 17.9826 34.252 20.3999C34.252 22.8173 32.2233 24.8724 29.8059 24.8724C27.3885 24.8724 25.4058 22.9095 25.419 20.4856C25.4322 18.0484 27.4083 16.0855 29.8059 16.0987V16.1053Z" fill="#290B00"/>
<path d="M29.8122 16.1119C32.2362 16.1316 34.265 17.9826 34.265 20.4065C34.265 22.8305 32.2362 24.8856 29.8122 24.8856C27.3883 24.8856 25.4122 22.9227 25.4254 20.4988C25.4451 18.0616 27.4146 16.0987 29.8122 16.1119Z" fill="#2A0C00"/>
<path d="M29.8122 16.1253C32.2362 16.1451 34.265 17.9894 34.265 20.4134C34.265 22.8373 32.2362 24.8925 29.8122 24.8925C27.3883 24.8925 25.4122 22.9296 25.4254 20.5056C25.4451 18.0684 27.4146 16.1055 29.8122 16.1187V16.1253Z" fill="#2C0C00"/>
<path d="M29.8191 16.1319C32.2365 16.1517 34.2718 17.996 34.2718 20.4134C34.2718 22.8308 32.2365 24.8991 29.8191 24.8991C27.4017 24.8991 25.419 22.9362 25.4322 20.5188C25.452 18.0816 27.4214 16.1187 29.8191 16.1319Z" fill="#2E0D00"/>
<path d="M29.8255 16.1384C32.2429 16.1582 34.2782 17.9959 34.2782 20.4199C34.2782 22.8439 32.2429 24.9056 29.8255 24.9056C27.4081 24.9056 25.4255 22.9427 25.4452 20.5253C25.465 18.0881 27.4345 16.1253 29.8255 16.145V16.1384Z" fill="#300D00"/>
<path d="M29.8321 16.145C32.2495 16.1648 34.2914 18.0025 34.2914 20.4199C34.2914 22.8373 32.2561 24.9122 29.8321 24.9122C27.4081 24.9122 25.432 22.9493 25.4518 20.5319C25.4716 18.0947 27.441 16.1318 29.8321 16.1516V16.145Z" fill="#310D00"/>
<path d="M29.8321 16.1515C32.2495 16.1713 34.2914 18.0024 34.2914 20.4198C34.2914 22.8372 32.2495 24.9121 29.8321 24.9121C27.4147 24.9121 25.432 22.9492 25.4518 20.5318C25.4716 18.0946 27.441 16.1318 29.8321 16.1515Z" fill="#330E00"/>
<path d="M29.8387 16.1581C32.2561 16.1845 34.298 18.0024 34.298 20.4264C34.298 22.8504 32.2561 24.9187 29.8387 24.9187C27.4213 24.9187 25.4386 22.9558 25.4584 20.5384C25.4782 18.1012 27.4476 16.1383 29.8387 16.1581Z" fill="#350E00"/>
<path d="M29.8453 16.1647C32.2627 16.191 34.3112 18.009 34.3112 20.4264C34.3112 22.8438 32.2693 24.9253 29.8453 24.9253C27.4213 24.9253 25.4452 22.9624 25.465 20.545C25.4848 18.1078 27.4542 16.1449 29.8453 16.1647Z" fill="#360F00"/>
<path d="M29.8453 16.1713C32.2627 16.1976 34.3112 18.009 34.3112 20.4264C34.3112 22.8438 32.2627 24.9253 29.8453 24.9253C27.4279 24.9253 25.4452 22.9624 25.465 20.545C25.4848 18.1078 27.4542 16.1449 29.8453 16.1647V16.1713Z" fill="#380F00"/>
<path d="M29.8519 16.1779C32.2693 16.2042 34.3178 18.0156 34.3178 20.433C34.3178 22.8504 32.2693 24.9384 29.8519 24.9384C27.4345 24.9384 25.4518 22.9756 25.4716 20.5582C25.4913 18.121 27.4674 16.1581 29.8519 16.1779Z" fill="#3A1000"/>
<path d="M29.8585 16.1845C32.2758 16.2108 34.3244 18.0156 34.3244 20.433C34.3244 22.8504 32.2758 24.9384 29.8585 24.9384C27.4411 24.9384 25.4584 22.9756 25.4782 20.5582C25.5045 18.121 27.474 16.1581 29.8585 16.1779V16.1845Z" fill="#3B1000"/>
<path d="M29.8652 16.1978C32.2826 16.2241 34.3377 18.0223 34.3377 20.4397C34.3377 22.8571 32.2826 24.9517 29.8652 24.9517C27.4478 24.9517 25.4651 22.9888 25.4915 20.578C25.5178 18.1409 27.4873 16.178 29.8652 16.2043V16.1978Z" fill="#3D1100"/>
<path d="M29.8652 16.2041C32.2826 16.2304 34.3377 18.0287 34.3377 20.4461C34.3377 22.8635 32.2826 24.9581 29.8652 24.9581C27.4478 24.9581 25.4651 23.0018 25.4915 20.5844C25.5178 18.1472 27.4873 16.1843 29.8652 16.2107V16.2041Z" fill="#3F1100"/>
<path d="M29.8715 16.2107C32.2889 16.2371 34.344 18.0287 34.344 20.4461C34.344 22.8635 32.2889 24.9581 29.8715 24.9581C27.4541 24.9581 25.4715 23.0018 25.4978 20.5844C25.5242 18.1473 27.4936 16.1844 29.8715 16.2107Z" fill="#411200"/>
<path d="M29.8781 16.2175C32.2955 16.2439 34.3506 18.0289 34.3506 20.4463C34.3506 22.8637 32.2889 24.9649 29.8781 24.9649C27.4673 24.9649 25.4781 23.0086 25.5044 20.5912C25.5308 18.1541 27.5002 16.1912 29.8781 16.2175Z" fill="#421200"/>
<path d="M29.8781 16.2239C32.2955 16.2568 34.3572 18.0353 34.3572 20.4527C34.3572 22.8701 32.2955 24.9713 29.8781 24.9713C27.4607 24.9713 25.4781 23.015 25.5044 20.5976C25.5308 18.1604 27.5002 16.1975 29.8781 16.2239Z" fill="#441300"/>
<path d="M29.8847 16.2305C32.3021 16.2634 34.3638 18.0353 34.3638 20.4527C34.3638 22.8701 32.3021 24.9779 29.8847 24.9779C27.4673 24.9779 25.4847 23.0216 25.511 20.6042C25.5373 18.167 27.5068 16.2041 29.8847 16.2305Z" fill="#461300"/>
<path d="M29.8915 16.2371C32.3023 16.27 34.3706 18.0419 34.3706 20.4527C34.3706 22.8635 32.3023 24.9779 29.8915 24.9779C27.4807 24.9779 25.4915 23.0216 25.5178 20.6042C25.5442 18.167 27.5137 16.2041 29.8915 16.2305V16.2371Z" fill="#471300"/>
<path d="M29.8979 16.2437C32.3087 16.2766 34.3836 18.0419 34.3836 20.4593C34.3836 22.8767 32.3153 24.9911 29.8979 24.9911C27.4805 24.9911 25.4978 23.0348 25.5242 20.6174C25.5505 18.1802 27.52 16.2173 29.8979 16.2437Z" fill="#491400"/>
<path d="M29.8979 16.2502C32.3087 16.2832 34.3836 18.0419 34.3836 20.4593C34.3836 22.8767 32.3153 24.9911 29.8979 24.9911C27.4805 24.9911 25.4978 23.0347 25.5242 20.6239C25.5571 18.1868 27.52 16.2239 29.8979 16.2568V16.2502Z" fill="#4B1400"/>
<path d="M29.9046 16.2568C32.3154 16.2898 34.3903 18.0485 34.3903 20.4593C34.3903 22.8701 32.3154 24.9976 29.9046 24.9976C27.4938 24.9976 25.5046 23.0413 25.5375 20.6305C25.5704 18.1934 27.5399 16.2305 29.9046 16.2634V16.2568Z" fill="#4C1500"/>
<path d="M29.911 16.2699C32.3218 16.3029 34.3966 18.055 34.3966 20.4658C34.3966 22.8766 32.3218 25.0042 29.911 25.0042C27.5002 25.0042 25.5109 23.0479 25.5439 20.637C25.5768 18.1999 27.5463 16.237 29.911 16.2699Z" fill="#4E1500"/>
<path d="M29.911 16.2768C32.3218 16.3097 34.4032 18.0618 34.4032 20.4726C34.4032 22.8834 32.3284 25.011 29.911 25.011C27.4936 25.011 25.5109 23.0547 25.5439 20.6439C25.5768 18.2067 27.5463 16.2438 29.911 16.2768Z" fill="#501600"/>
<path d="M29.9178 16.2831C32.3286 16.3161 34.4101 18.0616 34.4101 20.4724C34.4101 22.8832 32.3286 25.0173 29.9178 25.0173C27.507 25.0173 25.5178 23.061 25.5507 20.6502C25.5836 18.2131 27.5531 16.2502 29.9178 16.2831Z" fill="#521600"/>
<path d="M29.9244 16.2897C32.3352 16.3292 34.4167 18.0616 34.4167 20.4724C34.4167 22.8832 32.3352 25.0173 29.9244 25.0173C27.5136 25.0173 25.5244 23.061 25.5573 20.6502C25.5902 18.2131 27.5597 16.2502 29.9244 16.2831V16.2897Z" fill="#531700"/>
<path d="M29.931 16.2963C32.3418 16.3358 34.4232 18.0682 34.4232 20.479C34.4232 22.8898 32.3418 25.0305 29.931 25.0305C27.5202 25.0305 25.5309 23.0742 25.5639 20.6634C25.5968 18.2263 27.5663 16.2634 29.931 16.2963Z" fill="#551700"/>
<path d="M29.931 16.3029C32.3418 16.3424 34.4298 18.0682 34.4298 20.479C34.4298 22.8898 32.3418 25.0305 29.931 25.0305C27.5202 25.0305 25.5309 23.0742 25.5639 20.6634C25.5968 18.2263 27.5663 16.2634 29.931 16.2963V16.3029Z" fill="#571800"/>
<path d="M29.9373 16.3097C32.3481 16.3493 34.4362 18.0684 34.4362 20.4792C34.4362 22.89 32.3481 25.0374 29.9373 25.0374C27.5265 25.0374 25.5373 23.0811 25.5702 20.6703C25.6032 18.2331 27.5726 16.2702 29.9373 16.3031V16.3097Z" fill="#581800"/>
<path d="M29.9441 16.3162C32.3549 16.3557 34.443 18.0749 34.443 20.4857C34.443 22.8965 32.3549 25.0438 29.9441 25.0438C27.5333 25.0438 25.5441 23.0875 25.5836 20.6833C25.6165 18.2461 27.586 16.2832 29.9441 16.3227V16.3162Z" fill="#5A1900"/>
<path d="M29.9441 16.3228C32.3549 16.3623 34.4495 18.0749 34.4495 20.4857C34.4495 22.8965 32.3549 25.0504 29.9441 25.0504C27.5333 25.0504 25.5441 23.0941 25.5836 20.6899C25.6231 18.2527 27.586 16.2898 29.9441 16.3293V16.3228Z" fill="#5C1900"/>
<path d="M29.9507 16.336C32.3615 16.3756 34.4561 18.0881 34.4561 20.4924C34.4561 22.8966 32.3615 25.0571 29.9507 25.0571C27.5399 25.0571 25.5507 23.1008 25.5902 20.6966C25.6297 18.2594 27.5992 16.2965 29.9507 16.336Z" fill="#5E1A00"/>
<path d="M29.9573 16.3424C32.3681 16.3819 34.4627 18.0879 34.4627 20.4987C34.4627 22.9095 32.3681 25.0634 29.9573 25.0634C27.5465 25.0634 25.5572 23.1137 25.5968 20.7029C25.6363 18.2658 27.6058 16.3029 29.9573 16.3424Z" fill="#5F1A00"/>
<path d="M29.9639 16.3492C32.3681 16.3887 34.4693 18.0882 34.4693 20.499C34.4693 22.9098 32.3681 25.0703 29.9639 25.0703C27.5597 25.0703 25.5638 23.1205 25.6034 20.7097C25.6429 18.2726 27.6124 16.3097 29.9639 16.3492Z" fill="#611A00"/>
<path d="M29.9639 16.3558C32.3681 16.4019 34.4759 18.0947 34.4759 20.499C34.4759 22.9032 32.3747 25.0703 29.9639 25.0703C27.5531 25.0703 25.5638 23.1205 25.6034 20.7097C25.6429 18.2726 27.6124 16.3097 29.9639 16.3492V16.3558Z" fill="#631B00"/>
<path d="M29.9705 16.3622C32.3747 16.4083 34.4825 18.0945 34.4825 20.5053C34.4825 22.9161 32.3747 25.0832 29.9705 25.0832C27.5663 25.0832 25.5704 23.1335 25.61 20.7227C25.6495 18.2855 27.619 16.3226 29.9705 16.3622Z" fill="#641B00"/>
<path d="M29.9768 16.3687C32.381 16.4149 34.4888 18.1011 34.4888 20.5053C34.4888 22.9095 32.381 25.0832 29.9768 25.0832C27.5726 25.0832 25.5768 23.1335 25.6163 20.7227C25.6558 18.2855 27.6253 16.3226 29.9768 16.3622V16.3687Z" fill="#661C00"/>
<path d="M29.977 16.3755C32.3812 16.4216 34.4891 18.1013 34.4891 20.5055C34.4891 22.9097 32.3812 25.0899 29.977 25.0899C27.5728 25.0899 25.577 23.1402 25.6231 20.736C25.6626 18.2989 27.6321 16.336 29.977 16.3821V16.3755Z" fill="#681C00"/>
<path d="M29.9836 16.3818C32.3878 16.4279 34.5022 18.101 34.5022 20.5118C34.5022 22.9226 32.3878 25.0963 29.9836 25.0963C27.5794 25.0963 25.5836 23.1466 25.6297 20.7424C25.6692 18.3052 27.6387 16.3423 29.9836 16.3884V16.3818Z" fill="#691D00"/>
<path d="M29.9902 16.3887C32.3944 16.4348 34.5088 18.1079 34.5088 20.5121C34.5088 22.9163 32.3944 25.1031 29.9902 25.1031C27.586 25.1031 25.5902 23.1534 25.6363 20.7492C25.6758 18.312 27.6453 16.3492 29.9902 16.3953V16.3887Z" fill="#6B1D00"/>
<path d="M29.9968 16.3953C32.401 16.4414 34.5154 18.1079 34.5154 20.5121C34.5154 22.9164 32.401 25.1032 29.9968 25.1032C27.5926 25.1032 25.5968 23.1535 25.6429 20.7493C25.689 18.3121 27.6519 16.3492 29.9968 16.3953Z" fill="#6D1E00"/>
<path d="M29.9968 16.4085C32.401 16.4546 34.522 18.1145 34.522 20.5253C34.522 22.9361 32.401 25.1164 29.9968 25.1164C27.5926 25.1164 25.5968 23.1667 25.6429 20.7624C25.689 18.3253 27.6519 16.3624 29.9968 16.4085Z" fill="#6F1E00"/>
<path d="M30.0032 16.4149C32.4074 16.4676 34.5284 18.1209 34.5284 20.5251C34.5284 22.9293 32.4074 25.1227 30.0032 25.1227C27.5989 25.1227 25.6031 23.173 25.6492 20.7688C25.6953 18.3316 27.6648 16.3688 30.0032 16.4149Z" fill="#701F00"/>
<path d="M30.0098 16.4214C32.414 16.4741 34.535 18.1209 34.535 20.5251C34.535 22.9293 32.414 25.1227 30.0098 25.1227C27.6056 25.1227 25.6163 23.173 25.6559 20.7688C25.702 18.3316 27.6714 16.3688 30.0098 16.4149V16.4214Z" fill="#721F00"/>
<path d="M30.0098 16.428C32.414 16.4807 34.535 18.1275 34.535 20.5317C34.535 22.9359 32.4074 25.1359 30.0098 25.1359C27.6122 25.1359 25.6163 23.1862 25.6559 20.782C25.702 18.3448 27.6714 16.3819 30.0098 16.428Z" fill="#742000"/>
<path d="M30.0166 16.4346C32.4208 16.4873 34.5484 18.1275 34.5484 20.5317C34.5484 22.9359 32.4208 25.1359 30.0166 25.1359C27.6124 25.1359 25.6232 23.1862 25.6627 20.782C25.7088 18.3448 27.6783 16.3819 30.0166 16.4346Z" fill="#752000"/>
<path d="M30.0229 16.4414C32.4272 16.4941 34.5547 18.1277 34.5547 20.5319C34.5547 22.9361 32.4272 25.1427 30.0229 25.1427C27.6187 25.1427 25.6295 23.193 25.6756 20.7953C25.7217 18.3582 27.6912 16.3953 30.0229 16.448V16.4414Z" fill="#772000"/>
<path d="M30.0298 16.4478C32.434 16.5005 34.5616 18.1341 34.5616 20.5317C34.5616 22.9293 32.4274 25.1425 30.0298 25.1425C27.6321 25.1425 25.6363 23.1928 25.6824 20.7952C25.7285 18.358 27.698 16.3951 30.0298 16.4478Z" fill="#792100"/>
<path d="M30.0298 16.4546C32.4274 16.5073 34.5681 18.1343 34.5681 20.5385C34.5681 22.9427 32.434 25.1493 30.0298 25.1493C27.6256 25.1493 25.6363 23.1996 25.6824 20.802C25.7285 18.3648 27.698 16.402 30.0298 16.4546Z" fill="#7A2100"/>
<path d="M30.0364 16.461C32.434 16.5137 34.5747 18.1407 34.5747 20.5383C34.5747 22.9359 32.4406 25.1557 30.0364 25.1557C27.6322 25.1557 25.6429 23.206 25.689 20.8083C25.7417 18.3712 27.7046 16.4083 30.0364 16.461Z" fill="#7C2200"/>
<path d="M30.043 16.4676C32.4406 16.5203 34.5813 18.1407 34.5813 20.5383C34.5813 22.9359 32.4406 25.1557 30.043 25.1557C27.6453 25.1557 25.6495 23.206 25.6956 20.8083C25.7483 18.3712 27.7112 16.4083 30.043 16.461V16.4676Z" fill="#7E2200"/>
<path d="M30.043 16.481C32.4406 16.5403 34.5813 18.1475 34.5813 20.5517C34.5813 22.9559 32.4406 25.1757 30.043 25.1757C27.6453 25.1757 25.6495 23.2326 25.6956 20.8284C25.7483 18.3912 27.7112 16.4283 30.043 16.481Z" fill="#802300"/>
<path d="M30.0495 16.4876C32.4472 16.5469 34.5945 18.1541 34.5945 20.5517C34.5945 22.9493 32.4538 25.1757 30.0495 25.1757C27.6453 25.1757 25.6561 23.2326 25.7022 20.8284C25.7549 18.3912 27.7178 16.4283 30.0495 16.481V16.4876Z" fill="#812300"/>
<path d="M30.0561 16.494C32.4538 16.5532 34.6011 18.1538 34.6011 20.5515C34.6011 22.9491 32.4538 25.1821 30.0561 25.1821C27.6585 25.1821 25.6627 23.2389 25.7088 20.8347C25.7615 18.3976 27.731 16.4347 30.0561 16.4874V16.494Z" fill="#832400"/>
<path d="M30.0625 16.5005C32.4601 16.5598 34.6074 18.1604 34.6074 20.558C34.6074 22.9556 32.4601 25.1886 30.0625 25.1886C27.6649 25.1886 25.669 23.2455 25.7217 20.8478C25.7744 18.4107 27.7439 16.4478 30.0625 16.5071V16.5005Z" fill="#852400"/>
<path d="M30.0625 16.5073C32.4601 16.5666 34.6074 18.1606 34.6074 20.5583C34.6074 22.9559 32.4601 25.1954 30.0625 25.1954C27.6649 25.1954 25.669 23.2523 25.7217 20.8547C25.7744 18.4175 27.7439 16.4546 30.0625 16.5139V16.5073Z" fill="#862500"/>
<path d="M30.0693 16.5138C32.467 16.573 34.6209 18.1605 34.6209 20.5581C34.6209 22.9557 32.467 25.1953 30.0693 25.1953C27.6717 25.1953 25.6759 23.2522 25.7286 20.8545C25.7813 18.4174 27.7507 16.4545 30.0693 16.5138Z" fill="#882500"/>
<path d="M30.0757 16.5204C32.4733 16.5796 34.6272 18.1671 34.6272 20.5647C34.6272 22.9623 32.4733 25.2019 30.0757 25.2019C27.678 25.2019 25.6822 23.2587 25.7349 20.8611C25.7876 18.424 27.7571 16.4611 30.0757 16.5204Z" fill="#8A2600"/>
<path d="M30.0757 16.5269C32.4733 16.5862 34.6272 18.1671 34.6272 20.5647C34.6272 22.9623 32.4733 25.2085 30.0757 25.2085C27.678 25.2085 25.6822 23.2653 25.7349 20.8677C25.7876 18.4306 27.7571 16.4677 30.0757 16.5269Z" fill="#8B2600"/>
<path d="M30.0825 16.5335C32.4801 16.5928 34.6406 18.1671 34.6406 20.5647C34.6406 22.9623 32.4801 25.2085 30.0825 25.2085C27.6849 25.2085 25.689 23.2653 25.7417 20.8677C25.801 18.4306 27.7639 16.4677 30.0825 16.5269V16.5335Z" fill="#8D2600"/>
<path d="M30.0889 16.5467C32.4865 16.6126 34.647 18.1803 34.647 20.5779C34.647 22.9755 32.4865 25.2282 30.0889 25.2282C27.6912 25.2282 25.6954 23.2851 25.7481 20.8875C25.8074 18.4503 27.7703 16.4874 30.0889 16.5467Z" fill="#8F2700"/>
<path d="M30.0957 16.5533C32.4933 16.6192 34.6538 18.1803 34.6538 20.5779C34.6538 22.9755 32.4933 25.2282 30.0957 25.2282C27.6981 25.2282 25.7022 23.2851 25.7549 20.8875C25.8142 18.4503 27.7771 16.4874 30.0957 16.5467V16.5533Z" fill="#912700"/>
<path d="M30.0957 16.5598C32.4868 16.6257 34.6538 18.1868 34.6538 20.5778C34.6538 22.9689 32.4868 25.2348 30.0957 25.2348C27.7047 25.2348 25.7023 23.2916 25.7615 20.9006C25.8208 18.4634 27.7837 16.5005 30.0957 16.5664V16.5598Z" fill="#922800"/>
<path d="M30.1021 16.5664C32.4931 16.6323 34.6668 18.1868 34.6668 20.5844C34.6668 22.982 32.4997 25.2413 30.1021 25.2413C27.7044 25.2413 25.7086 23.2982 25.7679 20.9072C25.8272 18.47 27.7967 16.5071 30.1021 16.573V16.5664Z" fill="#942800"/>
<path d="M30.1087 16.5732C32.4997 16.6391 34.6734 18.187 34.6734 20.5847C34.6734 22.9823 32.5063 25.2482 30.1087 25.2482C27.711 25.2482 25.7152 23.305 25.7745 20.914C25.8338 18.4769 27.8032 16.514 30.1087 16.5798V16.5732Z" fill="#962900"/>
<path d="M30.1087 16.5797C32.4997 16.6456 34.6734 18.1935 34.6734 20.5846C34.6734 22.9756 32.4997 25.2481 30.1087 25.2481C27.7176 25.2481 25.7152 23.305 25.7745 20.9139C25.8338 18.4768 27.8032 16.5139 30.1087 16.5797Z" fill="#972900"/>
<path d="M30.1152 16.5861C32.5063 16.652 34.68 18.1933 34.68 20.5909C34.68 22.9885 32.5063 25.2544 30.1152 25.2544C27.7242 25.2544 25.7218 23.3113 25.7811 20.9203C25.8404 18.4831 27.8098 16.5202 30.1152 16.5861Z" fill="#992A00"/>
<path d="M30.1221 16.5929C32.5131 16.6588 34.6934 18.2001 34.6934 20.5912C34.6934 22.9822 32.5197 25.2613 30.1221 25.2613C27.7245 25.2613 25.7286 23.3181 25.7879 20.9271C25.8472 18.4899 27.8167 16.5271 30.1221 16.5929Z" fill="#9B2A00"/>
<path d="M30.1284 16.5995C32.5195 16.6654 34.6997 18.2001 34.6997 20.5912C34.6997 22.9822 32.5195 25.2613 30.1284 25.2613C27.7374 25.2613 25.735 23.3181 25.7943 20.9271C25.8535 18.4899 27.823 16.5271 30.1284 16.5929V16.5995Z" fill="#9C2B00"/>
<path d="M30.1284 16.6061C32.5195 16.6786 34.6997 18.2001 34.6997 20.5978C34.6997 22.9954 32.5195 25.2745 30.1284 25.2745C27.7374 25.2745 25.735 23.3313 25.7943 20.9403C25.8601 18.5031 27.823 16.5402 30.1284 16.6061Z" fill="#9E2B00"/>
<path d="M30.135 16.619C32.5261 16.6915 34.7129 18.2131 34.7129 20.6041C34.7129 22.9951 32.5327 25.2808 30.135 25.2808C27.7374 25.2808 25.7416 23.3377 25.8008 20.9466C25.8667 18.5095 27.8296 16.5466 30.135 16.6125V16.619Z" fill="#A02C00"/>
<path d="M30.1417 16.6257C32.5327 16.6982 34.7196 18.2132 34.7196 20.6042C34.7196 22.9953 32.5327 25.2875 30.1417 25.2875C27.7506 25.2875 25.7482 23.3509 25.8141 20.9599C25.8799 18.5228 27.8428 16.5599 30.1417 16.6323V16.6257Z" fill="#A22C00"/>
<path d="M30.1417 16.6323C32.5327 16.7048 34.7196 18.2132 34.7196 20.6042C34.7196 22.9953 32.5327 25.2875 30.1417 25.2875C27.7506 25.2875 25.7482 23.3509 25.8141 20.9599C25.8799 18.5228 27.8428 16.5599 30.1417 16.6323Z" fill="#A32D00"/>
<path d="M30.1483 16.6389C32.5393 16.7114 34.7262 18.2198 34.7262 20.6108C34.7262 23.0019 32.5393 25.3007 30.1483 25.3007C27.7572 25.3007 25.7548 23.3641 25.8207 20.9731C25.8865 18.5359 27.8494 16.573 30.1483 16.6455V16.6389Z" fill="#A52D00"/>
<path d="M30.1549 16.6455C32.5459 16.718 34.7393 18.2198 34.7393 20.6108C34.7393 23.0018 32.5459 25.3007 30.1549 25.3007C27.7638 25.3007 25.7614 23.3641 25.8273 20.9731C25.8931 18.5359 27.8626 16.573 30.1549 16.6455Z" fill="#A72D00"/>
<path d="M30.1614 16.6521C32.5525 16.7245 34.7459 18.2264 34.7459 20.6108C34.7459 22.9953 32.5525 25.3007 30.1614 25.3007C27.7704 25.3007 25.768 23.3641 25.8339 20.9731C25.8997 18.5359 27.8692 16.573 30.1614 16.6455V16.6521Z" fill="#A82E00"/>
<path d="M30.1614 16.6587C32.5525 16.7311 34.7459 18.2264 34.7459 20.6174C34.7459 23.0084 32.5525 25.3139 30.1614 25.3139C27.7704 25.3139 25.768 23.3773 25.8339 20.9863C25.8997 18.5491 27.8692 16.5862 30.1614 16.6587Z" fill="#AA2E00"/>
<path d="M30.168 16.6653C32.5525 16.7377 34.7525 18.2264 34.7525 20.6174C34.7525 23.0084 32.5525 25.3139 30.168 25.3139C27.7836 25.3139 25.7746 23.3773 25.8404 20.9863C25.9063 18.5491 27.8758 16.5862 30.168 16.6587V16.6653Z" fill="#AC2F00"/>
<path d="M30.1746 16.6719C32.5591 16.7509 34.7657 18.233 34.7657 20.6174C34.7657 23.0019 32.5657 25.3205 30.1746 25.3205C27.7836 25.3205 25.7812 23.3839 25.847 20.9929C25.9129 18.5557 27.8824 16.5928 30.1746 16.6653V16.6719Z" fill="#AD2F00"/>
<path d="M30.1745 16.6782C32.5589 16.7573 34.7655 18.2327 34.7655 20.6238C34.7655 23.0148 32.5655 25.3268 30.1745 25.3268C27.7834 25.3268 25.781 23.3903 25.8535 21.0058C25.9259 18.5687 27.8888 16.6058 30.1745 16.6848V16.6782Z" fill="#AF3000"/>
<path d="M30.1813 16.6917C32.5658 16.7707 34.7724 18.2462 34.7724 20.6306C34.7724 23.0151 32.5658 25.3402 30.1813 25.3402C27.7968 25.3402 25.7878 23.4037 25.8603 21.0192C25.9328 18.5821 27.8956 16.6192 30.1813 16.6982V16.6917Z" fill="#B13000"/>
<path d="M30.1877 16.6981C32.5721 16.7771 34.7853 18.246 34.7853 20.6305C34.7853 23.0149 32.5787 25.3401 30.1877 25.3401C27.7966 25.3401 25.7942 23.4036 25.8667 21.0191C25.9391 18.582 27.902 16.6191 30.1877 16.6981Z" fill="#B33100"/>
<path d="M30.1945 16.7049C32.5789 16.784 34.7921 18.2463 34.7921 20.6373C34.7921 23.0284 32.5855 25.3469 30.1945 25.3469C27.8034 25.3469 25.801 23.4104 25.8735 21.0259C25.9459 18.5888 27.9088 16.6259 30.1945 16.7049Z" fill="#B43100"/>
<path d="M30.1945 16.7113C32.5789 16.7903 34.7921 18.2526 34.7921 20.6371C34.7921 23.0215 32.5789 25.3533 30.1945 25.3533C27.81 25.3533 25.801 23.4167 25.8735 21.0323C25.9459 18.5951 27.9088 16.6322 30.1945 16.7113Z" fill="#B63200"/>
<path d="M30.2008 16.7179C32.5853 16.7969 34.7985 18.2526 34.7985 20.6371C34.7985 23.0215 32.5853 25.3533 30.2008 25.3533C27.8164 25.3533 25.8074 23.4167 25.8798 21.0323C25.9523 18.5951 27.9152 16.6322 30.2008 16.7113V16.7179Z" fill="#B83200"/>
<path d="M30.2077 16.7245C32.5921 16.8035 34.8119 18.2526 34.8119 20.6437C34.8119 23.0347 32.5921 25.3665 30.2077 25.3665C27.8232 25.3665 25.8142 23.4299 25.8867 21.0455C25.9591 18.6017 27.9286 16.6454 30.2077 16.7245Z" fill="#B93300"/>
<path d="M34.8119 20.6437C34.8119 23.0281 32.5921 25.3665 30.2077 25.3665C27.8232 25.3665 25.8142 23.4299 25.8867 21.0455C25.9591 18.6017 27.9286 16.6454 30.2077 16.7245C32.5921 16.8101 34.8119 18.2526 34.8119 20.6371V20.6437Z" fill="#BB3300"/>
<path opacity="0.99" d="M30.214 16.7378C32.5985 16.8168 34.8183 18.2659 34.8183 20.657C34.8183 23.048 32.6051 25.3798 30.214 25.3798C27.823 25.3798 25.8206 23.4432 25.893 21.0588C25.9655 18.6216 27.935 16.6653 30.214 16.7378Z" fill="#BC3502"/>
<path opacity="0.98" d="M30.2205 16.7444C32.605 16.8234 34.8182 18.2791 34.8182 20.6636C34.8182 23.048 32.605 25.3798 30.2205 25.3798C27.8361 25.3798 25.8337 23.4432 25.8995 21.0588C25.972 18.6216 27.9349 16.6653 30.2205 16.7378V16.7444Z" fill="#BC3705"/>
<path opacity="0.97" d="M30.2205 16.751C32.605 16.83 34.8182 18.2923 34.8182 20.6768C34.8182 23.0612 32.605 25.393 30.2205 25.393C27.8361 25.393 25.8337 23.4564 25.8995 21.072C25.972 18.6348 27.9349 16.6785 30.2205 16.751Z" fill="#BD3907"/>
<path opacity="0.96" d="M30.2274 16.7576C32.6118 16.8366 34.8184 18.2989 34.8184 20.6833C34.8184 23.0678 32.6118 25.393 30.2274 25.393C27.8429 25.393 25.8405 23.4564 25.9064 21.072C25.9788 18.6348 27.9417 16.6785 30.2274 16.751V16.7576Z" fill="#BD3A09"/>
<path opacity="0.95" d="M30.2274 16.7576C32.6118 16.8366 34.8184 18.3055 34.8184 20.6899C34.8184 23.0744 32.6118 25.393 30.2274 25.393C27.8429 25.393 25.8405 23.4564 25.9064 21.072C25.9788 18.6348 27.9417 16.6785 30.2274 16.751V16.7576Z" fill="#BE3C0C"/>
<path opacity="0.95" d="M30.234 16.7639C32.6184 16.843 34.825 18.3118 34.825 20.6963C34.825 23.0807 32.625 25.3993 30.234 25.3993C27.8429 25.3993 25.8471 23.4628 25.913 21.0783C25.9854 18.6412 27.9483 16.6849 30.234 16.7573V16.7639Z" fill="#BF3E0E"/>
<path opacity="0.94" d="M30.234 16.7707C32.6184 16.8498 34.8184 18.3252 34.8184 20.7097C34.8184 23.0942 32.6184 25.4062 30.234 25.4062C27.8495 25.4062 25.8471 23.4696 25.913 21.0852C25.9854 18.648 27.9483 16.6917 30.234 16.7642V16.7707Z" fill="#BF4010"/>
<path opacity="0.93" d="M30.2406 16.7771C32.625 16.8561 34.825 18.3316 34.825 20.7161C34.825 23.1005 32.625 25.4125 30.2406 25.4125C27.8561 25.4125 25.8537 23.476 25.9195 21.0915C25.9854 18.6544 27.9483 16.698 30.2406 16.7705V16.7771Z" fill="#C04213"/>
<path opacity="0.92" d="M30.2406 16.7839C32.625 16.8564 34.8184 18.345 34.8184 20.7295C34.8184 23.1139 32.625 25.4193 30.2406 25.4193C27.8561 25.4193 25.8537 23.4828 25.9195 21.0983C25.9854 18.6612 27.9483 16.7049 30.2406 16.7773V16.7839Z" fill="#C14415"/>
<path opacity="0.91" d="M30.2469 16.7904C32.6314 16.8629 34.8248 18.3515 34.8248 20.7426C34.8248 23.1336 32.6314 25.4324 30.2469 25.4324C27.8624 25.4324 25.86 23.4959 25.9259 21.1114C25.9918 18.6743 27.9547 16.7246 30.2469 16.7904Z" fill="#C14617"/>
<path opacity="0.9" d="M30.2537 16.7904C32.6382 16.8629 34.8316 18.3581 34.8316 20.7426C34.8316 23.127 32.6382 25.4259 30.2537 25.4259C27.8693 25.4259 25.8669 23.4893 25.9327 21.1048C25.9986 18.6677 27.9615 16.718 30.2537 16.7838V16.7904Z" fill="#C24719"/>
<path opacity="0.89" d="M30.2537 16.797C32.6381 16.8695 34.825 18.3713 34.825 20.7558C34.825 23.1402 32.6381 25.439 30.2537 25.439C27.8692 25.439 25.8734 23.5025 25.9327 21.118C25.9986 18.6809 27.9614 16.7312 30.2537 16.797Z" fill="#C2491C"/>
<path opacity="0.88" d="M30.2603 16.8036C32.6447 16.8761 34.8316 18.3779 34.8316 20.7623C34.8316 23.1468 32.6447 25.439 30.2603 25.439C27.8758 25.439 25.88 23.5025 25.9393 21.118C26.0051 18.6809 27.968 16.7312 30.2603 16.797V16.8036Z" fill="#C34B1E"/>
<path opacity="0.87" d="M30.2603 16.8102C32.6447 16.8827 34.825 18.3911 34.825 20.7755C34.825 23.16 32.6447 25.4456 30.2603 25.4456C27.8758 25.4456 25.88 23.5091 25.9393 21.1246C26.0051 18.6941 27.968 16.7377 30.2603 16.8036V16.8102Z" fill="#C44D20"/>
<path opacity="0.86" d="M30.2669 16.8168C32.6513 16.8893 34.8316 18.3977 34.8316 20.7821C34.8316 23.1666 32.6513 25.4522 30.2669 25.4522C27.8824 25.4522 25.8866 23.5157 25.9459 21.1312C26.0117 18.7006 27.968 16.7443 30.2669 16.8102V16.8168Z" fill="#C44F23"/>
<path opacity="0.85" d="M30.2669 16.8234C32.6513 16.8958 34.8316 18.4108 34.8316 20.7953C34.8316 23.1797 32.6513 25.4588 30.2669 25.4588C27.8824 25.4588 25.8866 23.5223 25.9459 21.1378C26.0117 18.7072 27.968 16.7509 30.2669 16.8168V16.8234Z" fill="#C55125"/>
<path opacity="0.85" d="M30.2735 16.8234C32.6579 16.8958 34.8316 18.4108 34.8316 20.7953C34.8316 23.1797 32.6579 25.4588 30.2735 25.4588C27.889 25.4588 25.8932 23.5223 25.9525 21.1378C26.0183 18.7072 27.9746 16.7509 30.2735 16.8168V16.8234Z" fill="#C65327"/>
<path opacity="0.84" d="M30.2735 16.83C32.6579 16.8958 34.8316 18.424 34.8316 20.8085C34.8316 23.1929 32.6579 25.4654 30.2735 25.4654C27.889 25.4654 25.8932 23.5288 25.9525 21.1444C26.0117 18.7138 27.9746 16.7575 30.2735 16.8234V16.83Z" fill="#C6542A"/>
<path opacity="0.83" d="M30.2801 16.8365C32.6645 16.9024 34.8316 18.4305 34.8316 20.8216C34.8316 23.2126 32.6645 25.4785 30.2801 25.4785C27.8956 25.4785 25.8998 23.542 25.9591 21.1575C26.0183 18.727 27.9812 16.7772 30.2801 16.8365Z" fill="#C7562C"/>
<path opacity="0.82" d="M30.2866 16.8431C32.6711 16.909 34.8382 18.4437 34.8382 20.8282C34.8382 23.2126 32.6711 25.4785 30.2866 25.4785C27.9022 25.4785 25.9064 23.542 25.9656 21.1575C26.0249 18.727 27.9878 16.7772 30.2866 16.8365V16.8431Z" fill="#C7582E"/>
<path opacity="0.81" d="M30.2866 16.8497C32.6711 16.9156 34.8382 18.4569 34.8382 20.8414C34.8382 23.2258 32.6711 25.4851 30.2866 25.4851C27.9022 25.4851 25.9064 23.5486 25.9656 21.1641C26.0249 18.7336 27.9878 16.7838 30.2866 16.8431V16.8497Z" fill="#C85A31"/>
<path opacity="0.8" d="M30.2932 16.8563C32.6777 16.9222 34.8382 18.4635 34.8382 20.848C34.8382 23.2324 32.6777 25.4917 30.2932 25.4917C27.9088 25.4917 25.9195 23.5552 25.9722 21.1707C26.0315 18.7401 27.9878 16.7904 30.2932 16.8497V16.8563Z" fill="#C95C33"/>
<path opacity="0.79" d="M30.2932 16.8629C32.6777 16.9288 34.8382 18.4767 34.8382 20.8611C34.8382 23.2456 32.6777 25.4983 30.2932 25.4983C27.9088 25.4983 25.9195 23.5618 25.9722 21.1773C26.0315 18.7467 27.9878 16.797 30.2932 16.8563V16.8629Z" fill="#C95E35"/>
<path opacity="0.78" d="M30.2998 16.8629C32.6843 16.9288 34.8382 18.4767 34.8382 20.8611C34.8382 23.2456 32.6843 25.4983 30.2998 25.4983C27.9154 25.4983 25.9261 23.5618 25.9788 21.1773C26.0381 18.7467 27.9944 16.797 30.2998 16.8563V16.8629Z" fill="#CA6038"/>
<path opacity="0.77" d="M30.2998 16.8692C32.6843 16.9351 34.8382 18.4896 34.8382 20.8741C34.8382 23.2585 32.6843 25.5046 30.2998 25.5046C27.9154 25.5046 25.9261 23.5681 25.9788 21.1836C26.0381 18.7531 27.9944 16.8034 30.2998 16.8626V16.8692Z" fill="#CA613A"/>
<path opacity="0.76" d="M30.3064 16.8761C32.6909 16.9419 34.8448 18.4964 34.8448 20.8875C34.8448 23.2785 32.6909 25.5181 30.3064 25.5181C27.9219 25.5181 25.9327 23.5815 25.9854 21.1971C26.0447 18.7665 28.001 16.8168 30.3064 16.8761Z" fill="#CB633C"/>
<path opacity="0.75" d="M30.313 16.8827C32.6974 16.9419 34.8448 18.5096 34.8448 20.8941C34.8448 23.2785 32.6974 25.5181 30.313 25.5181C27.9285 25.5181 25.9393 23.5815 25.992 21.1971C26.0513 18.7731 28.0076 16.8168 30.313 16.8761V16.8827Z" fill="#CC653F"/>
<path opacity="0.75" d="M30.313 16.8893C32.6974 16.9485 34.8448 18.5228 34.8448 20.9073C34.8448 23.2917 32.6974 25.5313 30.313 25.5313C27.9285 25.5313 25.9393 23.5947 25.992 21.2103C26.0447 18.7863 28.0076 16.83 30.313 16.8893Z" fill="#CC6741"/>
<path opacity="0.74" d="M30.3196 16.8958C32.704 16.9551 34.8514 18.5294 34.8514 20.9138C34.8514 23.2983 32.7106 25.5312 30.3196 25.5312C27.9285 25.5312 25.9459 23.5947 25.9986 21.2102C26.0513 18.7863 28.0076 16.8365 30.3196 16.8892V16.8958Z" fill="#CD6943"/>
<path opacity="0.73" d="M30.3196 16.8958C32.704 16.9551 34.8448 18.5359 34.8448 20.9204C34.8448 23.3049 32.704 25.5312 30.3196 25.5312C27.9351 25.5312 25.9459 23.5947 25.9986 21.2102C26.0513 18.7863 28.0076 16.8365 30.3196 16.8892V16.8958Z" fill="#CE6B46"/>
<path opacity="0.72" d="M30.3262 16.9024C32.7106 16.9617 34.8514 18.5425 34.8514 20.927C34.8514 23.3115 32.7106 25.5378 30.3262 25.5378C27.9417 25.5378 25.9525 23.6013 26.0052 21.2168C26.0579 18.7928 28.0142 16.8431 30.3262 16.8958V16.9024Z" fill="#CE6C48"/>
<path opacity="0.71" d="M30.3262 16.909C32.7106 16.9683 34.8448 18.5557 34.8448 20.9402C34.8448 23.3246 32.7106 25.5444 30.3262 25.5444C27.9417 25.5444 25.9591 23.6079 26.0052 21.2234C26.0579 18.7994 28.0142 16.8497 30.3262 16.9024V16.909Z" fill="#CF6E4A"/>
<path opacity="0.7" d="M30.3328 16.9156C32.7172 16.9749 34.8514 18.5623 34.8514 20.9468C34.8514 23.3312 32.7172 25.551 30.3328 25.551C27.9483 25.551 25.9657 23.6145 26.0118 21.23C26.0645 18.806 28.0208 16.8563 30.3328 16.909V16.9156Z" fill="#CF704C"/>
<path opacity="0.69" d="M30.3328 16.9222C32.7172 16.9815 34.8514 18.5755 34.8514 20.9599C34.8514 23.3444 32.7238 25.5576 30.3328 25.5576C27.9417 25.5576 25.9657 23.6211 26.0118 21.2366C26.0645 18.8126 28.0208 16.8629 30.3328 16.9156V16.9222Z" fill="#D0724F"/>
<path opacity="0.68" d="M30.3394 16.9288C32.7238 16.9881 34.8514 18.5821 34.8514 20.9731C34.8514 23.3642 32.7238 25.5708 30.3394 25.5708C27.9549 25.5708 25.9723 23.6342 26.0184 21.2498C26.0711 18.8258 28.0274 16.8761 30.3394 16.9288Z" fill="#D17451"/>
<path opacity="0.67" d="M30.3457 16.9288C32.7302 16.9815 34.8577 18.5887 34.8577 20.9731C34.8577 23.3576 32.7302 25.5642 30.3457 25.5642C27.9613 25.5642 25.9786 23.6276 26.0247 21.2432C26.0774 18.8192 28.0271 16.8695 30.3457 16.9222V16.9288Z" fill="#D17653"/>
<path opacity="0.66" d="M30.3457 16.9354C32.7302 16.9881 34.8512 18.6019 34.8512 20.9863C34.8512 23.3708 32.7302 25.5774 30.3457 25.5774C27.9613 25.5774 25.9786 23.6408 26.0247 21.2564C26.0774 18.8324 28.0271 16.8827 30.3457 16.9354Z" fill="#D27856"/>
<path opacity="0.65" d="M30.3526 16.942C32.737 16.9947 34.858 18.6084 34.858 20.9929C34.858 23.3774 32.737 25.5774 30.3526 25.5774C27.9681 25.5774 25.9854 23.6408 26.0316 21.2564C26.0777 18.8324 28.034 16.8893 30.3526 16.9354V16.942Z" fill="#D27958"/>
<path opacity="0.65" d="M30.3526 16.9486C32.737 17.0012 34.858 18.6216 34.858 21.0061C34.858 23.3905 32.7436 25.584 30.3526 25.584C27.9615 25.584 25.9854 23.6474 26.0316 21.263C26.0777 18.839 28.034 16.8959 30.3526 16.942V16.9486Z" fill="#D37B5A"/>
<path opacity="0.64" d="M30.3589 16.9551C32.7434 17.0078 34.8577 18.6282 34.8577 21.0127C34.8577 23.3971 32.7434 25.5906 30.3589 25.5906C27.9744 25.5906 25.9918 23.654 26.0379 21.2696C26.084 18.8522 28.0403 16.9024 30.3589 16.9486V16.9551Z" fill="#D47D5D"/>
<path opacity="0.63" d="M30.3589 16.9617C32.7434 17.0144 34.8577 18.6414 34.8577 21.0258C34.8577 23.4103 32.7434 25.5972 30.3589 25.5972C27.9744 25.5972 25.9918 23.6606 26.0379 21.2761C26.084 18.8588 28.0403 16.909 30.3589 16.9551V16.9617Z" fill="#D47F5F"/>
<path opacity="0.62" d="M30.3655 16.9617C32.75 17.0144 34.8578 18.6414 34.8578 21.0258C34.8578 23.4103 32.75 25.5972 30.3655 25.5972C27.9811 25.5972 26.005 23.6606 26.0445 21.2761C26.0906 18.8588 28.0404 16.909 30.3655 16.9551V16.9617Z" fill="#D58161"/>
<path opacity="0.61" d="M30.3655 16.9683C32.75 17.021 34.8578 18.6546 34.8578 21.039C34.8578 23.4235 32.75 25.6037 30.3655 25.6037C27.9811 25.6037 26.005 23.6672 26.0445 21.2827C26.0906 18.8654 28.0404 16.9156 30.3655 16.9617V16.9683Z" fill="#D68364"/>
<path opacity="0.6" d="M30.3724 16.9749C32.7568 17.0276 34.8646 18.6678 34.8646 21.0522C34.8646 23.4367 32.7568 25.6169 30.3724 25.6169C27.9879 25.6169 26.0118 23.6804 26.0514 21.2959C26.0975 18.8785 28.0472 16.9288 30.3724 16.9749Z" fill="#D68566"/>
<path opacity="0.59" d="M30.3787 16.9815C32.7632 17.0276 34.8644 18.6743 34.8644 21.0588C34.8644 23.4433 32.7632 25.6169 30.3787 25.6169C27.9943 25.6169 26.0182 23.6804 26.0577 21.2959C26.1038 18.8785 28.0535 16.9288 30.3787 16.9749V16.9815Z" fill="#D78668"/>
<path opacity="0.58" d="M30.3787 16.9881C32.7632 17.0342 34.8644 18.6875 34.8644 21.072C34.8644 23.4564 32.7632 25.6235 30.3787 25.6235C27.9943 25.6235 26.0182 23.687 26.0577 21.3025C26.1038 18.8851 28.0535 16.9354 30.3787 16.9815V16.9881Z" fill="#D7886B"/>
<path opacity="0.57" d="M30.3855 16.9945C32.77 17.0406 34.8646 18.6939 34.8646 21.0784C34.8646 23.4628 32.77 25.6299 30.3855 25.6299C28.0011 25.6299 26.025 23.6934 26.0645 21.3089C26.1041 18.8915 28.0604 16.9484 30.3855 16.9879V16.9945Z" fill="#D88A6D"/>
<path opacity="0.56" d="M30.3855 16.9945C32.77 17.0406 34.8646 18.7005 34.8646 21.0849C34.8646 23.4694 32.77 25.6299 30.3855 25.6299C28.0011 25.6299 26.025 23.6934 26.0645 21.3089C26.1041 18.8915 28.0604 16.9484 30.3855 16.9879V16.9945Z" fill="#D98C6F"/>
<path opacity="0.55" d="M30.3919 17.0013C32.7764 17.0474 34.871 18.7073 34.871 21.0918C34.871 23.4762 32.7764 25.6367 30.3919 25.6367C28.0074 25.6367 26.0314 23.7002 26.0709 21.3157C26.1104 18.8983 28.0601 16.9552 30.3919 16.9947V17.0013Z" fill="#D98E72"/>
<path opacity="0.55" d="M30.3919 17.0077C32.7764 17.0538 34.8644 18.7203 34.8644 21.1047C34.8644 23.4892 32.7764 25.6431 30.3919 25.6431C28.0074 25.6431 26.0314 23.7065 26.0709 21.3221C26.1104 18.9047 28.0601 16.9616 30.3919 17.0011V17.0077Z" fill="#DA9074"/>
<path opacity="0.54" d="M30.3987 17.0143C32.7832 17.0604 34.8712 18.7269 34.8712 21.1179C34.8712 23.5089 32.7832 25.6563 30.3987 25.6563C28.0143 25.6563 26.0382 23.7197 26.0777 21.3353C26.1173 18.9179 28.067 16.9747 30.3987 17.0143Z" fill="#DB9276"/>
<path opacity="0.53" d="M30.3986 17.0209C32.783 17.067 34.8645 18.74 34.8645 21.1245C34.8645 23.5089 32.783 25.6563 30.3986 25.6563C28.0141 25.6563 26.0446 23.7197 26.0776 21.3353C26.1171 18.9179 28.0668 16.9747 30.3986 17.0143V17.0209Z" fill="#DB9379"/>
<path opacity="0.52" d="M30.4051 17.0274C32.7896 17.067 34.8711 18.7532 34.8711 21.1377C34.8711 23.5221 32.7896 25.6694 30.4051 25.6694C28.0207 25.6694 26.0512 23.7329 26.0841 21.3484C26.1237 18.9376 28.0734 16.9879 30.4051 17.0274Z" fill="#DC957B"/>
<path opacity="0.51" d="M30.4117 17.034C32.7962 17.0736 34.8777 18.7598 34.8777 21.1443C34.8777 23.5287 32.7962 25.6694 30.4117 25.6694C28.0273 25.6694 26.0578 23.7329 26.0907 21.3484C26.1303 18.9376 28.08 16.9879 30.4117 17.0274V17.034Z" fill="#DC977D"/>
<path opacity="0.5" d="M30.4117 17.034C32.7962 17.0736 34.8711 18.7664 34.8711 21.1508C34.8711 23.5353 32.7962 25.6694 30.4117 25.6694C28.0273 25.6694 26.0578 23.7329 26.0907 21.3484C26.1303 18.9376 28.08 16.9879 30.4117 17.0274V17.034Z" fill="#DD9980"/>
<path opacity="0.49" d="M30.4183 17.0407C32.8028 17.0802 34.8777 18.773 34.8777 21.1575C34.8777 23.542 32.8028 25.6761 30.4183 25.6761C28.0339 25.6761 26.0644 23.7396 26.0973 21.3551C26.1369 18.9443 28.08 17.0012 30.4183 17.0341V17.0407Z" fill="#DE9B82"/>
<path opacity="0.48" d="M30.4183 17.0473C32.8028 17.0868 34.8711 18.7862 34.8711 21.1707C34.8711 23.5551 32.8028 25.6827 30.4183 25.6827C28.0339 25.6827 26.0644 23.7462 26.0973 21.3617C26.1303 18.9509 28.08 17.0078 30.4183 17.0407V17.0473Z" fill="#DE9D84"/>
<path opacity="0.47" d="M30.4249 17.0539C32.8094 17.0934 34.8777 18.7928 34.8777 21.1773C34.8777 23.5617 32.8094 25.6893 30.4249 25.6893C28.0405 25.6893 26.071 23.7527 26.1039 21.3683C26.1369 18.9575 28.0866 17.0144 30.4249 17.0473V17.0539Z" fill="#DF9F86"/>
<path opacity="0.46" d="M30.4249 17.0605C32.8094 17.1 34.8777 18.806 34.8777 21.1904C34.8777 23.5749 32.8094 25.6959 30.4249 25.6959C28.0405 25.6959 26.071 23.7593 26.1039 21.3749C26.1369 18.9641 28.0866 17.0209 30.4249 17.0539V17.0605Z" fill="#DFA089"/>
<path opacity="0.45" d="M30.4315 17.0673C32.816 17.1068 34.8777 18.8128 34.8777 21.2039C34.8777 23.5949 32.816 25.7093 30.4315 25.7093C28.0471 25.7093 26.0776 23.7728 26.1105 21.3883C26.1434 18.9775 28.0932 17.0344 30.4315 17.0673Z" fill="#E0A28B"/>
<path opacity="0.45" d="M30.4381 17.0671C32.8226 17.1066 34.8843 18.8192 34.8843 21.2036C34.8843 23.5881 32.8226 25.7025 30.4381 25.7025C28.0537 25.7025 26.0842 23.7659 26.1171 21.3815C26.15 18.9707 28.0998 17.0275 30.4381 17.0605V17.0671Z" fill="#E1A48D"/>
<path opacity="0.44" d="M30.438 17.0737C32.8224 17.1066 34.8841 18.8324 34.8841 21.2168C34.8841 23.6013 32.829 25.7157 30.438 25.7157C28.0469 25.7157 26.0906 23.7791 26.117 21.3947C26.1499 18.9839 28.0996 17.0407 30.438 17.0737Z" fill="#E1A690"/>
<path opacity="0.43" d="M30.4448 17.0802C32.8293 17.1132 34.8844 18.8389 34.8844 21.2234C34.8844 23.6079 32.8293 25.7157 30.4448 25.7157C28.0603 25.7157 26.0974 23.7791 26.1238 21.3947C26.1567 18.9839 28.0999 17.0407 30.4448 17.0737V17.0802Z" fill="#E2A892"/>
<path opacity="0.42" d="M30.4448 17.0868C32.8293 17.1198 34.8844 18.8521 34.8844 21.2366C34.8844 23.621 32.8293 25.7223 30.4448 25.7223C28.0603 25.7223 26.0974 23.7857 26.1238 21.4012C26.1567 18.9904 28.0999 17.0473 30.4448 17.0802V17.0868Z" fill="#E3AA94"/>
<path opacity="0.41" d="M30.4511 17.0933C32.8356 17.1262 34.8841 18.8586 34.8841 21.243C34.8841 23.6275 32.8356 25.7287 30.4511 25.7287C28.0667 25.7287 26.1038 23.7921 26.1301 21.4077C26.1631 18.9969 28.1062 17.0603 30.4511 17.0867V17.0933Z" fill="#E3AC97"/>
<path opacity="0.4" d="M30.4511 17.1001C32.8356 17.133 34.8841 18.872 34.8841 21.2564C34.8841 23.6409 32.8356 25.7355 30.4511 25.7355C28.0667 25.7355 26.1038 23.799 26.1301 21.4145C26.1631 19.0103 28.1062 17.0672 30.4511 17.0935V17.1001Z" fill="#E4AD99"/>
<path opacity="0.39" d="M30.458 17.1001C32.8424 17.133 34.891 18.872 34.891 21.2564C34.891 23.6409 32.849 25.7355 30.458 25.7355C28.0669 25.7355 26.1106 23.799 26.137 21.4145C26.1633 19.0103 28.1131 17.0672 30.458 17.0935V17.1001Z" fill="#E4AF9B"/>
<path opacity="0.38" d="M30.458 17.1065C32.8424 17.1394 34.8844 18.8849 34.8844 21.2694C34.8844 23.6538 32.8424 25.7419 30.458 25.7419C28.0735 25.7419 26.1106 23.8053 26.137 21.4209C26.1633 19.0167 28.113 17.0735 30.458 17.0999V17.1065Z" fill="#E5B19E"/>
<path opacity="0.37" d="M30.4643 17.1131C32.8488 17.146 34.8907 18.8981 34.8907 21.2826C34.8907 23.667 32.8488 25.7551 30.4643 25.7551C28.0799 25.7551 26.117 23.8185 26.1433 21.4341C26.1697 19.0298 28.1194 17.0867 30.4643 17.1131Z" fill="#E6B3A0"/>
<path opacity="0.36" d="M30.4712 17.1196C32.8556 17.1526 34.891 18.9047 34.891 21.2891C34.891 23.6736 32.8556 25.7551 30.4712 25.7551C28.0867 25.7551 26.1238 23.8185 26.1502 21.4341C26.1765 19.0298 28.1196 17.0867 30.4712 17.1131V17.1196Z" fill="#E6B5A2"/>
<path opacity="0.35" d="M30.4712 17.1265C32.8556 17.1528 34.891 18.9181 34.891 21.3026C34.891 23.687 32.8556 25.7619 30.4712 25.7619C28.0867 25.7619 26.1238 23.8253 26.1502 21.4409C26.1765 19.0367 28.1196 17.0935 30.4712 17.1199V17.1265Z" fill="#E7B7A5"/>
<path opacity="0.35" d="M30.4776 17.1328C32.8621 17.1592 34.8974 18.9245 34.8974 21.3089C34.8974 23.6934 32.8687 25.7682 30.4776 25.7682C28.0866 25.7682 26.1369 23.8317 26.1566 21.4472C26.183 19.043 28.1261 17.0999 30.4776 17.1262V17.1328Z" fill="#E8B9A7"/>
<path opacity="0.34" d="M30.4776 17.1328C32.8621 17.1592 34.8909 18.931 34.8909 21.3155C34.8909 23.7 32.8621 25.7682 30.4776 25.7682C28.0932 25.7682 26.1369 23.8317 26.1566 21.4472C26.183 19.043 28.1261 17.0999 30.4776 17.1262V17.1328Z" fill="#E8BAA9"/>
<path opacity="0.33" d="M30.4842 17.1397C32.8687 17.166 34.8975 18.9379 34.8975 21.3223C34.8975 23.7068 32.8687 25.7751 30.4842 25.7751C28.0998 25.7751 26.1435 23.8385 26.1632 21.4541C26.1896 19.0499 28.1327 17.1067 30.4842 17.1331V17.1397Z" fill="#E9BCAC"/>
<path opacity="0.32" d="M30.4842 17.1461C32.8687 17.1725 34.8909 18.9509 34.8909 21.3354C34.8909 23.7199 32.8687 25.7816 30.4842 25.7816C28.0998 25.7816 26.1435 23.845 26.1632 21.4606C26.1896 19.0563 28.1327 17.1198 30.4842 17.1396V17.1461Z" fill="#E9BEAE"/>
<path opacity="0.31" d="M30.4908 17.1525C32.8753 17.1788 34.8975 18.9573 34.8975 21.3483C34.8975 23.7394 32.8753 25.7945 30.4908 25.7945C28.1064 25.7945 26.1501 23.8579 26.1698 21.4735C26.1896 19.0693 28.1393 17.1327 30.4908 17.1525Z" fill="#EAC0B0"/>
<path opacity="0.3" d="M30.4908 17.1591C32.8753 17.1854 34.8975 18.9705 34.8975 21.3549C34.8975 23.7394 32.8819 25.7945 30.4908 25.7945C28.0998 25.7945 26.1501 23.8579 26.1698 21.4735C26.1896 19.0693 28.1327 17.1327 30.4908 17.1525V17.1591Z" fill="#EBC2B3"/>
<path opacity="0.29" d="M30.4974 17.1659C32.8819 17.1923 34.8975 18.9839 34.8975 21.3684C34.8975 23.7528 32.8819 25.8079 30.4974 25.8079C28.113 25.8079 26.1567 23.8714 26.1764 21.4869C26.1962 19.0827 28.1393 17.1462 30.4974 17.1659Z" fill="#EBC4B5"/>
<path opacity="0.28" d="M30.5038 17.1725C32.8882 17.1989 34.9038 18.9905 34.9038 21.3749C34.9038 23.7594 32.8882 25.8079 30.5038 25.8079C28.1193 25.8079 26.163 23.8714 26.1828 21.4869C26.2025 19.0893 28.1457 17.1462 30.5038 17.1659V17.1725Z" fill="#ECC6B7"/>
<path opacity="0.27" d="M30.5038 17.1725C32.8882 17.1923 34.8972 18.9971 34.8972 21.3815C34.8972 23.766 32.8882 25.8079 30.5038 25.8079C28.1193 25.8079 26.163 23.8714 26.1828 21.4869C26.2025 19.0893 28.1457 17.1462 30.5038 17.1659V17.1725Z" fill="#ECC7B9"/>
<path opacity="0.26" d="M30.5106 17.1791C32.8951 17.1989 34.9041 19.0037 34.9041 21.3881C34.9041 23.7726 32.8951 25.8145 30.5106 25.8145C28.1261 25.8145 26.1698 23.878 26.1896 21.4935C26.2094 19.0959 28.1525 17.1528 30.5106 17.1725V17.1791Z" fill="#EDC9BC"/>
<path opacity="0.25" d="M30.5105 17.1854C32.895 17.2052 34.904 19.0166 34.904 21.4011C34.904 23.7855 32.895 25.8209 30.5105 25.8209C28.1261 25.8209 26.1763 23.8843 26.1895 21.4999C26.2093 19.1022 28.1524 17.1591 30.5105 17.1789V17.1854Z" fill="#EECBBE"/>
<path opacity="0.25" d="M30.5171 17.1923C32.9016 17.212 34.904 19.0234 34.904 21.4079C34.904 23.7923 32.9016 25.8277 30.5171 25.8277C28.1327 25.8277 26.1829 23.8912 26.1961 21.5067C26.2159 19.1091 28.1524 17.1659 30.5171 17.1857V17.1923Z" fill="#EECDC0"/>
<path opacity="0.24" d="M30.5171 17.199C32.9016 17.2188 34.904 19.0368 34.904 21.4212C34.904 23.8057 32.9016 25.8345 30.5171 25.8345C28.1327 25.8345 26.1829 23.8979 26.1961 21.5135C26.2159 19.1158 28.1524 17.1793 30.5171 17.1924V17.199Z" fill="#EFCFC3"/>
<path opacity="0.23" d="M30.5237 17.2054C32.9082 17.2251 34.904 19.0497 34.904 21.4342C34.904 23.8186 32.9082 25.8474 30.5237 25.8474C28.1393 25.8474 26.1895 23.9108 26.2027 21.5264C26.2225 19.1288 28.159 17.1922 30.5237 17.2054Z" fill="#F0D1C5"/>
<path opacity="0.22" d="M30.5303 17.2054C32.9147 17.2251 34.9106 19.0497 34.9106 21.4342C34.9106 23.8186 32.9147 25.8408 30.5303 25.8408C28.1458 25.8408 26.1961 23.9043 26.2093 21.5198C26.2225 19.1222 28.1656 17.1856 30.5303 17.1988V17.2054Z" fill="#F0D2C7"/>
<path opacity="0.21" d="M30.5303 17.212C32.9147 17.2317 34.9106 19.0629 34.9106 21.4474C34.9106 23.8318 32.9147 25.854 30.5303 25.854C28.1458 25.854 26.1961 23.9174 26.2093 21.533C26.2225 19.1354 28.1656 17.1988 30.5303 17.212Z" fill="#F1D4CA"/>
<path opacity="0.2" d="M30.5369 17.2186C32.9213 17.2383 34.9106 19.0695 34.9106 21.4539C34.9106 23.8384 32.9213 25.854 30.5369 25.854C28.1524 25.854 26.2027 23.9174 26.2159 21.533C26.2291 19.1354 28.1722 17.1988 30.5369 17.212V17.2186Z" fill="#F1D6CC"/>
<path opacity="0.19" d="M30.5369 17.2252C32.9213 17.2383 34.9106 19.0827 34.9106 21.4671C34.9106 23.8516 32.9213 25.8606 30.5369 25.8606C28.1524 25.8606 26.2027 23.924 26.2159 21.5396C26.2291 19.1419 28.1722 17.2054 30.5369 17.2186V17.2252Z" fill="#F2D8CE"/>
<path opacity="0.18" d="M30.5435 17.2318C32.9279 17.2449 34.9106 19.0893 34.9106 21.4737C34.9106 23.8582 32.9279 25.8672 30.5435 25.8672C28.159 25.8672 26.2093 23.9306 26.2225 21.5462C26.2357 19.1485 28.1722 17.212 30.5435 17.2252V17.2318Z" fill="#F3DAD1"/>
<path opacity="0.17" d="M30.5435 17.2383C32.9279 17.2515 34.9106 19.1024 34.9106 21.4869C34.9106 23.8713 32.9279 25.8738 30.5435 25.8738C28.159 25.8738 26.2093 23.9372 26.2225 21.5528C26.2357 19.1551 28.1722 17.2186 30.5435 17.2318V17.2383Z" fill="#F3DCD3"/>
<path opacity="0.16" d="M30.55 17.2383C32.9345 17.2515 34.9171 19.1024 34.9171 21.4935C34.9171 23.8845 32.9345 25.8804 30.55 25.8804C28.1656 25.8804 26.2224 23.9438 26.229 21.5594C26.2422 19.1683 28.1787 17.2252 30.55 17.2383Z" fill="#F4DED5"/>
<path opacity="0.15" d="M30.55 17.2449C32.9345 17.2581 34.9105 19.1156 34.9105 21.5C34.9105 23.8845 32.9345 25.8803 30.55 25.8803C28.1656 25.8803 26.2224 23.9438 26.229 21.5593C26.2422 19.1683 28.1787 17.2317 30.55 17.2383V17.2449Z" fill="#F4DFD8"/>
<path opacity="0.15" d="M30.5566 17.2515C32.9411 17.2647 34.9171 19.1287 34.9171 21.5132C34.9171 23.8977 32.9411 25.8935 30.5566 25.8935C28.1722 25.8935 26.229 23.9569 26.2356 21.5725C26.2488 19.1814 28.1853 17.2449 30.5566 17.2515Z" fill="#F5E1DA"/>
<path opacity="0.14" d="M30.5632 17.2581C32.9477 17.2712 34.9237 19.1353 34.9237 21.5198C34.9237 23.9042 32.9542 25.8935 30.5632 25.8935C28.1722 25.8935 26.2356 23.9569 26.2422 21.5725C26.2554 19.1814 28.1919 17.2449 30.5632 17.2515V17.2581Z" fill="#F6E3DC"/>
<path opacity="0.13" d="M30.5632 17.2649C32.9477 17.2781 34.9171 19.1488 34.9171 21.5332C34.9171 23.9177 32.9477 25.9003 30.5632 25.9003C28.1788 25.9003 26.2356 23.9638 26.2422 21.5793C26.2488 19.1883 28.1919 17.2517 30.5632 17.2583V17.2649Z" fill="#F6E5DF"/>
<path opacity="0.12" d="M30.5698 17.2713C32.9543 17.2778 34.9237 19.1551 34.9237 21.5396C34.9237 23.924 32.9543 25.9067 30.5698 25.9067C28.1853 25.9067 26.2422 23.9701 26.2488 21.5857C26.2554 19.1946 28.1919 17.2581 30.5698 17.2647V17.2713Z" fill="#F7E7E1"/>
<path opacity="0.11" d="M30.5698 17.2713C32.9543 17.2778 34.9171 19.1617 34.9171 21.5461C34.9171 23.9306 32.9543 25.9067 30.5698 25.9067C28.1853 25.9067 26.2422 23.9701 26.2488 21.5857C26.2554 19.1946 28.1919 17.2581 30.5698 17.2647V17.2713Z" fill="#F8E9E3"/>
<path opacity="0.1" d="M30.5764 17.2778C32.9608 17.2844 34.9237 19.1683 34.9237 21.5527C34.9237 23.9372 32.9608 25.9133 30.5764 25.9133C28.1919 25.9133 26.2488 23.9767 26.2554 21.5923C26.262 19.2012 28.1985 17.2647 30.5764 17.2713V17.2778Z" fill="#F8EBE6"/>
<path opacity="0.09" d="M30.5764 17.2844C32.9608 17.291 34.9237 19.1815 34.9237 21.5659C34.9237 23.9504 32.9674 25.9199 30.5764 25.9199C28.1853 25.9199 26.2488 23.9833 26.2554 21.5988C26.262 19.2078 28.1985 17.2713 30.5764 17.2778V17.2844Z" fill="#F9ECE8"/>
<path opacity="0.08" d="M30.583 17.291C32.9674 17.2976 34.9237 19.1881 34.9237 21.5791C34.9237 23.9701 32.9674 25.933 30.583 25.933C28.1985 25.933 26.262 23.9965 26.262 21.612C26.262 19.221 28.2051 17.2844 30.583 17.291Z" fill="#F9EEEA"/>
<path opacity="0.07" d="M30.583 17.2976C32.9674 17.2976 34.9237 19.2012 34.9237 21.5857C34.9237 23.9701 32.9674 25.933 30.583 25.933C28.1985 25.933 26.262 23.9965 26.262 21.612C26.262 19.221 28.2051 17.291 30.583 17.291V17.2976Z" fill="#FAF0EC"/>
<path opacity="0.06" d="M30.5896 17.3042C32.974 17.3042 34.9237 19.2144 34.9237 21.5989C34.9237 23.9833 32.974 25.9462 30.5896 25.9462C28.2051 25.9462 26.2686 24.0097 26.2686 21.6252C26.2686 19.2342 28.2117 17.3042 30.5896 17.3042Z" fill="#FBF2EF"/>
<path opacity="0.05" d="M30.5961 17.3042C32.9806 17.3042 34.9303 19.2144 34.9303 21.5988C34.9303 23.9833 32.9806 25.9396 30.5961 25.9396C28.2117 25.9396 26.2751 24.0031 26.2751 21.6186C26.2751 19.2276 28.2117 17.2976 30.5961 17.2976V17.3042Z" fill="#FBF4F1"/>
<path opacity="0.05" d="M30.5961 17.3108C32.9806 17.3108 34.9303 19.2276 34.9303 21.612C34.9303 23.9965 32.9872 25.9462 30.5961 25.9462C28.2051 25.9462 26.2751 24.0097 26.2751 21.6252C26.2751 19.2407 28.2117 17.3042 30.5961 17.3042V17.3108Z" fill="#FCF6F3"/>
<path opacity="0.04" d="M30.6027 17.3174C32.9872 17.3174 34.9303 19.2342 34.9303 21.6186C34.9303 24.0031 32.9872 25.9528 30.6027 25.9528C28.2183 25.9528 26.2817 24.0162 26.2817 21.6318C26.2817 19.2473 28.2183 17.3108 30.6027 17.3108V17.3174Z" fill="#FDF8F6"/>
<path opacity="0.03" d="M30.6027 17.324C32.9872 17.324 34.9303 19.2473 34.9303 21.6318C34.9303 24.0163 32.9872 25.9594 30.6027 25.9594C28.2183 25.9594 26.2817 24.0228 26.2817 21.6384C26.2817 19.2539 28.2183 17.3174 30.6027 17.3174V17.324Z" fill="#FDF9F8"/>
<path opacity="0.02" d="M30.6093 17.3306C32.9938 17.3306 34.9303 19.2539 34.9303 21.6384C34.9303 24.0228 32.9938 25.966 30.6093 25.966C28.2249 25.966 26.2883 24.0294 26.2883 21.645C26.2883 19.2605 28.2249 17.324 30.6093 17.324V17.3306Z" fill="#FEFBFA"/>
</g>
</g>
<mask id="mask1_1_8028" style="mask-type:luminance" maskUnits="userSpaceOnUse" x="0" y="0" width="60" height="40">
<path d="M58.0239 0H1.97607C0.882644 0 0 0.920014 0 2.05973V37.9403C0 39.08 0.882644 40 1.97607 40H58.0239C59.1174 40 60 39.08 60 37.9403V2.05973C60 0.920014 59.1174 0 58.0239 0ZM57.0491 20C57.0491 30.6625 48.7562 39.3134 38.5201 39.3134H1.97607C1.25151 39.3134 0.658689 38.6955 0.658689 37.9403V2.05973C0.658689 1.3045 1.25151 0.686577 1.97607 0.686577H38.5201C48.7496 0.686577 57.0491 9.33059 57.0491 20Z" fill="white"/>
</mask>
<g mask="url(#mask1_1_8028)">
<mask id="mask2_1_8028" style="mask-type:luminance" maskUnits="userSpaceOnUse" x="-6" y="-17" width="72" height="72">
<path d="M30.0231 54.7832C49.6819 54.7832 65.6186 38.8465 65.6186 19.1876C65.6186 -0.471282 49.6819 -16.408 30.0231 -16.408C10.3642 -16.408 -5.57251 -0.471282 -5.57251 19.1876C-5.57251 38.8465 10.3642 54.7832 30.0231 54.7832Z" fill="white"/>
</mask>
<g mask="url(#mask2_1_8028)">
<path d="M43.0451 -29.4353L-18.6025 6.15698L16.9897 67.8046L78.6374 32.2123L43.0451 -29.4353Z" fill="#E04E15"/>
<path d="M43.7919 -28.1484L-17.8557 7.44385L17.7366 69.0915L79.3842 33.4992L43.7919 -28.1484Z" fill="#E04F15"/>
<path d="M44.5329 -26.8647L-17.1147 8.72754L18.4775 70.3752L80.1251 34.7829L44.5329 -26.8647Z" fill="#E15015"/>
<path d="M45.2731 -25.5845L-16.3745 10.0078L19.2178 71.6554L80.8654 36.0632L45.2731 -25.5845Z" fill="#E15115"/>
<path d="M46.0138 -24.2942L-15.6338 11.2981L19.9585 72.9457L81.6061 37.3534L46.0138 -24.2942Z" fill="#E25215"/>
<path d="M46.7575 -23.0195L-14.8901 12.5728L20.7021 74.2204L82.3498 38.6281L46.7575 -23.0195Z" fill="#E25316"/>
<path d="M47.4919 -21.7358L-14.1558 13.8564L21.4365 75.5041L83.0841 39.9118L47.4919 -21.7358Z" fill="#E35416"/>
<path d="M48.2384 -20.4492L-13.4092 15.1431L22.1831 76.7907L83.8307 41.1984L48.2384 -20.4492Z" fill="#E35516"/>
<path d="M48.9728 -19.1655L-12.6748 16.4268L22.9175 78.0744L84.5651 42.4821L48.9728 -19.1655Z" fill="#E35616"/>
<path d="M49.7196 -17.8852L-11.928 17.707L23.6643 79.3546L85.3119 43.7624L49.7196 -17.8852Z" fill="#E45716"/>
<path d="M50.4606 -16.5947L-11.187 18.9976L24.4053 80.6452L86.0529 45.0529L50.4606 -16.5947Z" fill="#E45716"/>
<path d="M51.1974 -15.3203L-10.4502 20.272L25.1421 81.9196L86.7897 46.3273L51.1974 -15.3203Z" fill="#E55816"/>
<path d="M51.9384 -14.0303L-9.70923 21.562L25.883 83.2096L87.5307 47.6174L51.9384 -14.0303Z" fill="#E55916"/>
<path d="M52.6852 -12.7497L-8.9624 22.8425L26.6299 84.4901L88.2775 48.8979L52.6852 -12.7497Z" fill="#E55A16"/>
<path d="M53.4196 -11.4663L-8.22803 24.126L27.3642 85.7736L89.0119 50.1813L53.4196 -11.4663Z" fill="#E65B16"/>
<path d="M54.1662 -10.1792L-7.48145 25.4131L28.1108 87.0607L89.7584 51.4684L54.1662 -10.1792Z" fill="#E65C17"/>
<path d="M54.9071 -8.89549L-6.74048 26.6968L28.8518 88.3444L90.4994 52.7521L54.9071 -8.89549Z" fill="#E75D17"/>
<path d="M55.644 -7.62108L-6.00366 27.9712L29.5886 89.6188L91.2362 54.0265L55.644 -7.62108Z" fill="#E75E17"/>
<path d="M56.3849 -6.3308L-5.2627 29.2615L30.3296 90.9091L91.9772 55.3168L56.3849 -6.3308Z" fill="#E85F17"/>
<path d="M57.1315 -5.05028L-4.51611 30.542L31.0762 92.1896L92.7238 56.5973L57.1315 -5.05028Z" fill="#E86017"/>
<path d="M57.4167 -4.54784L-4.23096 31.0444L31.3613 92.6921L93.0089 57.0998L57.4167 -4.54784Z" fill="#E86117"/>
<path d="M57.7038 -4.05419L-3.94385 31.5381L31.6484 93.1857L93.296 57.5934L57.7038 -4.05419Z" fill="#E96217"/>
<path d="M57.9853 -3.56371L-3.66235 32.0286L31.9299 93.6762L93.5775 58.0839L57.9853 -3.56371Z" fill="#E96317"/>
<path d="M58.2726 -3.06981L-3.375 32.5225L32.2173 94.1701L93.8649 58.5778L58.2726 -3.06981Z" fill="#E96418"/>
<path d="M58.5573 -2.56737L-3.09033 33.0249L32.5019 94.6725L94.1496 59.0802L58.5573 -2.56737Z" fill="#E96518"/>
<path d="M58.8512 -2.07347L-2.79639 33.5188L32.7959 95.1664L94.4435 59.5741L58.8512 -2.07347Z" fill="#EA6618"/>
<path d="M59.1325 -1.57665L-2.51514 34.0156L33.0771 95.6632L94.7248 60.071L59.1325 -1.57665Z" fill="#EA6718"/>
<path d="M59.423 -1.07713L-2.22461 34.5151L33.3677 96.1628L95.0153 60.5705L59.423 -1.07713Z" fill="#EA6818"/>
<path d="M59.7048 -0.5869L-1.94287 35.0054L33.6494 96.653L95.297 61.0607L59.7048 -0.5869Z" fill="#EA6918"/>
<path d="M59.9919 -0.0930002L-1.65576 35.4993L33.9365 97.1469L95.5841 61.5546L59.9919 -0.0930002Z" fill="#EB6A18"/>
<path d="M60.2765 0.409685L-1.37109 36.002L34.2212 97.6496L95.8688 62.0573L60.2765 0.409685Z" fill="#EB6B19"/>
<path d="M60.5705 0.903334L-1.07715 36.4956L34.5151 98.1432L96.1627 62.551L60.5705 0.903334Z" fill="#EB6C19"/>
<path d="M60.852 1.4004L-0.795654 36.9927L34.7966 98.6403L96.4442 63.048L60.852 1.4004Z" fill="#EB6D19"/>
<path d="M61.1425 1.89967L-0.505127 37.4919L35.0871 99.1396L96.7348 63.5473L61.1425 1.89967Z" fill="#EC6E19"/>
<path d="M61.424 2.39674L-0.223633 37.989L35.3686 99.6366L97.0163 64.0444L61.424 2.39674Z" fill="#EC6F19"/>
<path d="M61.7111 2.8838L0.0634766 38.4761L35.6557 100.124L97.3034 64.5314L61.7111 2.8838Z" fill="#EC7019"/>
<path d="M61.996 3.38649L0.348389 38.9788L35.9407 100.626L97.5883 65.0341L61.996 3.38649Z" fill="#EC7119"/>
<path d="M62.2897 3.88038L0.64209 39.4727L36.2344 101.12L97.882 65.528L62.2897 3.88038Z" fill="#ED7219"/>
<path d="M62.5715 4.37721L0.923828 39.9695L36.5161 101.617L98.1637 66.0248L62.5715 4.37721Z" fill="#ED731A"/>
<path d="M62.862 4.87672L1.21436 40.469L36.8066 102.117L98.4543 66.5243L62.862 4.87672Z" fill="#ED741A"/>
<path d="M63.1432 5.37355L1.49561 40.9658L37.0879 102.613L98.7355 67.0212L63.1432 5.37355Z" fill="#ED751A"/>
<path d="M63.4306 5.86085L1.78296 41.4531L37.3752 103.101L99.0229 67.5085L63.4306 5.86085Z" fill="#EE761A"/>
<path d="M63.7155 6.36354L2.06787 41.9558L37.6601 103.603L99.3078 68.0112L63.7155 6.36354Z" fill="#EE771A"/>
<path d="M64.0094 6.8572L2.36182 42.4495L37.9541 104.097L99.6017 68.5048L64.0094 6.8572Z" fill="#EE781A"/>
<path d="M64.2907 7.35402L2.64307 42.9463L38.2353 104.594L99.883 69.0016L64.2907 7.35402Z" fill="#EF791A"/>
<path d="M64.5812 7.85353L2.93359 43.4458L38.5259 105.093L100.173 69.5012L64.5812 7.85353Z" fill="#EF7A1B"/>
<path d="M64.863 8.3506L3.21533 43.9429L38.8076 105.59L100.455 69.9982L64.863 8.3506Z" fill="#EF7B1B"/>
<path d="M65.1501 8.83766L3.50244 44.4299L39.0947 106.078L100.742 70.4853L65.1501 8.83766Z" fill="#EF7C1B"/>
<path d="M65.4347 9.34035L3.78711 44.9326L39.3794 106.58L101.027 70.988L65.4347 9.34035Z" fill="#F07D1B"/>
<path d="M65.7228 9.83742L4.0752 45.4297L39.6675 107.077L101.315 71.485L65.7228 9.83742Z" fill="#F07E1B"/>
<path d="M66.0102 10.3311L4.36255 45.9233L39.9548 107.571L101.602 71.9787L66.0102 10.3311Z" fill="#F07F1B"/>
<path d="M66.2951 10.8338L4.64746 46.426L40.2397 108.074L101.887 72.4814L66.2951 10.8338Z" fill="#F0801B"/>
<path d="M66.5822 11.3277L4.93457 46.9199L40.5268 108.568L102.174 72.9753L66.5822 11.3277Z" fill="#F1801C"/>
<path d="M66.8637 11.8179L5.21606 47.4102L40.8083 109.058L102.456 73.4655L66.8637 11.8179Z" fill="#F1811C"/>
<path d="M67.1545 12.3174L5.50684 47.9097L41.0991 109.557L102.747 73.965L67.1545 12.3174Z" fill="#F1821C"/>
<path d="M67.4423 12.8145L5.79468 48.4067L41.387 110.054L103.035 74.4621L67.4423 12.8145Z" fill="#F1831C"/>
<path d="M67.7297 13.3081L6.08203 48.9004L41.6743 110.548L103.322 74.9557L67.7297 13.3081Z" fill="#F2841C"/>
<path d="M68.0109 13.8049L6.36328 49.3972L41.9556 111.045L103.603 75.4526L68.0109 13.8049Z" fill="#F2851C"/>
<path d="M68.3014 14.3042L6.65381 49.8965L42.2461 111.544L103.894 75.9518L68.3014 14.3042Z" fill="#F2861C"/>
<path d="M68.5832 14.7949L6.93555 50.3872L42.5278 112.035L104.175 76.4426L68.5832 14.7949Z" fill="#F2871D"/>
<path d="M68.8703 15.2883L7.22266 50.8806L42.8149 112.528L104.463 76.936L68.8703 15.2883Z" fill="#F3881D"/>
<path d="M69.1618 15.791L7.51416 51.3833L43.1064 113.031L104.754 77.4387L69.1618 15.791Z" fill="#F3891D"/>
<path d="M69.4489 16.2847L7.80127 51.877L43.3935 113.525L105.041 77.9323L69.4489 16.2847Z" fill="#F38A1D"/>
<path d="M69.7306 16.7818L8.08301 52.374L43.6753 114.022L105.323 78.4294L69.7306 16.7818Z" fill="#F48B1D"/>
<path d="M70.0209 17.2813L8.37329 52.8735L43.9656 114.521L105.613 78.9289L70.0209 17.2813Z" fill="#F48C1D"/>
<path d="M70.3024 17.7715L8.65479 53.3638L44.2471 115.011L105.895 79.4191L70.3024 17.7715Z" fill="#F48D1D"/>
<path d="M70.5895 18.2654L8.94189 53.8577L44.5342 115.505L106.182 79.913L70.5895 18.2654Z" fill="#F48E1E"/>
<path d="M70.881 18.7681L9.2334 54.3604L44.8257 116.008L106.473 80.4157L70.881 18.7681Z" fill="#F58F1E"/>
<path d="M71.1681 19.2617L9.52051 54.854L45.1128 116.502L106.76 80.9094L71.1681 19.2617Z" fill="#F5901E"/>
<path d="M71.4499 19.7588L9.80225 55.3511L45.3945 116.999L107.042 81.4064L71.4499 19.7588Z" fill="#F5911E"/>
<path d="M71.7404 20.2583L10.0928 55.8506L45.685 117.498L107.333 81.9059L71.7404 20.2583Z" fill="#F5921E"/>
<path d="M72.0219 20.7485L10.3743 56.3408L45.9665 117.988L107.614 82.3962L72.0219 20.7485Z" fill="#F6931E"/>
<path d="M72.3092 21.2422L10.6616 56.8345L46.2539 118.482L107.902 82.8898L72.3092 21.2422Z" fill="#F6941E"/>
<path d="M72.5939 21.7451L10.9463 57.3374L46.5386 118.985L108.186 83.3927L72.5939 21.7451Z" fill="#F6951E"/>
<path d="M72.8879 22.2388L11.2402 57.8311L46.8325 119.479L108.48 83.8864L72.8879 22.2388Z" fill="#F6961F"/>
<path d="M73.1693 22.7356L11.5217 58.3279L47.114 119.975L108.762 84.3832L73.1693 22.7356Z" fill="#F7971F"/>
<path d="M73.4596 23.2349L11.812 58.8271L47.4043 120.475L109.052 84.8825L73.4596 23.2349Z" fill="#F7981F"/>
<path d="M73.7414 23.7256L12.0938 59.3179L47.686 120.965L109.334 85.3732L73.7414 23.7256Z" fill="#F7991F"/>
<path d="M74.0285 24.2193L12.3809 59.8115L47.9731 121.459L109.621 85.8669L74.0285 24.2193Z" fill="#F79A1F"/>
<path d="M74.3132 24.7217L12.6655 60.314L48.2578 121.962L109.905 86.3693L74.3132 24.7217Z" fill="#F89B1F"/>
<path d="M74.6071 25.2156L12.9595 60.8079L48.5517 122.455L110.199 86.8632L74.6071 25.2156Z" fill="#F89C1F"/>
<path d="M74.8888 25.7124L13.2412 61.3047L48.8335 122.952L110.481 87.36L74.8888 25.7124Z" fill="#F89D20"/>
<path d="M75.1794 26.2119L13.5317 61.8042L49.124 123.452L110.772 87.8595L75.1794 26.2119Z" fill="#F89E20"/>
<path d="M75.4606 26.7024L13.813 62.2947L49.4053 123.942L111.053 88.35L75.4606 26.7024Z" fill="#F99F20"/>
<path d="M75.7477 27.1961L14.1001 62.7883L49.6924 124.436L111.34 88.8437L75.7477 27.1961Z" fill="#F9A020"/>
</g>
</g>
</g>
<defs>
<linearGradient id="paint0_linear_1_8028" x1="31.8872" y1="23.7857" x2="28.9034" y2="19.1024" gradientUnits="userSpaceOnUse">
<stop stop-color="#FF9200"/>
<stop offset="0.21" stop-color="#FF8D00"/>
<stop offset="0.45" stop-color="#FF7F00"/>
<stop offset="0.62" stop-color="#FF7100"/>
<stop offset="0.82" stop-color="#FF5E00"/>
<stop offset="1" stop-color="#FF5200"/>
</linearGradient>
<linearGradient id="paint1_linear_1_8028" x1="31.4196" y1="23.7198" x2="27.0459" y2="15.1766" gradientUnits="userSpaceOnUse">
<stop stop-color="#FF7100" stop-opacity="0"/>
<stop offset="0.03" stop-color="#FF6D00" stop-opacity="0.01"/>
<stop offset="0.21" stop-color="#FF5900" stop-opacity="0.0625"/>
<stop offset="0.39" stop-color="#FF4800" stop-opacity="0.1764"/>
<stop offset="0.56" stop-color="#FF3B00" stop-opacity="0.3136"/>
<stop offset="0.72" stop-color="#FF3200" stop-opacity="0.4356"/>
<stop offset="0.86" stop-color="#FF2C00" stop-opacity="0.5184"/>
<stop offset="0.98" stop-color="#FF2B00" stop-opacity="0.74"/>
</linearGradient>
<clipPath id="clip0_1_8028">
<rect width="60" height="40" rx="4" fill="white"/>
</clipPath>
</defs>
</svg>
