<svg width="60" height="40" viewBox="0 0 60 40" fill="none" xmlns="http://www.w3.org/2000/svg">
<rect width="60" height="40" rx="4" fill="white"/>
<path d="M23.2532 5.96753H12.1282V32.8258H23.2532V5.96753Z" fill="url(#paint0_linear_1_8398)"/>
<path d="M35.6282 5.71643H24.0032V32.8257H35.6282V5.71643Z" fill="url(#paint1_linear_1_8398)"/>
<path d="M47.7532 5.96753H36.1282V32.9513H47.7532V5.96753Z" fill="url(#paint2_linear_1_8398)"/>
<path fill-rule="evenodd" clip-rule="evenodd" d="M49.8684 28.6085C49.8684 30.2898 49.1765 31.924 47.971 33.0908C46.819 34.2059 45.2655 34.8297 43.6669 34.8338C43.4781 34.8343 43.2892 34.8338 43.1004 34.8338H41.6104H39.3487H36.4811H33.1812H29.601H25.8881H22.2289H18.771H15.6656H13.0869H11.2017H10.1612C10.1391 34.8338 10.0247 34.8503 10.0076 34.8338C9.99086 34.8176 10.007 34.6989 10.007 34.6764V33.3727V31.0124V27.8972V24.3186V20.5925V17.0376V13.945V11.6123V10.3579C10.007 9.33438 10.2095 8.33536 10.6719 7.41816C11.4111 5.95162 12.7286 4.81391 14.2856 4.30485C14.9764 4.07894 15.6884 4 16.4107 4H17.5255H19.4717H22.099H25.2397H28.7197H32.3882H36.0972H39.6724H42.9414H45.7559H47.9616H49.3861H49.8684V4.66129V6.46055V9.11023V12.3406V15.8903V19.4716V22.8077V25.6129V27.6254C49.8684 27.9409 49.8681 28.2563 49.8684 28.5718V28.6085ZM12.3129 21.5501C12.2346 21.5129 12.235 21.5286 12.2212 21.4731C12.2129 21.4399 12.2212 21.3926 12.2212 21.3586V20.9204V19.3432V14.8072V11.0848C12.2212 10.8331 12.2147 10.5799 12.2254 10.3283C12.278 9.08927 12.861 7.90951 13.8065 7.11343C14.4809 6.54564 15.3205 6.1877 16.1964 6.09834C16.7135 6.04562 17.2449 6.07537 17.7642 6.07537H20.4639H21.8081H22.4806H22.8221H22.9817C23.006 6.07537 23.13 6.0583 23.146 6.07537C23.155 6.08503 23.146 6.14804 23.146 6.16034V6.40005V7.30884V10.4895V14.8131V19.5491V23.8972V27.0779C23.146 27.4891 23.1477 27.9002 23.146 28.3114C23.1406 29.5564 22.618 30.7566 21.7015 31.5973C21.0412 32.2027 20.1985 32.6007 19.3116 32.7185C18.7776 32.7896 18.2279 32.7586 17.69 32.7586H16.3355H13.6469H12.3061C12.2212 32.7586 12.2374 32.7763 12.2212 32.7271C12.2101 32.6933 12.2212 32.6368 12.2212 32.6018V32.1124V28.085V24.0598V23.3863C13.0849 23.6202 13.9844 23.7526 14.8735 23.8418C15.7374 23.9284 16.609 23.963 17.4766 23.9223C18.6897 23.8654 20.0189 23.6723 21.0186 22.93C21.436 22.6201 21.7692 22.2103 21.9721 21.729C22.1661 21.2691 22.2341 20.771 22.2349 20.2745C22.2355 19.8226 22.2349 19.3706 22.2349 18.9187V15.2094C22.2349 15.1605 22.2427 15.1585 22.2136 15.1412C22.1835 15.1235 22.0904 15.1412 22.054 15.1412H21.8832H21.2321H19.9201H18.6177C18.5687 15.1412 18.4455 15.122 18.4259 15.1571C18.4094 15.1865 18.4259 15.2718 18.4259 15.3052V15.9806V19.9921C18.4259 20.0952 18.4265 20.1982 18.4259 20.3011C18.4215 20.9124 18.216 21.517 17.7541 21.9318C17.1431 22.4805 16.3044 22.5445 15.5246 22.4828C14.6271 22.4115 13.7519 22.164 12.9214 21.8212C12.7161 21.7365 12.5134 21.6457 12.3129 21.5501ZM24.5667 16.2687C24.5359 16.2938 24.5052 16.3193 24.4751 16.3453V13.3338V11.3405C24.4751 10.9567 24.459 10.567 24.4879 10.1839C24.6441 8.10857 26.2804 6.37608 28.3334 6.11227C28.8324 6.04813 29.3452 6.07549 29.8476 6.07549H31.0964H33.6254H34.8836H35.1934C35.225 6.07549 35.3826 6.05717 35.4002 6.07788C35.4109 6.0903 35.4002 6.15933 35.4002 6.17489V7.82856V11.0331V15.183V19.5983V23.6699V26.7674C35.4002 27.2661 35.4006 27.7647 35.4002 28.2633C35.3989 29.9617 34.4531 31.5449 32.9315 32.3C32.2725 32.6271 31.5657 32.7586 30.8347 32.7586H29.571H27.0531H25.7932H25.1642H24.8441C24.7422 32.7586 24.621 32.777 24.521 32.7586C24.4547 32.7464 24.4901 32.7709 24.4751 32.7297C24.4655 32.7035 24.4751 32.6552 24.4751 32.6274V32.2227V30.7521V26.5285V23.0385V22.4906C25.1986 23.1138 26.1155 23.4661 27.0365 23.6711C27.7351 23.8264 28.4504 23.9004 29.1649 23.9274C29.8646 23.9537 30.5694 23.9414 31.267 23.8788C31.9799 23.8146 32.6885 23.7022 33.3899 23.5605C33.5684 23.5245 33.7465 23.4863 33.9241 23.4457C33.9677 23.4356 34.1451 23.4211 34.1689 23.3869C34.1865 23.3616 34.1689 23.2609 34.1689 23.2314V21.6409V21.5061C33.4094 21.8866 32.6136 22.19 31.7792 22.3556C30.7619 22.5576 29.635 22.6139 28.6637 22.1952C27.6807 21.7714 27.0969 20.8625 26.9992 19.8025C26.899 18.713 27.2237 17.5673 28.1516 16.9219C29.113 16.253 30.3727 16.248 31.486 16.4246C32.3146 16.556 33.113 16.8231 33.8704 17.1825C33.9705 17.2301 34.07 17.2792 34.1689 17.3291V15.9533V15.6027C34.1689 15.5756 34.1861 15.4701 34.1689 15.4477C34.1414 15.4118 33.9706 15.399 33.9241 15.3883C33.837 15.3683 33.7499 15.3491 33.6625 15.3303C32.9664 15.1806 32.2626 15.061 31.5547 14.9843C30.8609 14.9091 30.1612 14.8858 29.4635 14.8991C28.7545 14.9128 28.0439 14.9696 27.3462 15.1008C26.4827 15.263 25.6221 15.539 24.8867 16.0325C24.7766 16.1064 24.6697 16.1853 24.5667 16.2687ZM38.8941 19.9576H40.5832C40.8662 19.9576 41.1495 19.9555 41.4325 19.9576C41.7474 19.96 42.0436 20.039 42.2824 20.2542C42.5774 20.5197 42.7096 20.925 42.6514 21.3163C42.6005 21.6587 42.398 21.9661 42.1007 22.142C41.8561 22.287 41.5914 22.3038 41.3154 22.3038H40.4661H39.6215H39.194C39.1269 22.3038 38.9169 22.3322 38.8941 22.282C38.8791 22.2488 38.8941 22.1729 38.8941 22.1369V21.8844V21.1931V20.0224V19.9576ZM42.336 17.3021C42.4131 17.6558 42.3224 18.041 42.0689 18.303C41.845 18.5345 41.5399 18.6289 41.2246 18.6346C40.9702 18.6393 40.7152 18.6346 40.4609 18.6346H39.6859H39.2957H39.0931C39.0564 18.6346 38.9337 18.6551 38.9054 18.6346C38.8722 18.6108 38.8941 18.4485 38.8941 18.4013V17.8364V16.6277C38.8941 16.5939 38.8804 16.5245 38.8941 16.4931C38.9096 16.458 38.918 16.4695 38.9704 16.4695H39.3551H40.145H40.9199C41.064 16.4695 41.2091 16.4641 41.3529 16.4759C41.6556 16.5005 41.9411 16.6336 42.1331 16.8739C42.2331 16.9992 42.3007 17.1458 42.336 17.3021ZM47.6369 6.07537H47.6544V6.58655V7.98896V10.0764V12.6705V15.5548V18.5581V21.4722V24.0905V26.2393V27.7058C47.6544 27.9061 47.6551 28.1066 47.6544 28.3069C47.6487 29.7105 46.9847 31.0458 45.8627 31.8841C45.042 32.4973 44.0789 32.7586 43.0681 32.7586H41.358H39.6535H37.9435H37.0885C37.0344 32.7586 36.7576 32.7911 36.7287 32.7563C36.717 32.7421 36.7287 32.6675 36.7287 32.65V30.9685V28.1376V25.3511V23.7623C36.7287 23.7124 36.718 23.7072 36.7526 23.6922C36.805 23.6693 36.9226 23.6922 36.9809 23.6922H37.1946H38.0496H39.7596H41.4594H43.1694C43.4867 23.6922 43.8046 23.6999 44.1201 23.6601C44.751 23.5806 45.3872 23.3453 45.8412 22.8846C46.4157 22.3019 46.5916 21.3723 46.2261 20.6297C45.9129 19.9935 45.2652 19.6128 44.6015 19.4399C44.395 19.386 44.1837 19.3508 43.9714 19.3313C43.9572 19.3299 43.8869 19.3335 43.8781 19.3235C43.8385 19.2791 43.9095 19.2703 43.9286 19.2642C44.0622 19.2211 44.2094 19.2097 44.345 19.1684C45.0415 18.9563 45.6435 18.4575 45.8317 17.73C46.0264 16.9781 45.7671 16.1751 45.1466 15.708C44.7019 15.3731 44.1446 15.2186 43.5969 15.17C43.0384 15.1205 42.4739 15.1412 41.9137 15.1412H40.2094H38.4992H36.797C36.7012 15.1412 36.7287 15.1149 36.7287 15.026V14.6479V13.3917V10.7921C36.7287 10.3889 36.7416 9.9899 36.826 9.59293C36.9896 8.82219 37.3604 8.10304 37.8897 7.52157C38.6189 6.72047 39.6351 6.20589 40.7112 6.09771C41.3342 6.03508 41.9775 6.07549 42.6034 6.07549H44.3079H46.0179C46.5575 6.07549 47.0972 6.07612 47.6369 6.07537Z" fill="white"/>
<defs>
<linearGradient id="paint0_linear_1_8398" x1="12.1282" y1="17.5819" x2="23.2532" y2="17.5819" gradientUnits="userSpaceOnUse">
<stop stop-color="#1D2970"/>
<stop offset="1" stop-color="#006DBA"/>
</linearGradient>
<linearGradient id="paint1_linear_1_8398" x1="24.0032" y1="17.4394" x2="35.6282" y2="17.4394" gradientUnits="userSpaceOnUse">
<stop stop-color="#6F2B2F"/>
<stop offset="1" stop-color="#E30138"/>
</linearGradient>
<linearGradient id="paint2_linear_1_8398" x1="36.1282" y1="17.6362" x2="47.7532" y2="17.6362" gradientUnits="userSpaceOnUse">
<stop stop-color="#007B40"/>
<stop offset="1" stop-color="#55B330"/>
</linearGradient>
</defs>
</svg>
