<svg width="60" height="40" viewBox="0 0 60 40" fill="none" xmlns="http://www.w3.org/2000/svg">
<rect width="60" height="40" rx="4" fill="#FFA8CD"/>
<path d="M46.2769 21.9908C45.3471 21.9908 44.6224 21.2219 44.6224 20.2883C44.6224 19.3546 45.3471 18.5858 46.2769 18.5858C47.2067 18.5858 47.9313 19.3546 47.9313 20.2883C47.9313 21.2219 47.2067 21.9908 46.2769 21.9908ZM45.8118 23.7894C46.605 23.7894 47.6169 23.4873 48.1777 22.3066L48.2322 22.334C47.9862 22.9793 47.9862 23.3638 47.9862 23.4599V23.6109H49.9824V16.9656H47.9862V17.1167C47.9862 17.2128 47.9862 17.5972 48.2322 18.2425L48.1777 18.27C47.6169 17.0892 46.605 16.7872 45.8118 16.7872C43.9114 16.7872 42.5714 18.2975 42.5714 20.2883C42.5714 22.2791 43.9114 23.7894 45.8118 23.7894ZM39.0981 16.7872C38.1956 16.7872 37.4846 17.103 36.9103 18.27L36.8556 18.2425C37.1017 17.5972 37.1017 17.2128 37.1017 17.1167V16.9656H35.1053V23.6109H37.1564V20.1098C37.1564 19.1899 37.6897 18.6132 38.5511 18.6132C39.4126 18.6132 39.8365 19.1075 39.8365 20.096V23.6109H41.8876V19.3821C41.8876 17.8718 40.7115 16.7872 39.0981 16.7872ZM32.1381 18.27L32.0834 18.2425C32.3295 17.5972 32.3295 17.2128 32.3295 17.1167V16.9656H30.3331V23.6109H32.3842L32.3979 20.4118C32.3979 19.4782 32.8901 18.9153 33.6969 18.9153C33.9157 18.9153 34.0934 18.9427 34.2986 18.9977V16.9656C33.3961 16.7734 32.5893 17.1167 32.1381 18.27ZM25.6156 21.9908C24.6858 21.9908 23.9611 21.2219 23.9611 20.2883C23.9611 19.3546 24.6858 18.5858 25.6156 18.5858C26.5454 18.5858 27.2702 19.3546 27.2702 20.2883C27.2702 21.2219 26.5454 21.9908 25.6156 21.9908ZM25.1507 23.7894C25.9438 23.7894 26.9557 23.4873 27.5163 22.3066L27.571 22.334C27.3248 22.9793 27.3248 23.3638 27.3248 23.4599V23.6109H29.3212V16.9656H27.3248V17.1167C27.3248 17.2128 27.3248 17.5972 27.571 18.2425L27.5163 18.27C26.9557 17.0892 25.9438 16.7872 25.1507 16.7872C23.25 16.7872 21.91 18.2975 21.91 20.2883C21.91 22.2791 23.25 23.7894 25.1507 23.7894ZM19.0521 23.6109H21.1032V14H19.0521V23.6109ZM17.548 14H15.4559C15.4559 15.7162 14.403 17.254 12.8031 18.3524L12.1741 18.7917V14H10V23.6109H12.1741V18.8466L15.7704 23.6109H18.4231L14.9636 19.0526C16.5361 17.913 17.5617 16.1418 17.548 14Z" fill="#0B051D"/>
</svg>
