<svg width="60" height="40" viewBox="0 0 60 40" fill="none" xmlns="http://www.w3.org/2000/svg">
<rect width="60" height="40" rx="4" fill="white"/>
<path d="M34.6758 10.5693H24.1758V29.436H34.6758V10.5693Z" fill="#FF5F00"/>
<path d="M24.8426 20.0028C24.8426 16.3361 26.5426 12.8361 29.4092 10.5694C24.2092 6.46944 16.6426 7.36944 12.5426 12.6028C8.4759 17.8028 9.3759 25.3361 14.6092 29.4361C18.9759 32.8694 25.0759 32.8694 29.4426 29.4361C26.5426 27.1694 24.8426 23.6694 24.8426 20.0028Z" fill="#EB001B"/>
<path d="M48.8426 20.0028C48.8426 26.6361 43.476 32.0028 36.8426 32.0028C34.1426 32.0028 31.5426 31.1028 29.4426 29.4361C34.6426 25.3361 35.5426 17.8028 31.4426 12.5694C30.8426 11.8361 30.176 11.1361 29.4426 10.5694C34.6426 6.46944 42.2093 7.36944 46.276 12.6028C47.9426 14.7028 48.8426 17.3028 48.8426 20.0028Z" fill="#F79E1B"/>
</svg>
