<svg width="60" height="40" viewBox="0 0 60 40" fill="none" xmlns="http://www.w3.org/2000/svg">
<rect width="60" height="40" rx="4" fill="white"/>
<path fill-rule="evenodd" clip-rule="evenodd" d="M13.6958 17.2149C13.508 18.4471 12.5664 18.4471 11.6553 18.4471H11.1371L11.5008 16.1465C11.5225 16.0076 11.6425 15.9053 11.7833 15.9053H12.0212C12.6413 15.9053 13.2268 15.9054 13.5288 16.2581C13.7096 16.4692 13.764 16.7825 13.6958 17.2149ZM13.2994 14H9.86422C9.62902 14 9.42927 14.1709 9.39252 14.4028L8.00357 23.2049C7.97612 23.3784 8.11032 23.5355 8.28612 23.5355H9.92667C10.1614 23.5355 10.3612 23.3647 10.3979 23.1332L10.7731 20.7583C10.8094 20.5264 11.0096 20.3555 11.2443 20.3555H12.3312C14.594 20.3555 15.9002 19.2615 16.2412 17.0924C16.3949 16.1443 16.2474 15.399 15.8032 14.8772C15.3147 14.3036 14.4488 14 13.2994 14Z" fill="#003087"/>
<path fill-rule="evenodd" clip-rule="evenodd" d="M21.2747 20.3749C21.1157 21.3141 20.3698 21.9447 19.418 21.9447C18.941 21.9447 18.5588 21.7912 18.3134 21.5008C18.0702 21.2132 17.9785 20.8029 18.0556 20.3466C18.2035 19.4154 18.9618 18.7648 19.899 18.7648C20.3663 18.7648 20.7454 18.9197 20.9956 19.2127C21.2476 19.5079 21.3469 19.9204 21.2747 20.3749ZM23.5672 17.1754H21.9222C21.7814 17.1754 21.6613 17.2777 21.6392 17.4171L21.567 17.8765L21.4523 17.7101C21.0957 17.1936 20.3016 17.0205 19.5088 17.0205C17.6915 17.0205 16.1391 18.397 15.8371 20.3271C15.6798 21.2902 15.9031 22.2103 16.4496 22.8525C16.9514 23.4425 17.6676 23.6881 18.5211 23.6881C19.9862 23.6881 20.7985 22.748 20.7985 22.748L20.725 23.2048C20.6976 23.3783 20.8318 23.5354 21.008 23.5354H22.4891C22.7243 23.5354 22.9241 23.365 22.9608 23.1331L23.8502 17.5061C23.8776 17.3326 23.743 17.1754 23.5672 17.1754Z" fill="#003087"/>
<path fill-rule="evenodd" clip-rule="evenodd" d="M32.3281 17.1755H30.6748C30.5166 17.1755 30.3687 17.2539 30.2801 17.3849L27.9991 20.7414L27.0327 17.5159C26.972 17.3141 26.786 17.1755 26.5752 17.1755H24.9502C24.754 17.1755 24.6158 17.3685 24.6791 17.5539L26.4995 22.8942L24.7872 25.3085C24.653 25.4979 24.7885 25.7599 25.021 25.7599H26.6726C26.829 25.7599 26.9756 25.6834 27.065 25.555L32.5633 17.6248C32.6949 17.4349 32.5593 17.1755 32.3281 17.1755Z" fill="#003087"/>
<path fill-rule="evenodd" clip-rule="evenodd" d="M38.1975 17.2149C38.0097 18.4471 37.0681 18.4471 36.157 18.4471H35.6388L36.0025 16.1465C36.0242 16.0076 36.1442 15.9053 36.285 15.9053H36.5229C37.143 15.9053 37.7285 15.9054 38.0305 16.2581C38.2112 16.4692 38.2657 16.7825 38.1975 17.2149ZM37.8011 14H34.3659C34.1307 14 33.931 14.1709 33.8942 14.4028L32.5053 23.2049C32.4778 23.3784 32.6124 23.5355 32.7878 23.5355H34.5506C34.7149 23.5355 34.8549 23.416 34.8806 23.254L35.2748 20.7583C35.3111 20.5264 35.5113 20.3555 35.746 20.3555H36.8329C39.0957 20.3555 40.4019 19.2615 40.7429 17.0924C40.8966 16.1443 40.7491 15.399 40.3049 14.8772C39.8164 14.3036 38.9505 14 37.8011 14Z" fill="#009CDE"/>
<path fill-rule="evenodd" clip-rule="evenodd" d="M45.7761 20.3749C45.6171 21.3141 44.8713 21.9447 43.9195 21.9447C43.4424 21.9447 43.0602 21.7912 42.8148 21.5008C42.5712 21.2132 42.48 20.8029 42.5571 20.3466C42.705 19.4154 43.4633 18.7648 44.4005 18.7648C44.8677 18.7648 45.2469 18.9197 45.4971 19.2127C45.7491 19.5079 45.8483 19.9204 45.7761 20.3749ZM48.0686 17.1754H46.4237C46.2828 17.1754 46.1628 17.2777 46.1406 17.4171L46.0685 17.8765L45.9533 17.7101C45.5972 17.1936 44.8031 17.0205 44.0103 17.0205C42.193 17.0205 40.6406 18.397 40.3385 20.3271C40.1813 21.2902 40.4045 22.2103 40.9511 22.8525C41.4529 23.4425 42.1691 23.6881 43.0226 23.6881C44.4877 23.6881 45.3 22.748 45.3 22.748L45.2265 23.2048C45.199 23.3783 45.3332 23.5354 45.5095 23.5354H46.9906C47.2258 23.5354 47.4255 23.365 47.4623 23.1331L48.3516 17.5061C48.3791 17.3326 48.2445 17.1754 48.0686 17.1754Z" fill="#009CDE"/>
<path fill-rule="evenodd" clip-rule="evenodd" d="M50.0076 14.2419L48.5978 23.2051C48.5703 23.3786 48.7045 23.5357 48.8804 23.5357H50.2988C50.5333 23.5357 50.7333 23.3649 50.7698 23.133L52.1603 14.3308C52.1878 14.1573 52.0533 14.0002 51.8773 14.0002H50.2908C50.1493 14.0002 50.0293 14.1024 50.0076 14.2419Z" fill="#009CDE"/>
</svg>
