<svg width="60" height="40" viewBox="0 0 60 40" fill="none" xmlns="http://www.w3.org/2000/svg">
<rect width="60" height="40" rx="4" fill="#FFCA00"/>
<path d="M8.53723 16.4879C8.43355 17.7748 7.84803 18.3359 6.53672 18.4213L6 18.4579V19.5252V20.5926L6.6892 20.556C7.3967 20.5194 8.0737 20.3669 8.51283 20.1412C8.64701 20.0741 8.7446 20.0376 8.7324 20.068C8.7202 20.0924 8.59212 20.3486 8.45794 20.6353C8.16518 21.2269 8.01271 21.8856 8.01271 22.5565V23.0139H9.08005H10.1474V22.709C10.1474 22.2942 10.2572 21.8185 10.428 21.4708C10.7085 20.928 11.3367 20.6292 12.2333 20.6109L12.709 20.6048V19.513V18.4213L12.0686 18.4579C11.3672 18.4945 10.7756 18.6226 10.2816 18.8421C10.0986 18.9214 9.96442 18.9641 9.97662 18.9397C9.98882 18.9153 10.0864 18.7262 10.1901 18.5189C10.4706 17.9882 10.6353 17.3478 10.678 16.622L10.7146 15.9999H9.64727H8.57992L8.53723 16.4879Z" fill="white"/>
<path d="M33.0129 16.97C32.7933 17.1895 32.7872 17.3359 32.9946 17.5799C33.1959 17.8177 33.4459 17.8299 33.6594 17.6165C33.9034 17.3786 33.8546 17.0309 33.5618 16.8846C33.3178 16.7565 33.2142 16.7687 33.0129 16.97Z" fill="#004D5B"/>
<path d="M14.4167 21.9771H15.2706V20.2084H15.9293C16.7832 20.2084 17.1491 20.1047 17.4907 19.7571C18.2409 19.013 18.0579 17.7139 17.1431 17.2381C16.8381 17.0796 16.7893 17.0735 15.6244 17.0491L14.4167 17.0247V21.9771ZM16.8076 18.0676C16.9906 18.2323 17.0089 18.275 17.0089 18.6104C17.0089 19.2264 16.7222 19.4155 15.7768 19.4155H15.2706V17.8907H15.9415C16.5941 17.8907 16.6124 17.8968 16.8076 18.0676Z" fill="#004D5B"/>
<path d="M29.1094 17.0613C29.0972 17.0735 29.0911 18.1896 29.1033 19.5314L29.1155 21.9771H29.9694V19.9644H32.1041V19.1715H29.9694V17.8907H32.2261V17.5004C32.2261 17.2015 32.2017 17.1039 32.1285 17.0735C32.0248 17.0308 29.1521 17.0247 29.1094 17.0613Z" fill="#004D5B"/>
<path d="M26.6516 17.7566C26.6089 18.0494 26.3954 18.3726 26.1454 18.5312C25.9807 18.6349 25.9502 18.6898 25.9441 18.8788V19.1106H26.493V20.0987C26.4991 21.41 26.5906 21.6722 27.1334 21.9223C27.3042 22.0016 27.5238 22.0382 27.8531 22.0382H28.3227V21.3063H27.969C27.6762 21.3063 27.5909 21.2819 27.4811 21.166C27.353 21.0318 27.3469 20.9647 27.3469 20.0682V19.1106H28.2618V18.3787H27.2737L27.3713 18.2262C27.4262 18.1408 27.4872 17.9518 27.5116 17.7993L27.5482 17.5248H26.6943L26.6516 17.7566Z" fill="#004D5B"/>
<path d="M23.2728 18.2201C22.6751 18.4153 22.364 18.8727 22.4189 19.4766C22.4738 20.0194 22.8092 20.2511 23.8034 20.4219C24.4499 20.5317 24.6939 20.6354 24.7427 20.8123C24.8768 21.3307 23.8583 21.5503 23.4069 21.0989C23.3033 20.9952 23.2057 20.8733 23.1935 20.8306C23.1691 20.7635 23.0898 20.7696 22.7543 20.855C22.5287 20.9099 22.3457 20.9769 22.3457 21.0013C22.3457 21.0257 22.4372 21.1843 22.547 21.3429C22.8397 21.7881 23.2606 21.9955 23.9498 22.026C24.5475 22.0565 24.889 21.965 25.2245 21.6844C25.5965 21.3673 25.7368 20.7879 25.5416 20.3731C25.3831 20.0377 25.1147 19.9035 24.3157 19.7693C23.5594 19.6473 23.3033 19.5315 23.2728 19.2997C23.224 18.9825 23.7302 18.7447 24.1815 18.8666C24.4255 18.9337 24.5963 19.0618 24.7122 19.2692C24.7671 19.3729 24.7975 19.3729 25.1574 19.2875C25.4867 19.2082 25.5416 19.1777 25.5294 19.0801C25.4867 18.8423 25.2001 18.5129 24.889 18.3421C24.6207 18.2018 24.4865 18.1653 24.0535 18.1531C23.7302 18.1409 23.4374 18.1653 23.2728 18.2201Z" fill="#004D5B"/>
<path d="M19.6011 18.275C18.7411 18.519 18.2288 19.2326 18.2349 20.184C18.2349 20.55 18.2654 20.6842 18.4301 21.0196C18.7777 21.721 19.3084 22.0382 20.1256 22.0382C21.0527 22.0382 21.7663 21.4161 21.9188 20.4768C22.0652 19.5863 21.6199 18.7142 20.8514 18.3726C20.5038 18.2201 19.9488 18.1774 19.6011 18.275ZM20.5587 19.0923C21.0222 19.3119 21.2845 19.9523 21.1259 20.4707C21.0222 20.8123 20.6136 21.2209 20.3147 21.2758C19.9366 21.349 19.6621 21.2575 19.3815 20.983C18.9363 20.5378 18.8753 19.9218 19.2291 19.4339C19.534 19.013 20.089 18.8666 20.5587 19.0923Z" fill="#004D5B"/>
<path d="M35.916 18.3421C35.8123 18.3848 35.6476 18.5189 35.5379 18.6409L35.3488 18.8544L35.3061 18.586L35.2695 18.3177H34.5437V21.9771H35.3976V20.8305C35.3976 19.8668 35.4159 19.6595 35.5074 19.4765C35.7086 19.0679 36.3307 18.9154 36.6601 19.1959L36.8309 19.3423L36.8675 21.9771H37.7152V20.6414C37.7152 19.5985 37.6969 19.2508 37.6238 19.0435C37.5079 18.7263 37.27 18.458 37.0016 18.3421C36.7516 18.2323 36.16 18.2384 35.916 18.3421Z" fill="#004D5B"/>
<path d="M39.3745 18.3604C38.3742 18.7142 37.9778 20.2816 38.6365 21.3124C38.9475 21.8003 39.3989 22.0382 40.021 22.0382C40.4174 22.0382 40.6919 21.9284 40.8931 21.6844L41.0517 21.5015L41.2164 21.7088C41.3811 21.9162 41.747 22.0626 42.0032 22.026C42.113 22.0138 42.1435 21.9589 42.174 21.7149C42.2045 21.4466 42.1923 21.41 42.0703 21.3673C41.9971 21.3368 41.9239 21.2697 41.8995 21.2148C41.8812 21.1599 41.8629 20.4829 41.8629 19.7144V18.3177H41.497C41.1798 18.3177 41.131 18.3299 41.131 18.4336C41.131 18.5007 41.1127 18.5983 41.0944 18.6532C41.0578 18.7386 41.0456 18.7325 40.9602 18.6166C40.7285 18.2872 39.9417 18.1591 39.3745 18.3604ZM40.6248 19.1716C40.9541 19.3729 41.0395 19.5619 41.0395 20.117C41.0395 20.6781 40.9297 20.9403 40.6248 21.1233C40.3625 21.288 39.8868 21.2819 39.6184 21.1233C39.0512 20.7757 39.039 19.69 39.6001 19.2143C39.8502 19.0069 40.3198 18.9825 40.6248 19.1716Z" fill="#004D5B"/>
<path d="M44.1927 18.3848C44.0524 18.458 43.8877 18.5921 43.8328 18.6897C43.7413 18.8483 43.7169 18.8544 43.6803 18.7629C43.662 18.7019 43.6377 18.5799 43.6377 18.4823C43.6316 18.3238 43.6255 18.3177 43.2656 18.3177H42.8997V21.9771H43.7535V20.8183C43.7535 19.5253 43.784 19.385 44.1378 19.1715C44.3512 19.0374 44.7294 19.013 44.9246 19.1167C45.1685 19.2508 45.2173 19.5192 45.2173 20.7878V21.9771H46.0834L46.059 20.556C46.0407 19.2447 46.0285 19.1228 45.9065 18.8971C45.754 18.6043 45.5528 18.4092 45.321 18.3238C45.0282 18.214 44.4854 18.2445 44.1927 18.3848Z" fill="#004D5B"/>
<path d="M47.8765 18.3544C47.4679 18.4825 46.9251 19.0253 46.7848 19.4401C46.5652 20.0927 46.6994 20.9709 47.0897 21.4284C47.4557 21.8553 47.7789 22.0017 48.4193 22.0261C48.9317 22.0505 48.9927 22.0383 49.3037 21.8736C49.566 21.7394 49.6819 21.6236 49.8404 21.3674C49.9441 21.1844 50.0356 21.0136 50.0356 20.9892C50.0356 20.9648 49.9319 20.9161 49.8099 20.8856C49.261 20.7453 49.2854 20.7392 49.139 20.9648C48.8097 21.4833 47.9314 21.3491 47.6204 20.7392C47.4679 20.4464 47.4801 19.8609 47.6509 19.556C47.9314 19.068 48.6084 18.8851 48.9927 19.2022C49.0902 19.2876 49.1939 19.4096 49.2122 19.4706C49.2427 19.5803 49.261 19.5803 49.6575 19.4767C49.999 19.3913 50.06 19.3547 50.0478 19.2571C50.0112 19.0314 49.6819 18.6594 49.3647 18.4825C48.9683 18.2568 48.3461 18.202 47.8765 18.3544Z" fill="#004D5B"/>
<path d="M51.6763 18.3543C51.5239 18.397 51.2738 18.5495 51.1213 18.6836C50.0845 19.5924 50.4138 21.5136 51.6702 21.9406C51.9874 22.0503 52.64 22.0686 52.9693 21.9772C53.3292 21.8796 53.8781 21.3306 53.8781 21.0745C53.8781 21.0379 53.7195 20.9769 53.5305 20.9281L53.1767 20.8427L52.9571 21.0745C52.7498 21.2941 52.7132 21.3063 52.3777 21.3063C52.0911 21.3063 51.9691 21.2758 51.7861 21.1538C51.5361 20.983 51.3775 20.7207 51.3775 20.4829V20.3304H54.0001V19.9949C54.0001 19.2631 53.5488 18.5678 52.9266 18.3543C52.579 18.2384 52.0606 18.2323 51.6763 18.3543ZM52.701 19.0496C52.9023 19.1716 53.0425 19.3545 53.1157 19.5802L53.1523 19.7205H51.3775L51.4446 19.5497C51.6397 19.0313 52.2618 18.7812 52.701 19.0496Z" fill="#004D5B"/>
<path d="M32.897 21.9771H33.7508V18.3177H32.897V21.9771Z" fill="#004D5B"/>
</svg>
