<svg width="60" height="40" viewBox="0 0 60 40" fill="none" xmlns="http://www.w3.org/2000/svg">
<g clip-path="url(#clip0_1_8014)">
<rect width="60" height="40" rx="4" fill="white"/>
<path d="M52.473 17.0939H47.2891V18.3418H49.1431V23.699H50.61V18.3418H52.473V17.0939Z" fill="black"/>
<path d="M28.9291 17.0939H23.7451V18.3418H25.6081V23.699H27.0751V18.3418H28.9291V17.0939Z" fill="black"/>
<path d="M43.9321 16.8843C42.3031 16.8843 41.3941 17.9411 41.3941 19.4625V23.6989H42.8431V19.4261C42.8431 18.761 43.2301 18.2508 43.9501 18.2508C44.6611 18.2508 45.0481 18.8521 45.0481 19.4261V23.6989H46.4971V19.4625C46.4971 17.9411 45.5611 16.8843 43.9321 16.8843Z" fill="black"/>
<path d="M38.4511 17.0939V23.699H39.9091V17.0939H38.4511Z" fill="black"/>
<path d="M33.5371 19.7174L33.5911 20.009L34.9501 23.699H35.5441L37.3981 17.0939H35.9671L35.0761 20.5648L35.0311 20.9383L34.9591 20.5648L33.7711 17.0939H33.3031L32.1241 20.5648L32.0521 20.9383L31.9981 20.5648L31.1161 17.0939H29.6851L31.5391 23.699H32.1331L33.4921 20.009L33.5371 19.7174Z" fill="black"/>
<path d="M20.3519 23.4151C20.3519 23.6081 20.2162 23.8471 20.0534 23.939L14.2378 27.3494C14.075 27.4505 13.8037 27.4505 13.6409 27.3494L7.82531 23.939C7.66251 23.8379 7.52686 23.6081 7.52686 23.4151V16.5853C7.52686 16.3922 7.66251 16.1533 7.82531 16.0613L13.6409 12.651C13.8037 12.5499 14.075 12.5499 14.2378 12.651L20.0534 16.0613C20.2162 16.1624 20.3519 16.3922 20.3519 16.5853V23.4151Z" fill="black"/>
<path d="M16.9681 19.6306L15.4918 21.7369L14.7316 20.6067L15.6067 19.3394C15.7659 19.1167 16.1194 18.4917 15.7128 17.6439C15.3857 16.9589 14.6786 16.625 14.0598 16.625C13.441 16.625 12.7603 16.9332 12.4067 17.6439C12.0001 18.4574 12.3537 19.0996 12.504 19.3137C12.504 19.3137 12.9902 20.0073 13.3968 20.5896L14.0598 21.5144L15.0498 22.9785C15.0587 22.9871 15.2178 23.2183 15.4918 23.2183C15.757 23.2183 15.9161 22.9872 15.9427 22.9615L18.2675 19.6306H16.9681ZM14.0598 19.6819C14.0598 19.6819 13.6708 19.1082 13.4233 18.7143C13.1493 18.2862 13.4587 17.6525 14.0598 17.6525C14.6697 17.6525 14.9703 18.2862 14.6962 18.7143C14.4487 19.1168 14.0598 19.6819 14.0598 19.6819Z" fill="url(#paint0_radial_1_8014)"/>
<path d="M12.6277 21.6684L11.1692 19.6904C11.1692 19.6904 10.7802 19.1167 10.5327 18.7228C10.2587 18.2947 10.568 17.661 11.1692 17.661C11.2487 17.661 11.3194 17.6696 11.3813 17.6867L11.894 16.7791C11.6553 16.6849 11.4078 16.6335 11.1692 16.6335C10.5504 16.6335 9.86975 16.9418 9.51615 17.6525C9.1095 18.4659 9.4631 19.1081 9.6134 19.3222L12.1592 22.9785C12.1769 23.0128 12.3448 23.2439 12.61 23.2439C12.8841 23.2439 13.0343 23.0213 13.0609 22.9871L13.8299 21.8568L13.1669 20.9149L12.6277 21.6684Z" fill="url(#paint1_radial_1_8014)"/>
</g>
<defs>
<radialGradient id="paint0_radial_1_8014" cx="0" cy="0" r="1" gradientUnits="userSpaceOnUse" gradientTransform="translate(13.5703 17.1568) scale(6.84845)">
<stop stop-color="#FFCC00"/>
<stop offset="0.09157" stop-color="#FFC800"/>
<stop offset="0.1739" stop-color="#FFBD00"/>
<stop offset="0.2528" stop-color="#FFAB00"/>
<stop offset="0.3295" stop-color="#FF9100"/>
<stop offset="0.4046" stop-color="#FF7000"/>
<stop offset="0.4786" stop-color="#FF4700"/>
<stop offset="0.5503" stop-color="#FF1800"/>
<stop offset="0.5822" stop-color="#FF0000"/>
<stop offset="1" stop-color="#FF0000"/>
</radialGradient>
<radialGradient id="paint1_radial_1_8014" cx="0" cy="0" r="1" gradientUnits="userSpaceOnUse" gradientTransform="translate(9.44205 17.2823) scale(6.2795)">
<stop stop-color="#00B4E6"/>
<stop offset="0.201" stop-color="#00B0E3"/>
<stop offset="0.3898" stop-color="#01A5DB"/>
<stop offset="0.5737" stop-color="#0292CD"/>
<stop offset="0.7546" stop-color="#0377BA"/>
<stop offset="0.9316" stop-color="#0455A1"/>
<stop offset="1" stop-color="#054696"/>
</radialGradient>
<clipPath id="clip0_1_8014">
<rect width="60" height="40" rx="4" fill="white"/>
</clipPath>
</defs>
</svg>
