<svg width="60" height="40" viewBox="0 0 60 40" fill="none" xmlns="http://www.w3.org/2000/svg">
<rect width="60" height="40" rx="4" fill="white"/>
<path fill-rule="evenodd" clip-rule="evenodd" d="M38.4786 8.00488C37.0855 8.04816 35.382 9.14529 35.0718 10.4981L30.3635 31.334C30.0533 32.6995 30.8973 33.8106 32.2551 33.8311H42.7143C44.0514 33.7649 45.3507 32.6804 45.6557 31.3429L50.3641 10.5069C50.6794 9.1275 49.815 8.00745 48.4346 8.00745L38.4786 8.00488Z" fill="#01798A"/>
<path fill-rule="evenodd" clip-rule="evenodd" d="M30.3637 31.3341L35.072 10.4983C35.3822 9.14542 37.0857 8.04828 38.4534 8.00638L34.4949 8.00381L27.363 8.00244C25.9914 8.03049 24.2658 9.13532 23.9556 10.4983L19.2459 31.3341C18.9345 32.6996 19.7798 33.8107 21.1368 33.8312H32.2553C30.8975 33.8107 30.0534 32.6996 30.3637 31.3341" fill="#024381"/>
<path fill-rule="evenodd" clip-rule="evenodd" d="M19.2459 31.3341L23.9556 10.4982C24.2657 9.13528 25.9914 8.03045 27.3629 8.0024L18.2264 8C16.8472 8 15.0789 9.11749 14.7637 10.4982L10.054 31.3341C10.0254 31.4613 10.0095 31.5859 10 31.7078V32.0944C10.0922 33.0897 10.8523 33.8146 11.9449 33.8311H21.1368C19.7798 33.8107 18.9345 32.6996 19.2459 31.3341" fill="#DD0228"/>
<path fill-rule="evenodd" clip-rule="evenodd" d="M27.5555 23.1848H27.7284C27.8873 23.1848 27.9942 23.1314 28.0443 23.0259L28.4936 22.3534H29.6968L29.4459 22.7957H30.8886L30.7056 23.4734H28.9889C28.7912 23.7709 28.5478 23.9107 28.2552 23.8942H27.3611L27.5555 23.1848ZM27.358 24.1561H30.5186L30.3171 24.8923H29.046L28.8521 25.6029H30.089L29.8875 26.339H28.6506L28.3633 27.3891C28.2921 27.5646 28.3857 27.6435 28.6424 27.6256H29.6505L29.4637 28.3097H27.5283C27.1615 28.3097 27.0356 28.0998 27.1507 27.679L27.5181 26.339H26.7274L26.9283 25.6029H27.719L27.9128 24.8923H27.157L27.358 24.1561ZM32.4027 22.3483L32.3529 22.7793C32.3529 22.7793 32.9491 22.3316 33.4906 22.3316H35.4915L34.7263 25.1019C34.6629 25.4186 34.3907 25.5761 33.9101 25.5761H31.6423L31.1111 27.5214C31.0804 27.6256 31.1237 27.679 31.2381 27.679H31.6844L31.5203 28.2829H30.3859C29.9505 28.2829 29.7693 28.1519 29.8412 27.8888L31.3423 22.3483H32.4027ZM34.0971 23.1314H32.3112L32.0976 23.8789C32.0976 23.8789 32.395 23.6642 32.892 23.6565C33.3876 23.6487 33.9534 23.6565 33.9534 23.6565L34.0971 23.1314ZM33.4501 24.8655C33.5821 24.8834 33.656 24.8311 33.6649 24.7078L33.7742 24.3138H31.9855L31.8355 24.8655H33.4501ZM32.2436 25.7605H33.2746L33.2554 26.2067H33.5299C33.6687 26.2067 33.7374 26.1623 33.7374 26.0746L33.8186 25.786H34.6755L34.5611 26.2067C34.4643 26.5576 34.2077 26.7407 33.7908 26.7586H33.2416L33.239 27.5214C33.2289 27.6435 33.3394 27.7058 33.5669 27.7058H34.0831L33.9165 28.3097H32.6784C32.3314 28.3262 32.1612 28.1608 32.1648 27.81L32.2436 25.7605Z" fill="white"/>
<path fill-rule="evenodd" clip-rule="evenodd" d="M36.6255 23.2153L36.8646 22.3737H38.0734L38.0213 22.6826C38.0213 22.6826 38.639 22.3737 39.0839 22.3737H40.5787L40.3411 23.2153H40.106L38.9783 27.1845H39.2135L38.9898 27.9727H38.7546L38.6568 28.3147H37.4861L37.5838 27.9727H35.2742L35.4992 27.1845H35.7306L36.8593 23.2153H36.6255ZM37.9298 23.2153L37.6221 24.2895C37.6221 24.2895 38.1485 24.0875 38.6022 24.0303C38.7025 23.6552 38.8335 23.2153 38.8335 23.2153H37.9298ZM37.4796 24.7931L37.1709 25.9182C37.1709 25.9182 37.7543 25.6309 38.1547 25.6067C38.2703 25.1719 38.3861 24.7931 38.3861 24.7931H37.4796ZM37.7059 27.1845L37.9373 26.3683H37.0349L36.8023 27.1845H37.7059ZM40.6296 22.3216H41.7661L41.8144 22.741C41.8068 22.8478 41.8703 22.8988 42.0051 22.8988H42.2059L42.0027 23.6094H41.1674C40.8484 23.6259 40.6844 23.504 40.6692 23.2407L40.6296 22.3216ZM43.9779 23.8459L43.7619 24.6088H42.5898L42.3889 25.3181H43.5597L43.3424 26.0796H42.0383L41.7432 26.526H42.3815L42.5289 27.4197C42.5466 27.5087 42.6254 27.5519 42.7602 27.5519H42.9584L42.7501 28.2879H42.0483C41.6847 28.3058 41.4968 28.1837 41.4814 27.9206L41.3122 27.1044L40.7314 27.9727C40.5941 28.2181 40.383 28.3325 40.0984 28.3147H39.0267L39.2352 27.5785H39.5696C39.7069 27.5785 39.8212 27.5175 39.9241 27.3942L40.8332 26.0796H39.6611L39.8783 25.3181H41.1496L41.3517 24.6088H40.0793L40.2967 23.8459H43.9779Z" fill="white"/>
<path fill-rule="evenodd" clip-rule="evenodd" d="M19.7506 18.6575C19.6108 19.3428 19.2866 19.8691 18.7838 20.2429C18.2856 20.6103 17.6429 20.7946 16.8561 20.7946C16.1157 20.7946 15.5729 20.6065 15.2265 20.2289C14.9862 19.9606 14.8667 19.6199 14.8667 19.208C14.8667 19.0377 14.8871 18.8546 14.9278 18.6575L15.7661 14.6147H17.0322L16.2053 18.6118C16.1798 18.7224 16.1697 18.8254 16.171 18.9182C16.1697 19.1229 16.2205 19.2907 16.3235 19.4216C16.4735 19.6162 16.7169 19.7127 17.0557 19.7127C17.4453 19.7127 17.7663 19.6174 18.0154 19.4254C18.2646 19.2347 18.4273 18.964 18.5004 18.6118L19.3299 14.6147H20.5895L19.7506 18.6575Z" fill="white"/>
<path fill-rule="evenodd" clip-rule="evenodd" d="M25.0679 17.0671H26.0594L25.2827 20.6751H24.2931L25.0679 17.0671ZM25.38 15.7526H26.3804L26.1935 16.6284H25.1932L25.38 15.7526Z" fill="white"/>
<path fill-rule="evenodd" clip-rule="evenodd" d="M26.9372 20.4006C26.6779 20.1527 26.5469 19.8183 26.5457 19.3937C26.5457 19.3212 26.5501 19.2386 26.5597 19.1483C26.5692 19.0567 26.5813 18.9677 26.5984 18.8851C26.716 18.2991 26.9665 17.8338 27.3522 17.4905C27.7374 17.1459 28.2021 16.973 28.7461 16.973C29.1917 16.973 29.545 17.0976 29.8038 17.3468C30.0624 17.5973 30.192 17.9354 30.192 18.3652C30.192 18.4389 30.1864 18.5241 30.1768 18.6156C30.1653 18.7084 30.1515 18.7974 30.1354 18.8851C30.0205 19.4623 29.7708 19.9226 29.3849 20.2595C28.9991 20.5989 28.5358 20.7679 27.9955 20.7679C27.5481 20.7679 27.1959 20.6459 26.9372 20.4006ZM28.8269 19.6861C29.0017 19.4966 29.1268 19.2093 29.2031 18.8267C29.2146 18.7669 29.2247 18.7046 29.231 18.6423C29.2373 18.5813 29.2399 18.5241 29.2399 18.4719C29.2399 18.2494 29.1833 18.0766 29.0696 17.9545C28.9565 17.8312 28.7957 17.7702 28.5879 17.7702C28.3133 17.7702 28.0895 17.8667 27.9142 18.06C27.7374 18.2533 27.6122 18.5457 27.5334 18.9347C27.5226 18.9945 27.5137 19.0543 27.5055 19.1127C27.4991 19.1725 27.4973 19.2284 27.4985 19.2792C27.4985 19.5005 27.5551 19.6708 27.6688 19.7916C27.7819 19.9124 27.9419 19.9721 28.1525 19.9721C28.4284 19.9721 28.6521 19.8768 28.8269 19.6861Z" fill="white"/>
<path fill-rule="evenodd" clip-rule="evenodd" d="M20.9168 17.0658H21.8111L21.7088 17.587L21.8371 17.4383C22.127 17.1281 22.4791 16.9742 22.8948 16.9742C23.271 16.9742 23.5424 17.0836 23.7128 17.3035C23.8805 17.5235 23.9263 17.8274 23.8469 18.2177L23.3543 20.6764H22.4353L22.8801 18.4478C22.926 18.2177 22.9133 18.046 22.8426 17.9354C22.7728 17.8248 22.6392 17.7702 22.4467 17.7702C22.2102 17.7702 22.0113 17.8438 21.8492 17.9901C21.6865 18.1375 21.5791 18.3423 21.5263 18.6029L21.1164 20.6764H20.1954L20.9168 17.0658Z" fill="white"/>
<path fill-rule="evenodd" clip-rule="evenodd" d="M31.1719 17.0658H32.0669L31.9653 17.587L32.0922 17.4383C32.3823 17.1281 32.7357 16.9742 33.1501 16.9742C33.5263 16.9742 33.7983 17.0836 33.9672 17.3035C34.134 17.5235 34.1822 17.8274 34.1008 18.2177L33.6101 20.6764H32.6898L33.1348 18.4478C33.1805 18.2177 33.1678 18.046 33.0979 17.9354C33.0254 17.8248 32.8944 17.7702 32.7026 17.7702C32.4661 17.7702 32.2679 17.8438 32.1039 17.9901C31.941 18.1375 31.8331 18.3423 31.7823 18.6029L31.3705 20.6764H30.4507L31.1719 17.0658Z" fill="white"/>
<path fill-rule="evenodd" clip-rule="evenodd" d="M35.5959 14.8282H38.1942C38.6937 14.8282 39.0801 14.9415 39.3457 15.1639C39.6101 15.389 39.7425 15.7119 39.7425 16.1327V16.1454C39.7425 16.2254 39.7372 16.3157 39.7297 16.4136C39.7168 16.5102 39.7003 16.608 39.6789 16.7098C39.5645 17.2667 39.2987 17.7142 38.8882 18.0537C38.4762 18.3918 37.9882 18.5622 37.4264 18.5622H36.033L35.6022 20.6765H34.3958L35.5959 14.8282ZM36.2453 17.5452H37.4009C37.7021 17.5452 37.941 17.4751 38.1153 17.3366C38.2882 17.1968 38.4026 16.9833 38.4661 16.6934C38.4762 16.6399 38.4825 16.5916 38.4902 16.5472C38.4941 16.5052 38.4991 16.4632 38.4991 16.4226C38.4991 16.2153 38.4256 16.0653 38.278 15.9712C38.1305 15.8758 37.8993 15.8301 37.5788 15.8301H36.5974L36.2453 17.5452Z" fill="white"/>
<path fill-rule="evenodd" clip-rule="evenodd" d="M45.1423 21.3745C44.7609 22.1856 44.3975 22.6584 44.184 22.8784C43.9702 23.0959 43.5471 23.6019 42.5276 23.5637L42.6153 22.9446C43.4732 22.6801 43.9372 21.4888 44.2016 20.9613L43.8864 17.076L44.55 17.0671H45.1067L45.1666 19.5043L46.21 17.0671H47.2665L45.1423 21.3745Z" fill="white"/>
<path fill-rule="evenodd" clip-rule="evenodd" d="M42.1882 17.3607L41.7685 17.6494C41.33 17.3061 40.9296 17.0938 40.1569 17.4523C39.1042 17.9404 38.2246 21.6846 41.1229 20.4514L41.2881 20.6471L42.4283 20.6764L43.1771 17.2742L42.1882 17.3607ZM41.5398 19.2207C41.3567 19.7611 40.9476 20.1183 40.6272 20.0166C40.3069 19.9174 40.1925 19.3961 40.378 18.8545C40.561 18.3129 40.9729 17.957 41.2906 18.0587C41.611 18.1579 41.7266 18.6791 41.5398 19.2207Z" fill="white"/>
</svg>
