<svg width="60" height="40" viewBox="0 0 60 40" fill="none" xmlns="http://www.w3.org/2000/svg">
<rect width="60" height="40" rx="4" fill="white"/>
<path d="M24.9257 14.1941L20.4687 24.8156H17.5609L15.3676 16.3392C15.2344 15.8171 15.1187 15.6258 14.7137 15.4058C14.0525 15.0476 12.9607 14.7114 12 14.5028L12.0652 14.1941H16.746C17.3426 14.1941 17.879 14.5908 18.0145 15.2771L19.1728 21.4232L22.0356 14.1939H24.9257V14.1941ZM36.3192 21.3478C36.3309 18.5444 32.4383 18.39 32.465 17.1377C32.4734 16.7566 32.8367 16.3514 33.6319 16.2479C34.0261 16.1964 35.1121 16.1571 36.3438 16.7233L36.827 14.4709C36.1651 14.2309 35.3135 14 34.2539 14C31.5349 14 29.6214 15.4437 29.6052 17.511C29.5877 19.0401 30.971 19.8934 32.0133 20.4015C33.0854 20.9218 33.4452 21.2562 33.4411 21.7216C33.4335 22.4341 32.586 22.7486 31.7939 22.761C30.4113 22.7823 29.609 22.3873 28.9694 22.0903L28.4708 24.4173C29.1136 24.7118 30.2999 24.9688 31.5299 24.9817C34.4199 24.9817 36.3103 23.5559 36.3192 21.3478ZM43.4991 24.8156H46.0433L43.8225 14.1941H41.4742C40.9462 14.1941 40.5008 14.5012 40.3036 14.9733L36.1757 24.8156H39.0643L39.6377 23.2291H43.167L43.4991 24.8156ZM40.4297 21.0522L41.8776 17.0642L42.7109 21.0522H40.4297ZM28.8561 14.1941L26.5814 24.8156H23.8307L26.1062 14.1941H28.8561Z" fill="#1434CB"/>
</svg>
